<svg width="26" height="26" viewBox="0 0 26 26" fill="none" xmlns="http://www.w3.org/2000/svg">
<g clip-path="url(#clip0_399_6739)">
<path d="M0.294334 3.51931L0.241224 22.6375C0.236161 24.4599 1.70172 25.9414 3.51464 25.9465L22.5334 25.9999C24.3463 26.0049 25.82 24.5317 25.8251 22.7093L25.8782 3.59112C25.8833 1.76873 24.4177 0.287251 22.6048 0.282162L3.58608 0.228773C1.77316 0.223684 0.299397 1.69691 0.294334 3.51931Z" fill="#1D3166"/>
<path fill-rule="evenodd" clip-rule="evenodd" d="M18.23 7.64662C18.2296 7.85197 18.1687 8.05259 18.0548 8.2231C17.941 8.39361 17.7794 8.52635 17.5905 8.60451C17.4016 8.68267 17.1939 8.70274 16.9936 8.66219C16.7934 8.62163 16.6096 8.52228 16.4655 8.37669C16.3215 8.2311 16.2236 8.04582 16.1843 7.84431C16.1451 7.64279 16.1661 7.43409 16.2449 7.24462C16.3237 7.05515 16.4566 6.89343 16.6268 6.77991C16.797 6.66639 16.9969 6.60619 17.2012 6.60692C17.4747 6.6079 17.7367 6.71793 17.9295 6.91285C18.1224 7.10778 18.2305 7.37168 18.23 7.64662ZM18.9635 7.64662C18.9624 8.0674 18.813 8.47418 18.5418 8.79468C18.2706 9.11519 17.8951 9.32867 17.4821 9.3972C17.0691 9.46573 16.6453 9.38487 16.286 9.169C15.9267 8.95312 15.6551 8.6162 15.5196 8.21809H15.4902H12.6056C12.4768 8.21029 12.3559 8.15339 12.2675 8.059C12.1791 7.96461 12.1299 7.83986 12.1299 7.71022C12.1299 7.58058 12.1791 7.45583 12.2675 7.36144C12.3559 7.26706 12.4768 7.21015 12.6056 7.20235H15.4755C15.5823 6.78209 15.8381 6.41551 16.1949 6.17156C16.5517 5.9276 16.9848 5.82309 17.4129 5.87767C17.8409 5.93225 18.2344 6.14216 18.5193 6.46793C18.8042 6.7937 18.9609 7.21287 18.9599 7.64662H18.9635Z" fill="white"/>
<path fill-rule="evenodd" clip-rule="evenodd" d="M16.6787 14.7956C16.5621 14.7667 16.4581 14.7002 16.3826 14.6063C16.3072 14.5125 16.2643 14.3964 16.2606 14.2757C16.2122 14.289 16.1622 14.2959 16.112 14.296H12.5929C12.4641 14.2882 12.3432 14.2313 12.2548 14.1369C12.1664 14.0425 12.1172 13.9178 12.1172 13.7881C12.1172 13.6585 12.1664 13.5337 12.2548 13.4394C12.3432 13.345 12.4641 13.2881 12.5929 13.2803L16.1139 13.2913C16.1648 13.2912 16.2155 13.2987 16.2642 13.3135C16.2673 13.1919 16.31 13.0748 16.386 12.9801C16.4619 12.8855 16.5667 12.8186 16.6842 12.7899L17.1353 12.6756C17.1592 12.6129 17.1848 12.5503 17.2142 12.4913L16.9794 12.0986C16.9144 11.9919 16.8874 11.8661 16.9027 11.7418C16.918 11.6176 16.9748 11.5023 17.0638 11.4147L17.7148 10.7621C17.8025 10.6728 17.9178 10.6161 18.0418 10.6014C18.1657 10.5867 18.291 10.6147 18.397 10.681L18.7839 10.917C18.8481 10.8875 18.9141 10.8617 18.9783 10.8377L19.0939 10.3805C19.1235 10.26 19.1926 10.153 19.2901 10.0768C19.3875 10.0006 19.5077 9.95951 19.6312 9.96024H20.5481C20.6727 9.95887 20.7941 10.0001 20.8924 10.0771C20.9907 10.1541 21.06 10.2624 21.0891 10.3842L21.201 10.8377C21.2651 10.8617 21.3257 10.8893 21.3843 10.9151L21.7786 10.6773C21.8852 10.6117 22.0108 10.5846 22.1348 10.6003C22.2588 10.6161 22.3738 10.6738 22.4608 10.764L23.1155 11.4295C23.2022 11.5186 23.257 11.6341 23.2712 11.7579C23.2855 11.8817 23.2585 12.0067 23.1944 12.1134L22.9578 12.5023C22.9871 12.5687 23.0146 12.6332 23.0385 12.6996L23.4914 12.8157C23.6113 12.8455 23.7178 12.915 23.7936 13.013C23.8694 13.1109 23.9103 13.2317 23.9096 13.3559V14.2776C23.913 14.4044 23.873 14.5286 23.7962 14.6293C23.7194 14.73 23.6105 14.801 23.4878 14.8306L23.0366 14.9449C23.011 15.0076 22.9853 15.0684 22.9578 15.1292L23.1944 15.5256C23.2594 15.6323 23.2864 15.7581 23.2711 15.8824C23.2558 16.0066 23.199 16.1219 23.11 16.2095L22.459 16.8621C22.3713 16.9514 22.256 17.0081 22.132 17.0228C22.0081 17.0376 21.8828 17.0095 21.7768 16.9432L21.3898 16.7054C21.3238 16.7367 21.2596 16.7625 21.1955 16.7865L21.0799 17.2418C21.0501 17.363 20.9805 17.4704 20.8823 17.5467C20.7841 17.623 20.6631 17.6637 20.5389 17.6621H19.6C19.476 17.6627 19.3555 17.6211 19.258 17.5441C19.1604 17.4672 19.0916 17.3593 19.0627 17.2381L18.949 16.7828C18.8866 16.7595 18.8255 16.7336 18.7656 16.7054L18.3695 16.9432C18.2633 17.0085 18.1382 17.0357 18.0146 17.0203C17.891 17.0049 17.7763 16.9478 17.6891 16.8584L17.04 16.2021C16.9526 16.1131 16.8972 15.9974 16.8825 15.8732C16.8679 15.749 16.8949 15.6234 16.9593 15.5164L17.1958 15.1292C17.1665 15.0629 17.139 14.9984 17.1151 14.932L16.6787 14.7956ZM17.0088 14.1043L17.4141 14.2094C17.5054 14.232 17.5894 14.2777 17.6581 14.3423C17.7268 14.4068 17.7779 14.488 17.8065 14.5781C17.8375 14.6741 17.8755 14.7678 17.9202 14.8583C17.9643 14.9444 17.9858 15.0404 17.9826 15.1372C17.9794 15.234 17.9516 15.3283 17.9019 15.4113L17.6928 15.7579L18.1293 16.1984L18.4814 15.9846C18.5615 15.9368 18.6523 15.9097 18.7454 15.9059C18.8386 15.902 18.9312 15.9215 19.015 15.9625C19.114 16.0104 19.2112 16.0528 19.3066 16.0878C19.3941 16.1191 19.4725 16.1717 19.5349 16.2408C19.5973 16.31 19.6417 16.3936 19.6642 16.4842L19.7651 16.8879H20.4032L20.5078 16.4786C20.5312 16.3873 20.5771 16.3033 20.6411 16.2344C20.7052 16.1655 20.7855 16.1138 20.8745 16.0841C20.9697 16.0534 21.0623 16.0152 21.1514 15.9698C21.2372 15.9258 21.3327 15.9044 21.4289 15.9077C21.5251 15.9109 21.619 15.9386 21.7016 15.9883L22.0464 16.2003L22.4847 15.7615L22.2738 15.4058C22.2248 15.3257 22.1969 15.2345 22.1927 15.1406C22.1886 15.0468 22.2082 14.9534 22.2499 14.8693C22.2973 14.7749 22.339 14.6776 22.3746 14.5781C22.4046 14.4885 22.4564 14.4078 22.5252 14.3434C22.5941 14.2791 22.6778 14.233 22.7689 14.2094L23.1687 14.108V13.4812L22.7616 13.3761C22.6703 13.3535 22.5862 13.3077 22.5175 13.2432C22.4488 13.1787 22.3977 13.0975 22.3691 13.0074C22.3378 12.9121 22.2998 12.8191 22.2554 12.7291C22.2113 12.643 22.1898 12.547 22.193 12.4502C22.1962 12.3534 22.224 12.259 22.2738 12.1761L22.4847 11.8295L22.0427 11.3797L21.6906 11.5917C21.6104 11.6395 21.5197 11.6665 21.4266 11.6704C21.3334 11.6743 21.2408 11.6548 21.1569 11.6138C21.0579 11.5659 20.9607 11.5235 20.8654 11.4884C20.7767 11.458 20.6969 11.4061 20.6329 11.3373C20.5689 11.2685 20.5228 11.1849 20.4986 11.094L20.3996 10.6902H19.7761L19.6715 11.1013C19.6478 11.1923 19.6018 11.2759 19.5378 11.3445C19.4737 11.4131 19.3936 11.4645 19.3048 11.494C19.2097 11.5257 19.1172 11.5645 19.0279 11.6101C18.942 11.6536 18.8466 11.6747 18.7504 11.6715C18.6543 11.6683 18.5605 11.6408 18.4777 11.5917L18.1329 11.3797L17.6946 11.8184L17.9037 12.1687C17.9531 12.2518 17.9807 12.3461 17.9839 12.4428C17.9871 12.5395 17.9658 12.6355 17.922 12.7217C17.8762 12.8121 17.837 12.9058 17.8047 13.0019C17.7745 13.0914 17.7227 13.172 17.6539 13.2363C17.5851 13.3007 17.5014 13.3468 17.4104 13.3706L17.0069 13.472L17.0088 14.1043ZM19.0682 12.9521C18.8965 13.1607 18.7902 13.4158 18.7629 13.6851C18.7355 13.9544 18.7882 14.2258 18.9143 14.465C19.0405 14.7041 19.2344 14.9003 19.4715 15.0286C19.7086 15.1569 19.9783 15.2116 20.2464 15.1858C20.5144 15.1599 20.7689 15.0547 20.9774 14.8835C21.186 14.7122 21.3393 14.4826 21.4179 14.2237C21.4966 13.9648 21.497 13.6882 21.4192 13.4291C21.3414 13.1699 21.1889 12.9398 20.9809 12.7678C20.7025 12.5383 20.3451 12.4288 19.9867 12.4634C19.6283 12.4979 19.2981 12.6736 19.0682 12.9521Z" fill="white"/>
<path fill-rule="evenodd" clip-rule="evenodd" d="M16.4291 18.9727C16.4287 19.1781 16.3678 19.3787 16.2539 19.5492C16.1401 19.7197 15.9785 19.8525 15.7896 19.9306C15.6007 20.0088 15.393 20.0289 15.1927 19.9883C14.9925 19.9478 14.8087 19.8484 14.6646 19.7028C14.5206 19.5572 14.4227 19.3719 14.3834 19.1704C14.3441 18.9689 14.3652 18.7602 14.444 18.5707C14.5227 18.3813 14.6556 18.2195 14.8259 18.106C14.9961 17.9925 15.196 17.9323 15.4003 17.933C15.6738 17.934 15.9357 18.044 16.1286 18.239C16.3215 18.4339 16.4296 18.6978 16.4291 18.9727ZM17.1626 18.9727C17.1617 19.401 17.0071 19.8145 16.7273 20.1373C16.4475 20.4602 16.0612 20.6708 15.6393 20.7304C15.2175 20.79 14.7884 20.6947 14.4309 20.4619C14.0733 20.2291 13.8113 19.8744 13.693 19.4631H12.5743C12.4456 19.4553 12.3247 19.3984 12.2363 19.304C12.1479 19.2096 12.0986 19.0849 12.0986 18.9552C12.0986 18.8256 12.1479 18.7008 12.2363 18.6064C12.3247 18.5121 12.4456 18.4552 12.5743 18.4474H13.6966C13.8205 18.0391 14.0864 17.6892 14.4456 17.4615C14.8049 17.2339 15.2335 17.1437 15.6534 17.2074C16.0733 17.2711 16.4564 17.4845 16.7328 17.8086C17.0092 18.1327 17.1605 18.5459 17.1589 18.9727H17.1626Z" fill="white"/>
<path d="M10.0636 3.55055C10.7275 3.55055 11.1034 4.21972 11.1016 4.88889L11.0906 8.99239H10.2507C10.1492 8.74004 9.99464 8.51273 9.79764 8.32599C9.60063 8.13925 9.36582 7.99751 9.10927 7.91045C8.85271 7.8234 8.58048 7.79309 8.31119 7.8216C8.04191 7.85011 7.78193 7.93677 7.54904 8.07564C7.31616 8.21452 7.11588 8.40233 6.9619 8.62622C6.80792 8.85012 6.70388 9.10482 6.6569 9.37288C6.60991 9.64094 6.6211 9.91605 6.68969 10.1794C6.75828 10.4427 6.88265 10.688 7.0543 10.8985C7.26037 11.1519 7.5285 11.347 7.83231 11.4646C8.13613 11.5823 8.46517 11.6184 8.7871 11.5695C9.10902 11.5206 9.41274 11.3883 9.66839 11.1857C9.92404 10.983 10.1228 10.717 10.2452 10.4137H11.0869L11.0576 20.7369C11.0576 21.301 10.8192 21.8633 10.324 22.1177C9.8715 22.357 9.36833 22.4835 8.85697 22.4864C8.24384 22.4807 7.64031 22.3326 7.09348 22.0538C6.54666 21.7749 6.07132 21.3728 5.70459 20.8789C5.23557 20.2861 4.90977 19.5919 4.75282 18.8511C4.31454 18.7191 3.90896 18.4954 3.56265 18.1948C2.89697 17.6142 2.37982 16.6851 2.38532 15.3172C2.37304 14.6921 2.4346 14.0677 2.56871 13.4572L6.52248 13.4683C6.82679 13.4691 7.12061 13.5801 7.35025 13.7808C7.57989 13.9815 7.73001 14.2586 7.77317 14.5614C7.37087 14.7264 7.03809 15.0267 6.83173 15.411C6.62537 15.7954 6.55826 16.2398 6.64187 16.6684C6.72548 17.097 6.95462 17.4831 7.2901 17.7606C7.62558 18.0381 8.04656 18.1899 8.48103 18.1899C8.9155 18.1899 9.33648 18.0381 9.67196 17.7606C10.0074 17.4831 10.2366 17.097 10.3202 16.6684C10.4038 16.2398 10.3367 15.7954 10.1303 15.411C9.92398 15.0267 9.59119 14.7264 9.1889 14.5614C9.14254 13.8826 8.84211 13.2466 8.34807 12.7814C7.85403 12.3163 7.20305 12.0565 6.52615 12.0543L3.3756 12.0433C3.51638 11.926 3.67326 11.8298 3.8414 11.7575C3.74577 11.4094 3.69099 11.0512 3.67818 10.6902C3.65205 9.9913 3.74762 9.29319 3.9606 8.62738C4.14398 7.9954 4.48045 7.41901 4.93987 6.94985C5.22308 6.67322 5.5819 6.48774 5.97049 6.4171C6.16633 5.64666 6.61952 4.96722 7.25419 4.49255C8.06265 3.87884 9.04873 3.548 10.0618 3.55055H10.0636ZM8.03541 9.68921C8.03637 9.56402 8.08639 9.44427 8.17462 9.35593C8.26285 9.26758 8.38217 9.21777 8.50671 9.21729C8.56836 9.21753 8.62936 9.22997 8.68622 9.25391C8.74309 9.27785 8.79471 9.31282 8.83813 9.35681C8.88156 9.4008 8.91593 9.45296 8.9393 9.51031C8.96267 9.56766 8.97458 9.62907 8.97434 9.69105C8.97458 9.75318 8.96262 9.81474 8.93913 9.87221C8.91565 9.92968 8.8811 9.98192 8.83748 10.0259C8.79387 10.07 8.74203 10.1049 8.68495 10.1287C8.62788 10.1525 8.56668 10.1648 8.50487 10.1648C8.38031 10.1633 8.26124 10.1131 8.17295 10.0247C8.08479 9.93554 8.03534 9.81492 8.03541 9.68921ZM8.48837 15.8444C8.42683 15.8441 8.36584 15.856 8.30888 15.8794C8.25192 15.9028 8.20012 15.9373 8.15644 15.9809C8.11253 16.0249 8.07768 16.0772 8.05391 16.1347C8.03014 16.1923 8.0179 16.254 8.0179 16.3164C8.0179 16.3787 8.03014 16.4404 8.05391 16.498C8.07768 16.5556 8.11253 16.6079 8.15644 16.6519C8.21111 16.7073 8.27854 16.7482 8.35274 16.7711C8.42695 16.794 8.50562 16.7981 8.58179 16.7831C8.65796 16.7681 8.72926 16.7344 8.78935 16.685C8.84944 16.6356 8.89646 16.5721 8.92625 16.5C8.95603 16.428 8.96765 16.3496 8.96008 16.272C8.9525 16.1943 8.92596 16.1197 8.88282 16.0549C8.83967 15.99 8.78126 15.9369 8.71276 15.9002C8.64427 15.8634 8.56782 15.8443 8.4902 15.8444H8.48837Z" fill="white"/>
</g>
<defs>
<clipPath id="clip0_399_6739">
<rect width="26" height="26" fill="white"/>
</clipPath>
</defs>
</svg>
