<svg width="62" height="63" viewBox="0 0 62 63" fill="none" xmlns="http://www.w3.org/2000/svg">
<path fill-rule="evenodd" clip-rule="evenodd" d="M62 31.4112C62 40.116 58.447 47.755 52.9398 53.4398C47.4327 58.947 39.616 62.5 31.0888 62.5C22.5616 62.5 14.745 58.947 9.23782 53.4398C3.37536 47.755 0 40.116 0 31.4112C0 22.884 3.37536 15.0673 9.06017 9.56017C14.745 4.05301 22.384 0.5 30.9112 0.5C39.4384 0.5 47.255 4.05301 52.7622 9.56017C58.447 15.245 62 22.884 62 31.4112ZM44.0573 27.8582L31.2665 40.649C31.0888 40.8266 30.9112 40.8266 30.9112 40.649L18.1203 27.8582C17.9427 27.6805 17.9427 27.5029 18.1203 27.3252L20.7851 24.6605L30.9112 34.6089C31.0888 34.7865 31.2665 34.7865 31.2665 34.6089L41.2149 24.6605L44.0573 27.3252C44.0573 27.5029 44.0573 27.6805 44.0573 27.8582Z" fill="#587DFF"/>
</svg>
