<svg width="219" height="56" viewBox="0 0 219 56" fill="none" xmlns="http://www.w3.org/2000/svg">
<path d="M13.1615 31.1541C13.1615 27.5631 14.3572 26.3778 17.9295 26.3888L26.2772 26.411L26.3377 13.2414L13.2037 13.2083L13.1799 21.5775C13.1799 25.1666 11.9622 26.3704 8.38986 26.3704L0.0733539 26.3428L0 52.7039L26.224 52.7777L26.2827 39.5602L14.1371 39.5492C13.8843 39.5467 13.6426 39.4445 13.4642 39.2644C13.2858 39.0844 13.185 38.841 13.1835 38.5869L13.1615 31.1541Z" fill="#F8F9FA"/>
<path d="M44.1774 26.4403L52.5251 26.4883L52.5618 13.2948C52.5838 4.87948 47.7296 0.0644177 39.4498 0.0644177L26.3708 0.0515137L26.3359 13.221H37.0713C38.2541 13.221 39.4553 14.4156 39.4553 15.6286C39.4553 16.8416 39.4553 18.025 39.4388 21.6198C39.4223 25.2145 40.6069 26.4311 44.1774 26.4403Z" fill="#F8F9FA"/>
<path d="M30.2947 33.5193L30.2416 52.6375C30.2365 54.4599 31.7021 55.9414 33.515 55.9465L52.5338 55.9999C54.3467 56.0049 55.8204 54.5317 55.8255 52.7093L55.8786 33.5911C55.8837 31.7687 54.4181 30.2872 52.6052 30.2821L33.5864 30.2287C31.7735 30.2237 30.2998 31.6969 30.2947 33.5193Z" fill="#6792FF"/>
<path fill-rule="evenodd" clip-rule="evenodd" d="M48.23 37.6466C48.2296 37.852 48.1687 38.0526 48.0548 38.2231C47.941 38.3936 47.7794 38.5263 47.5905 38.6045C47.4016 38.6827 47.1939 38.7027 46.9936 38.6622C46.7934 38.6216 46.6096 38.5223 46.4655 38.3767C46.3215 38.2311 46.2236 38.0458 46.1843 37.8443C46.1451 37.6428 46.1661 37.4341 46.2449 37.2446C46.3237 37.0552 46.4566 36.8934 46.6268 36.7799C46.797 36.6664 46.9969 36.6062 47.2012 36.6069C47.4747 36.6079 47.7367 36.7179 47.9295 36.9129C48.1224 37.1078 48.2305 37.3717 48.23 37.6466ZM48.9635 37.6466C48.9624 38.0674 48.813 38.4742 48.5418 38.7947C48.2706 39.1152 47.8951 39.3287 47.4821 39.3972C47.0691 39.4657 46.6453 39.3849 46.286 39.169C45.9267 38.9531 45.6551 38.6162 45.5196 38.2181H45.4902H42.6056C42.4768 38.2103 42.3559 38.1534 42.2675 38.059C42.1791 37.9646 42.1299 37.8399 42.1299 37.7102C42.1299 37.5806 42.1791 37.4558 42.2675 37.3614C42.3559 37.2671 42.4768 37.2102 42.6056 37.2024H45.4755C45.5823 36.7821 45.8381 36.4155 46.1949 36.1716C46.5517 35.9276 46.9848 35.8231 47.4129 35.8777C47.8409 35.9323 48.2344 36.1422 48.5193 36.4679C48.8042 36.7937 48.9609 37.2129 48.9599 37.6466H48.9635Z" fill="white"/>
<path fill-rule="evenodd" clip-rule="evenodd" d="M46.6787 44.7956C46.5621 44.7667 46.4581 44.7002 46.3826 44.6063C46.3072 44.5125 46.2643 44.3964 46.2606 44.2757C46.2122 44.289 46.1622 44.2959 46.112 44.296H42.5929C42.4641 44.2882 42.3432 44.2313 42.2548 44.1369C42.1664 44.0425 42.1172 43.9178 42.1172 43.7881C42.1172 43.6585 42.1664 43.5337 42.2548 43.4394C42.3432 43.345 42.4641 43.2881 42.5929 43.2803L46.1139 43.2913C46.1648 43.2912 46.2155 43.2987 46.2642 43.3135C46.2673 43.1919 46.31 43.0748 46.386 42.9801C46.4619 42.8855 46.5667 42.8186 46.6842 42.7899L47.1353 42.6756C47.1592 42.6129 47.1848 42.5503 47.2142 42.4913L46.9794 42.0986C46.9144 41.9919 46.8874 41.8661 46.9027 41.7418C46.918 41.6176 46.9748 41.5023 47.0638 41.4147L47.7148 40.7621C47.8025 40.6728 47.9178 40.6161 48.0418 40.6014C48.1657 40.5867 48.291 40.6147 48.397 40.681L48.7839 40.917C48.8481 40.8875 48.9141 40.8617 48.9783 40.8377L49.0939 40.3805C49.1235 40.26 49.1926 40.153 49.2901 40.0768C49.3875 40.0006 49.5077 39.9595 49.6312 39.9602H50.5481C50.6727 39.9589 50.7941 40.0001 50.8924 40.0771C50.9907 40.1541 51.06 40.2624 51.0891 40.3842L51.201 40.8377C51.2651 40.8617 51.3257 40.8893 51.3843 40.9151L51.7786 40.6773C51.8852 40.6117 52.0108 40.5846 52.1348 40.6003C52.2588 40.6161 52.3738 40.6738 52.4608 40.764L53.1155 41.4295C53.2022 41.5186 53.257 41.6341 53.2712 41.7579C53.2855 41.8817 53.2585 42.0067 53.1944 42.1134L52.9578 42.5023C52.9871 42.5687 53.0146 42.6332 53.0385 42.6996L53.4914 42.8157C53.6113 42.8455 53.7178 42.915 53.7936 43.013C53.8694 43.1109 53.9103 43.2317 53.9096 43.3559V44.2776C53.913 44.4044 53.873 44.5286 53.7962 44.6293C53.7194 44.73 53.6105 44.801 53.4878 44.8306L53.0366 44.9449C53.011 45.0076 52.9853 45.0684 52.9578 45.1292L53.1944 45.5256C53.2594 45.6323 53.2864 45.7581 53.2711 45.8824C53.2558 46.0066 53.199 46.1219 53.11 46.2095L52.459 46.8621C52.3713 46.9514 52.256 47.0081 52.132 47.0228C52.0081 47.0376 51.8828 47.0095 51.7768 46.9432L51.3898 46.7054C51.3238 46.7367 51.2596 46.7625 51.1955 46.7865L51.0799 47.2418C51.0501 47.363 50.9805 47.4704 50.8823 47.5467C50.7841 47.623 50.6631 47.6637 50.5389 47.6621H49.6C49.476 47.6627 49.3555 47.6211 49.258 47.5441C49.1604 47.4672 49.0916 47.3593 49.0627 47.2381L48.949 46.7828C48.8866 46.7595 48.8255 46.7336 48.7656 46.7054L48.3695 46.9432C48.2633 47.0085 48.1382 47.0357 48.0146 47.0203C47.891 47.0049 47.7763 46.9478 47.6891 46.8584L47.04 46.2021C46.9526 46.1131 46.8972 45.9974 46.8825 45.8732C46.8679 45.749 46.8949 45.6234 46.9593 45.5164L47.1958 45.1292C47.1665 45.0629 47.139 44.9984 47.1151 44.932L46.6787 44.7956ZM47.0088 44.1043L47.4141 44.2094C47.5054 44.232 47.5894 44.2777 47.6581 44.3423C47.7268 44.4068 47.7779 44.488 47.8065 44.5781C47.8375 44.6741 47.8755 44.7678 47.9202 44.8583C47.9643 44.9444 47.9858 45.0404 47.9826 45.1372C47.9794 45.234 47.9516 45.3283 47.9019 45.4113L47.6928 45.7579L48.1293 46.1984L48.4814 45.9846C48.5615 45.9368 48.6523 45.9097 48.7454 45.9059C48.8386 45.902 48.9312 45.9215 49.015 45.9625C49.114 46.0104 49.2112 46.0528 49.3066 46.0878C49.3941 46.1191 49.4725 46.1717 49.5349 46.2408C49.5973 46.31 49.6417 46.3936 49.6642 46.4842L49.7651 46.8879H50.4032L50.5078 46.4786C50.5312 46.3873 50.5771 46.3033 50.6411 46.2344C50.7052 46.1655 50.7855 46.1138 50.8745 46.0841C50.9697 46.0534 51.0623 46.0152 51.1514 45.9698C51.2372 45.9258 51.3327 45.9044 51.4289 45.9077C51.5251 45.9109 51.619 45.9386 51.7016 45.9883L52.0464 46.2003L52.4847 45.7615L52.2738 45.4058C52.2248 45.3257 52.1969 45.2345 52.1927 45.1406C52.1886 45.0468 52.2082 44.9534 52.2499 44.8693C52.2973 44.7749 52.339 44.6776 52.3746 44.5781C52.4046 44.4885 52.4564 44.4078 52.5252 44.3434C52.5941 44.2791 52.6778 44.233 52.7689 44.2094L53.1687 44.108V43.4812L52.7616 43.3761C52.6703 43.3535 52.5862 43.3077 52.5175 43.2432C52.4488 43.1787 52.3977 43.0975 52.3691 43.0074C52.3378 42.9121 52.2998 42.8191 52.2554 42.7291C52.2113 42.643 52.1898 42.547 52.193 42.4502C52.1962 42.3534 52.224 42.259 52.2738 42.1761L52.4847 41.8295L52.0427 41.3797L51.6906 41.5917C51.6104 41.6395 51.5197 41.6665 51.4266 41.6704C51.3334 41.6743 51.2408 41.6548 51.1569 41.6138C51.0579 41.5659 50.9607 41.5235 50.8654 41.4884C50.7767 41.458 50.6969 41.4061 50.6329 41.3373C50.5689 41.2685 50.5228 41.1849 50.4986 41.094L50.3996 40.6902H49.7761L49.6715 41.1013C49.6478 41.1923 49.6018 41.2759 49.5378 41.3445C49.4737 41.4131 49.3936 41.4645 49.3048 41.494C49.2097 41.5257 49.1172 41.5645 49.0279 41.6101C48.942 41.6536 48.8466 41.6747 48.7504 41.6715C48.6543 41.6683 48.5605 41.6408 48.4777 41.5917L48.1329 41.3797L47.6946 41.8184L47.9037 42.1687C47.9531 42.2518 47.9807 42.3461 47.9839 42.4428C47.9871 42.5395 47.9658 42.6355 47.922 42.7217C47.8762 42.8121 47.837 42.9058 47.8047 43.0019C47.7745 43.0914 47.7227 43.172 47.6539 43.2363C47.5851 43.3007 47.5014 43.3468 47.4104 43.3706L47.0069 43.472L47.0088 44.1043ZM49.0682 42.9521C48.8965 43.1607 48.7902 43.4158 48.7629 43.6851C48.7355 43.9544 48.7882 44.2258 48.9143 44.465C49.0405 44.7041 49.2344 44.9003 49.4715 45.0286C49.7086 45.1569 49.9783 45.2116 50.2464 45.1858C50.5144 45.1599 50.7689 45.0547 50.9774 44.8835C51.186 44.7122 51.3393 44.4826 51.4179 44.2237C51.4966 43.9648 51.497 43.6882 51.4192 43.4291C51.3414 43.1699 51.1889 42.9398 50.9809 42.7678C50.7025 42.5383 50.3451 42.4288 49.9867 42.4634C49.6283 42.4979 49.2981 42.6736 49.0682 42.9521Z" fill="white"/>
<path fill-rule="evenodd" clip-rule="evenodd" d="M46.4291 48.9727C46.4287 49.1781 46.3678 49.3787 46.2539 49.5492C46.1401 49.7197 45.9785 49.8525 45.7896 49.9306C45.6007 50.0088 45.393 50.0289 45.1927 49.9883C44.9925 49.9478 44.8087 49.8484 44.6646 49.7028C44.5206 49.5572 44.4227 49.3719 44.3834 49.1704C44.3441 48.9689 44.3652 48.7602 44.444 48.5707C44.5227 48.3813 44.6556 48.2195 44.8259 48.106C44.9961 47.9925 45.196 47.9323 45.4003 47.933C45.6738 47.934 45.9357 48.044 46.1286 48.239C46.3215 48.4339 46.4296 48.6978 46.4291 48.9727ZM47.1626 48.9727C47.1617 49.401 47.0071 49.8145 46.7273 50.1373C46.4475 50.4602 46.0612 50.6708 45.6393 50.7304C45.2175 50.79 44.7884 50.6947 44.4309 50.4619C44.0733 50.2291 43.8113 49.8744 43.693 49.4631H42.5743C42.4456 49.4553 42.3247 49.3984 42.2363 49.304C42.1479 49.2096 42.0986 49.0849 42.0986 48.9552C42.0986 48.8256 42.1479 48.7008 42.2363 48.6064C42.3247 48.5121 42.4456 48.4552 42.5743 48.4474H43.6966C43.8205 48.0391 44.0864 47.6892 44.4456 47.4615C44.8049 47.2339 45.2335 47.1437 45.6534 47.2074C46.0733 47.2711 46.4564 47.4845 46.7328 47.8086C47.0092 48.1327 47.1605 48.5459 47.1589 48.9727H47.1626Z" fill="white"/>
<path d="M40.0636 33.5506C40.7275 33.5506 41.1034 34.2197 41.1016 34.8889L41.0906 38.9924H40.2507C40.1492 38.74 39.9946 38.5127 39.7976 38.326C39.6006 38.1393 39.3658 37.9975 39.1093 37.9105C38.8527 37.8234 38.5805 37.7931 38.3112 37.8216C38.0419 37.8501 37.7819 37.9368 37.549 38.0756C37.3162 38.2145 37.1159 38.4023 36.9619 38.6262C36.8079 38.8501 36.7039 39.1048 36.6569 39.3729C36.6099 39.6409 36.6211 39.916 36.6897 40.1794C36.7583 40.4427 36.8827 40.688 37.0543 40.8985C37.2604 41.1519 37.5285 41.347 37.8323 41.4646C38.1361 41.5823 38.4652 41.6184 38.7871 41.5695C39.109 41.5206 39.4127 41.3883 39.6684 41.1857C39.924 40.983 40.1228 40.717 40.2452 40.4137H41.0869L41.0576 50.7369C41.0576 51.301 40.8192 51.8633 40.324 52.1177C39.8715 52.357 39.3683 52.4835 38.857 52.4864C38.2438 52.4807 37.6403 52.3326 37.0935 52.0538C36.5467 51.7749 36.0713 51.3728 35.7046 50.8789C35.2356 50.2861 34.9098 49.5919 34.7528 48.8511C34.3145 48.7191 33.909 48.4954 33.5627 48.1948C32.897 47.6142 32.3798 46.6851 32.3853 45.3172C32.373 44.6921 32.4346 44.0677 32.5687 43.4572L36.5225 43.4683C36.8268 43.4691 37.1206 43.5801 37.3503 43.7808C37.5799 43.9815 37.73 44.2586 37.7732 44.5614C37.3709 44.7264 37.0381 45.0267 36.8317 45.411C36.6254 45.7954 36.5583 46.2398 36.6419 46.6684C36.7255 47.097 36.9546 47.4831 37.2901 47.7606C37.6256 48.0381 38.0466 48.1899 38.481 48.1899C38.9155 48.1899 39.3365 48.0381 39.672 47.7606C40.0074 47.4831 40.2366 47.097 40.3202 46.6684C40.4038 46.2398 40.3367 45.7954 40.1303 45.411C39.924 45.0267 39.5912 44.7264 39.1889 44.5614C39.1425 43.8826 38.8421 43.2466 38.3481 42.7814C37.854 42.3163 37.2031 42.0565 36.5261 42.0543L33.3756 42.0433C33.5164 41.926 33.6733 41.8298 33.8414 41.7575C33.7458 41.4094 33.691 41.0512 33.6782 40.6902C33.652 39.9913 33.7476 39.2932 33.9606 38.6274C34.144 37.9954 34.4805 37.419 34.9399 36.9499C35.2231 36.6732 35.5819 36.4877 35.9705 36.4171C36.1663 35.6467 36.6195 34.9672 37.2542 34.4925C38.0627 33.8788 39.0487 33.548 40.0618 33.5506H40.0636ZM38.0354 39.6892C38.0364 39.564 38.0864 39.4443 38.1746 39.3559C38.2629 39.2676 38.3822 39.2178 38.5067 39.2173C38.5684 39.2175 38.6294 39.23 38.6862 39.2539C38.7431 39.2779 38.7947 39.3128 38.8381 39.3568C38.8816 39.4008 38.9159 39.453 38.9393 39.5103C38.9627 39.5677 38.9746 39.6291 38.9743 39.691C38.9746 39.7532 38.9626 39.8147 38.9391 39.8722C38.9156 39.9297 38.8811 39.9819 38.8375 40.0259C38.7939 40.07 38.742 40.1049 38.685 40.1287C38.6279 40.1525 38.5667 40.1648 38.5049 40.1648C38.3803 40.1633 38.2612 40.1131 38.1729 40.0247C38.0848 39.9355 38.0353 39.8149 38.0354 39.6892ZM38.4884 45.8444C38.4268 45.8441 38.3658 45.856 38.3089 45.8794C38.2519 45.9028 38.2001 45.9373 38.1564 45.9809C38.1125 46.0249 38.0777 46.0772 38.0539 46.1347C38.0301 46.1923 38.0179 46.254 38.0179 46.3164C38.0179 46.3787 38.0301 46.4404 38.0539 46.498C38.0777 46.5556 38.1125 46.6079 38.1564 46.6519C38.2111 46.7073 38.2785 46.7482 38.3527 46.7711C38.4269 46.794 38.5056 46.7981 38.5818 46.7831C38.658 46.7681 38.7293 46.7344 38.7893 46.685C38.8494 46.6356 38.8965 46.5721 38.9262 46.5C38.956 46.428 38.9677 46.3496 38.9601 46.272C38.9525 46.1943 38.926 46.1197 38.8828 46.0549C38.8397 45.99 38.7813 45.9369 38.7128 45.9002C38.6443 45.8634 38.5678 45.8443 38.4902 45.8444H38.4884Z" fill="white"/>
<path d="M11.0136 13.1308H2.44037C1.83512 13.1289 1.25524 12.8862 0.827435 12.4558C0.399629 12.0254 0.158677 11.4423 0.157227 10.8339V2.29877C0.158193 1.69003 0.398932 1.10646 0.826789 0.675669C1.25465 0.244883 1.8348 0.00194874 2.44037 0L10.9146 0C11.5211 0.000487363 12.1027 0.242776 12.5317 0.67372C12.9608 1.10466 13.2023 1.68908 13.2032 2.29877V10.8339C13.2032 12.0469 12.2184 13.1308 11.0136 13.1308Z" fill="#F8F9FA"/>
<path d="M111.969 10.8026H113.363C114.01 10.8187 114.653 10.6968 115.25 10.445C115.753 10.224 116.182 9.86173 116.486 9.40161C116.783 8.92915 116.934 8.37875 116.92 7.81994C116.935 7.25692 116.784 6.70204 116.486 6.22536C116.186 5.76252 115.756 5.40041 115.25 5.18566C114.653 4.93217 114.01 4.80961 113.363 4.82619H109.704V12.917H111.969V10.8026ZM114.278 6.94246C114.398 7.05329 114.493 7.18971 114.554 7.3418C114.616 7.4939 114.643 7.65786 114.633 7.82178C114.642 7.98368 114.614 8.14541 114.553 8.29526C114.491 8.44511 114.397 8.57933 114.278 8.6882C114.05 8.8965 113.698 8.99974 113.227 8.99974H111.969V6.63645H113.227C113.698 6.63645 114.05 6.73599 114.278 6.94246Z" fill="#F8F9FA"/>
<path d="M69.1615 11.8994C69.5647 12.2818 70.0389 12.5806 70.5571 12.7787C71.1217 12.9825 71.7177 13.0842 72.3176 13.0792C72.9975 13.0916 73.6721 12.9577 74.2963 12.6865C74.8674 12.4302 75.3701 12.0417 75.7634 11.5528L74.3238 10.2366C74.0863 10.5254 73.7947 10.7647 73.4656 10.9408C73.1479 11.106 72.7944 11.1896 72.4368 11.1841C72.128 11.187 71.8214 11.132 71.5327 11.0219C71.2661 10.9202 71.0241 10.7624 70.823 10.5592C70.6272 10.3435 70.4724 10.0936 70.3664 9.8218C70.1537 9.20821 70.1537 8.54033 70.3664 7.92674C70.4699 7.65369 70.625 7.40331 70.823 7.18937C71.0221 6.98097 71.2644 6.81921 71.5327 6.7156C71.822 6.60867 72.1286 6.55679 72.4368 6.5626C72.7943 6.55649 73.1477 6.63946 73.4656 6.80409C73.7951 6.98027 74.0868 7.22021 74.3238 7.51013L75.7634 6.19207C75.3741 5.69952 74.8703 5.3108 74.2963 5.0602C73.6721 4.78897 72.9975 4.65509 72.3176 4.66754C71.7167 4.66154 71.1198 4.76716 70.5571 4.97908C70.0398 5.16559 69.5671 5.45873 69.1692 5.83968C68.7713 6.22063 68.457 6.68098 68.2464 7.19121C68.0215 7.72445 67.9091 8.29881 67.9163 8.87796C67.9099 9.46121 68.0222 10.0396 68.2464 10.5776C68.4623 11.0743 68.7732 11.5234 69.1615 11.8994Z" fill="#F8F9FA"/>
<path d="M78.833 22.5766H79.8673L81.681 25.6736H84.23L81.7048 21.4964L84.208 17.5864H81.8295L79.9242 20.7276H78.833V17.5864H76.5811V25.6736H78.833V22.5766Z" fill="#F8F9FA"/>
<path d="M76.0808 38.4302V30.343H73.9535L70.6489 35.0917V30.343H68.4189V38.4302H70.5572L73.8508 33.6944V38.4302H76.0808Z" fill="#F8F9FA"/>
<path d="M86.7061 9.81991H87.7404L89.554 12.9169H92.1049L89.5779 8.73966L92.0444 4.88687V6.64182H94.5018V12.9169H96.7317V6.64182H99.1799V4.82788H92.0811H92.0444H89.7026L87.7972 7.97095H86.7061V4.82788H84.4541V12.9169H86.7061V9.81991Z" fill="#F8F9FA"/>
<path d="M83.209 11.149H79.0242V9.6706H82.58V7.95988H79.0242V6.59574H83.0605V4.82788H76.7832V12.9169H83.209V11.149Z" fill="#F8F9FA"/>
<path d="M85.6553 24.6579C86.0595 25.0386 86.5335 25.3366 87.0509 25.5354C87.6153 25.74 88.2114 25.8418 88.8114 25.8358C89.4915 25.8471 90.1662 25.712 90.7901 25.4395C91.3611 25.1839 91.8639 24.796 92.2572 24.3076L90.8176 22.9896C90.581 23.2794 90.2892 23.5188 89.9594 23.6938C89.6418 23.8592 89.2883 23.9428 88.9306 23.9371C88.6215 23.9429 88.3141 23.8897 88.0247 23.7804C87.7593 23.6782 87.5181 23.5212 87.3168 23.3195C87.1212 23.1034 86.9659 22.8536 86.8583 22.5822C86.6456 21.9686 86.6456 21.3007 86.8583 20.6871C86.9639 20.4179 87.1195 20.1714 87.3168 19.9608C87.515 19.7522 87.7568 19.5904 88.0247 19.487C88.3131 19.3761 88.6199 19.321 88.9288 19.3248C89.2862 19.3194 89.6395 19.4023 89.9575 19.5663C90.2871 19.7426 90.5787 19.9825 90.8158 20.2723L92.2554 18.9543C91.8661 18.4617 91.3623 18.073 90.7883 17.8224C90.1641 17.5512 89.4894 17.4173 88.8096 17.4298C88.2086 17.4237 87.6118 17.5294 87.0491 17.7413C86.5305 17.9326 86.0558 18.2273 85.6535 18.6077C85.2614 18.9879 84.9495 19.4437 84.7366 19.9479C84.5102 20.4807 84.3971 21.0553 84.4047 21.6346C84.3978 22.2181 84.5108 22.7967 84.7366 23.3343C84.9527 23.8322 85.265 24.2821 85.6553 24.6579Z" fill="#F8F9FA"/>
<path d="M100.791 25.6736V17.5864H93.2773V25.6736H95.5073V19.4004H98.5497V25.6736H100.791Z" fill="#F8F9FA"/>
<path d="M109.628 32.1109V30.343H103.351V38.4302H109.776V36.6623H105.592V35.1839H109.147V33.4732H105.592V32.1109H109.628Z" fill="#F8F9FA"/>
<path d="M165.274 38.4302V30.343H163.147L159.842 35.0917V30.343H157.612V38.4302H159.751L163.044 33.6944V38.4302H165.274Z" fill="#F8F9FA"/>
<path d="M164.496 25.6736L165.121 24.103H168.53L169.154 25.6736H171.51L167.958 17.5864H165.728L162.194 25.6736H164.496ZM165.791 22.4162L166.817 19.8354L167.844 22.4162H165.791Z" fill="#F8F9FA"/>
<path d="M155.891 38.4302V30.343H153.628V33.381H150.54V30.343H148.275V38.4302H150.54V35.2761H153.628V38.4302H155.891Z" fill="#F8F9FA"/>
<path d="M157.676 25.6736H159.906V19.4004H162.352V17.5864H155.217V19.4004H157.676V25.6736Z" fill="#F8F9FA"/>
<path d="M174.654 38.4302V30.343H172.527L169.222 35.0917V30.343H166.992V38.4302H169.13L172.424 33.6944V38.4302H174.654Z" fill="#F8F9FA"/>
<path d="M115.763 17.9441C115.168 17.6917 114.527 17.5698 113.882 17.5865H110.214V25.6736H112.479V23.5592H113.882C114.529 23.5758 115.172 23.4539 115.769 23.2016C116.271 22.9812 116.7 22.6203 117.005 22.1619C117.288 21.6811 117.436 21.1325 117.435 20.5739C117.434 20.0153 117.284 19.4673 116.999 18.9875C116.7 18.5233 116.27 18.1598 115.763 17.9441ZM114.791 21.4466C114.564 21.6549 114.212 21.7582 113.74 21.7582H112.482V19.3875H113.74C114.212 19.3875 114.564 19.4926 114.791 19.7009C115.019 19.9333 115.147 20.2465 115.147 20.5728C115.147 20.8991 115.019 21.2123 114.791 21.4448V21.4466Z" fill="#F8F9FA"/>
<path d="M171.44 28.5734C171.265 28.7196 171.039 28.7899 170.811 28.7688C170.701 28.7788 170.589 28.7666 170.483 28.7331C170.377 28.6996 170.279 28.6453 170.193 28.5734C170.051 28.4066 169.978 28.1917 169.988 27.9724H168.468C168.453 28.2315 168.494 28.4908 168.589 28.7321C168.684 28.9735 168.831 29.1911 169.018 29.3697C169.385 29.6942 169.983 29.8564 170.813 29.8564C171.643 29.8564 172.246 29.6942 172.62 29.3697C172.81 29.1931 172.959 28.9761 173.056 28.7345C173.154 28.4928 173.196 28.2326 173.181 27.9724H171.659C171.664 28.0821 171.647 28.1918 171.61 28.2951C171.573 28.3983 171.515 28.4929 171.44 28.5734Z" fill="#F8F9FA"/>
<path d="M129.921 21.4835L131.981 24.8772H132.986L135.047 21.3858L135.056 25.6736H137.148L137.126 17.5864H135.261L132.512 22.2595L129.705 17.5864H127.84V25.6736H129.921V21.4835Z" fill="#F8F9FA"/>
<path d="M137.26 32.4445C137.272 32.1388 137.205 31.8352 137.065 31.5636C136.924 31.292 136.716 31.0619 136.46 30.896C135.935 30.5274 135.191 30.343 134.23 30.343H130.341V38.4302H134.447C135.476 38.4302 136.262 38.2225 136.803 37.8071C137.067 37.6149 137.28 37.3607 137.424 37.0666C137.567 36.7726 137.637 36.4477 137.627 36.1204C137.643 35.8142 137.582 35.5089 137.448 35.2336C137.313 34.9583 137.111 34.7222 136.86 34.5479C136.644 34.4003 136.406 34.2865 136.156 34.2106C136.284 34.1488 136.407 34.0767 136.523 33.9949C136.762 33.8161 136.954 33.5815 137.082 33.3113C137.21 33.0412 137.272 32.7437 137.26 32.4445ZM132.571 31.9818H134.012C134.27 31.9615 134.526 32.0355 134.733 32.1901C134.815 32.2628 134.88 32.3538 134.922 32.4558C134.963 32.5578 134.981 32.6682 134.973 32.7782C134.98 32.89 134.962 33.002 134.921 33.106C134.879 33.21 134.815 33.3033 134.733 33.3792C134.522 33.5257 134.268 33.5953 134.012 33.5764H132.571V31.9818ZM135.087 36.5812C134.875 36.7356 134.614 36.8088 134.353 36.7877H132.569V35.1286H134.353C134.615 35.107 134.875 35.1809 135.087 35.3369C135.174 35.4112 135.242 35.5053 135.286 35.6114C135.33 35.7176 135.347 35.8326 135.338 35.9471C135.346 36.0652 135.327 36.1836 135.284 36.2936C135.24 36.4036 135.173 36.5025 135.087 36.5831V36.5812Z" fill="#F8F9FA"/>
<path d="M148.831 22.5195H151.92V25.6736H154.183V17.5864H151.92V20.6244H148.831V17.5864H146.568V25.6736H148.831V22.5195Z" fill="#F8F9FA"/>
<path d="M123.891 20.936V25.6736H126.121V17.5864H123.994L120.689 22.3351V17.5864H118.459V25.6736H120.597L123.891 20.936Z" fill="#F8F9FA"/>
<path d="M145.277 23.9057H141.093V22.4273H144.648V20.7166H141.093V19.3543H145.129V17.5864H138.852V25.6736H145.277V23.9057Z" fill="#F8F9FA"/>
<path d="M140.984 36.8688H144.378L145.002 38.4394H147.358L143.814 30.343H141.584L138.05 38.4302H140.36L140.984 36.8688ZM141.653 35.182L142.682 32.6012L143.709 35.182H141.653Z" fill="#F8F9FA"/>
<path d="M117.595 40.0599H119.666V36.6163H118.58V30.3486H112.13L112.039 32.8446C112.015 33.3977 111.978 33.8954 111.925 34.3581C111.89 34.7656 111.813 35.1683 111.696 35.56C111.621 35.8538 111.48 36.1263 111.283 36.3564C111.202 36.4473 111.101 36.5185 110.988 36.5645C110.875 36.6105 110.754 36.6301 110.632 36.6219H110.397V40.0654H112.479V38.4358H117.601L117.595 40.0599ZM113.467 36.3509C113.601 36.0724 113.697 35.7773 113.753 35.4734C113.835 35.1039 113.892 34.7295 113.926 34.3526C113.972 33.9433 114.001 33.5046 114.017 33.0345L114.05 32.157H116.35V36.6163H113.308C113.368 36.5325 113.422 36.4437 113.467 36.3509Z" fill="#F8F9FA"/>
<path d="M166.513 44.1393C166.11 43.7493 165.631 43.4469 165.107 43.2508C164.541 43.0363 163.94 42.93 163.335 42.9374C162.73 42.9312 162.129 43.0374 161.562 43.2508C161.035 43.4485 160.553 43.7507 160.144 44.1393C159.752 44.5155 159.44 44.9676 159.227 45.4684C158.886 46.2511 158.791 47.12 158.955 47.9585C159.119 48.797 159.534 49.5651 160.144 50.16C160.556 50.5421 161.037 50.8401 161.562 51.0374C162.129 51.2502 162.73 51.3558 163.335 51.349C163.94 51.3569 164.541 51.2513 165.107 51.0374C165.629 50.8417 166.107 50.5434 166.513 50.16C166.905 49.7838 167.217 49.3316 167.43 48.8308C167.662 48.2994 167.779 47.7244 167.773 47.1441C167.777 46.5827 167.666 46.0265 167.448 45.5097C167.23 44.9929 166.908 44.5266 166.504 44.1393H166.513ZM165.325 48.0916C165.223 48.3658 165.067 48.6165 164.866 48.829C164.673 49.0307 164.439 49.1885 164.181 49.2917C163.912 49.4006 163.625 49.4551 163.335 49.4521C163.041 49.4545 162.75 49.4 162.477 49.2917C162.22 49.1853 161.986 49.0279 161.791 48.829C161.596 48.6127 161.44 48.3629 161.333 48.0916C161.223 47.788 161.169 47.467 161.173 47.1441C161.168 46.8211 161.222 46.4998 161.333 46.1966C161.438 45.9268 161.594 45.6797 161.791 45.4684C161.984 45.2638 162.218 45.1024 162.477 44.9946C162.75 44.8857 163.041 44.8307 163.335 44.8324C163.625 44.83 163.912 44.8852 164.181 44.9946C164.442 45.0991 164.676 45.261 164.866 45.4684C165.069 45.6759 165.225 45.924 165.325 46.1966C165.443 46.4981 165.501 46.8201 165.495 47.1441C165.499 47.4681 165.44 47.7898 165.323 48.0916H165.325Z" fill="#F8F9FA"/>
<path d="M151.331 44.9136H153.79V51.1886H156.02V44.9136H158.467V43.0996H151.331V44.9136Z" fill="#F8F9FA"/>
<path d="M170.295 45.769H168.362L169.906 48.0457L168.362 50.3334H170.295L171.896 48.0457L170.295 45.769Z" fill="#F8F9FA"/>
<path d="M135.531 47.8483V43.0996H133.301V51.1886H135.439L138.733 46.451V51.1886H140.963V43.0996H138.835L135.531 47.8483Z" fill="#F8F9FA"/>
<path d="M171.164 45.769L172.708 48.0457L171.164 50.3334H173.097L174.698 48.0457L173.097 45.769H171.164Z" fill="#F8F9FA"/>
<path d="M150.218 43.0996H147.988V49.3747H144.911V43.0996H142.681V51.1886H147.988H149.246V52.8403H151.314V49.3747H150.218V43.0996Z" fill="#F8F9FA"/>
<path d="M216.141 21.4447L218.771 17.5735H216.141L214.723 19.769L213.295 17.5735H210.698L213.363 21.5479L210.517 25.6736H213.123L214.723 23.2826L216.335 25.6736H219L216.141 21.4447Z" fill="#F8F9FA"/>
<path d="M209.58 17.5864H207.35V25.6754H209.58V17.5864Z" fill="#F8F9FA"/>
<path d="M72.5474 23.3175C72.3712 23.5176 72.1525 23.6751 71.9074 23.7784C71.6432 23.8893 71.3592 23.9446 71.073 23.9406C70.7043 23.9454 70.3397 23.862 70.0093 23.6973C69.6792 23.5228 69.3873 23.2833 69.1511 22.9931L67.7207 24.3112C68.1146 24.7989 68.6172 25.1867 69.1878 25.443C69.8198 25.7138 70.5016 25.8476 71.1885 25.8357C71.7665 25.8431 72.3407 25.7411 72.8812 25.5352C73.3774 25.3356 73.8284 25.0371 74.207 24.6577C74.5883 24.2803 74.888 23.8278 75.0873 23.3286C75.306 22.7893 75.4151 22.2114 75.4082 21.629C75.4157 21.0507 75.3066 20.4769 75.0873 19.9422C74.89 19.4387 74.5902 18.9822 74.207 18.602C73.8303 18.223 73.3786 17.9279 72.8812 17.7356C72.3424 17.5224 71.7675 17.4166 71.1885 17.4241C70.5016 17.4121 69.8198 17.5459 69.1878 17.8167C68.6142 18.0681 68.1105 18.4566 67.7207 18.9486L69.1511 20.2667C69.3878 19.9764 69.6795 19.7364 70.0093 19.5606C70.3401 19.3974 70.7045 19.3147 71.073 19.3191C71.3592 19.3152 71.6432 19.3704 71.9074 19.4814C72.155 19.5862 72.3743 19.7485 72.5474 19.9551C72.7361 20.1637 72.8764 20.4117 72.9582 20.6814C72.9673 20.7036 72.9692 20.7294 72.9765 20.7515H70.112V22.4382H72.9875C72.9747 22.4843 72.9692 22.5341 72.9527 22.5765C72.8709 22.8494 72.7328 23.1019 72.5474 23.3175Z" fill="#F8F9FA"/>
<path d="M129.917 43.955C129.29 43.7203 128.631 43.5842 127.962 43.5513V42.718H125.892V43.5549C125.236 43.5921 124.588 43.7231 123.968 43.9439C123.297 44.1707 122.711 44.5976 122.287 45.168C121.9 45.7431 121.704 46.4264 121.727 47.1202C121.707 47.8142 121.902 48.4974 122.287 49.0742C122.711 49.6369 123.293 50.0593 123.957 50.2872C124.58 50.5078 125.23 50.6387 125.888 50.6761V51.5684H127.959V50.6817C128.648 50.6566 129.328 50.5235 129.976 50.2872C130.621 50.0509 131.179 49.6235 131.577 49.0613C131.954 48.4861 132.146 47.8086 132.127 47.1202C132.148 46.4298 131.952 45.7505 131.566 45.179C131.154 44.6108 130.579 44.1834 129.917 43.955ZM125.252 48.7608C124.869 48.6701 124.523 48.4651 124.258 48.1728C124.027 47.8726 123.909 47.4995 123.926 47.1202C123.908 46.7449 124.016 46.3745 124.234 46.0694C124.482 45.773 124.82 45.566 125.195 45.4795C125.424 45.4184 125.657 45.3747 125.892 45.3486V48.8862C125.676 48.8595 125.462 48.8176 125.252 48.7608ZM129.631 48.1488C129.397 48.4424 129.076 48.6531 128.714 48.7498C128.472 48.8234 128.223 48.8734 127.972 48.8991V45.3486C128.22 45.3757 128.466 45.4263 128.705 45.4998C129.066 45.5896 129.39 45.7915 129.631 46.0768C129.85 46.3776 129.959 46.7445 129.941 47.1165C129.953 47.4853 129.844 47.8479 129.631 48.1488Z" fill="#F8F9FA"/>
<path d="M185.769 20.1616H183.917V17.5808H181.678V25.668H185.463C186.506 25.668 187.331 25.4265 187.933 24.9306C188.535 24.4347 188.837 23.7287 188.837 22.7812C188.837 21.9037 188.566 21.2456 188.025 20.8068C187.483 20.3681 186.731 20.153 185.769 20.1616ZM186.228 23.7213C185.978 23.9394 185.654 24.0512 185.323 24.0328H183.917V21.7912H185.323C185.643 21.7739 185.959 21.8591 186.228 22.0346C186.455 22.1876 186.57 22.4585 186.57 22.8438C186.578 23.007 186.551 23.17 186.49 23.3215C186.43 23.473 186.337 23.6094 186.218 23.7213H186.228Z" fill="#F8F9FA"/>
<path d="M195.327 20.6244H192.24V17.5864H189.976V25.6736H192.24V22.5195H195.327V25.6736H197.592V17.5864H195.327V20.6244Z" fill="#F8F9FA"/>
<path d="M173.402 20.8088C173.393 21.3424 173.351 21.8749 173.277 22.4033C173.241 22.7772 173.128 23.1395 172.945 23.467C172.87 23.586 172.764 23.6828 172.64 23.7476C172.515 23.8124 172.376 23.8428 172.235 23.8357C172.132 23.8346 172.029 23.8228 171.927 23.8007L171.801 25.6717C171.984 25.7178 172.168 25.7529 172.338 25.7768C172.501 25.7981 172.665 25.8092 172.83 25.81C173.268 25.8296 173.701 25.7082 174.066 25.4634C174.41 25.2034 174.676 24.8515 174.832 24.4477C175.031 23.9313 175.166 23.3919 175.232 22.8421C175.322 22.1362 175.375 21.4262 175.391 20.7147L175.432 19.3985H177.735V25.6662H179.965V17.5864H173.515L173.402 20.8088Z" fill="#F8F9FA"/>
<path d="M203.394 20.1616H201.54V17.5808H199.309V25.668H203.095C204.14 25.668 204.963 25.4222 205.566 24.9306C206.168 24.439 206.469 23.7225 206.468 22.7812C206.468 21.9037 206.197 21.2456 205.656 20.8068C205.114 20.3681 204.36 20.153 203.394 20.1616ZM203.851 23.7213C203.602 23.9392 203.278 24.0509 202.949 24.0328H201.54V21.7912H202.947C203.266 21.774 203.582 21.8592 203.849 22.0346C204.078 22.1876 204.192 22.4585 204.192 22.8438C204.202 23.0062 204.176 23.1688 204.118 23.3203C204.059 23.4718 203.968 23.6086 203.851 23.7213Z" fill="#F8F9FA"/>
<path d="M87.4889 43.0996L83.9551 51.1886H86.2657L86.8892 49.6162H90.2837L90.909 51.1886H93.2637L89.7189 43.0996H87.4889ZM87.5604 47.9294L88.5874 45.3486L89.6143 47.9294H87.5604Z" fill="#F8F9FA"/>
<path d="M85.3066 44.9136L85.3177 43.0996H79.4512V51.1886H81.6811V44.9136H85.3066Z" fill="#F8F9FA"/>
<path d="M124.683 38.5924C125.288 38.6003 125.889 38.4946 126.455 38.2808C126.977 38.0846 127.455 37.7864 127.861 37.4033C128.253 37.0271 128.565 36.575 128.778 36.0742C129.01 35.5428 129.127 34.9678 129.121 34.3875C129.125 33.8261 129.014 33.2699 128.796 32.7531C128.578 32.2363 128.257 31.7699 127.852 31.3827C127.448 30.9928 126.97 30.6898 126.446 30.4923C125.879 30.2793 125.279 30.1737 124.674 30.1807C124.069 30.1748 123.468 30.2804 122.901 30.4923C122.374 30.6914 121.892 30.9941 121.483 31.3827C121.091 31.7589 120.779 32.211 120.566 32.7118C120.347 33.243 120.234 33.8124 120.234 34.3875C120.234 34.9625 120.347 35.532 120.566 36.0632C120.782 36.566 121.093 37.0214 121.483 37.4033C121.895 37.7848 122.377 38.0828 122.901 38.2808C123.471 38.4947 124.075 38.6003 124.683 38.5924ZM122.521 34.3875C122.516 34.0644 122.57 33.7431 122.681 33.4399C122.785 33.1667 122.94 32.9163 123.139 32.7026C123.332 32.4978 123.566 32.3363 123.825 32.2288C124.098 32.1191 124.389 32.0639 124.683 32.0666C124.973 32.0634 125.261 32.1185 125.529 32.2288C125.79 32.3322 126.025 32.4942 126.215 32.7026C126.418 32.9124 126.575 33.1639 126.673 33.4399C126.791 33.7414 126.849 34.0634 126.844 34.3875C126.848 34.7114 126.79 35.0331 126.673 35.335C126.571 35.6091 126.415 35.8599 126.215 36.0724C126.022 36.274 125.788 36.4312 125.529 36.5332C125.261 36.6435 124.973 36.6987 124.683 36.6955C124.389 36.6981 124.098 36.643 123.825 36.5332C123.568 36.4271 123.335 36.2704 123.139 36.0724C122.944 35.8561 122.789 35.6063 122.681 35.335C122.571 35.0314 122.517 34.7104 122.521 34.3875Z" fill="#F8F9FA"/>
<path d="M95.7375 38.2237C96.0813 37.9624 96.3461 37.6101 96.5022 37.2061C96.7032 36.6902 96.8381 36.1507 96.9038 35.6005C96.9929 34.8946 97.0461 34.1846 97.0633 33.4732L97.1037 32.157H99.407V38.4247H101.637V30.343H95.1873L95.0736 33.5672C95.065 34.1009 95.0227 34.6335 94.9471 35.1618C94.9124 35.5351 94.8 35.8969 94.617 36.2236C94.5415 36.3425 94.4361 36.4392 94.3115 36.5039C94.1868 36.5687 94.0474 36.5992 93.9073 36.5923C93.8036 36.5921 93.7003 36.5803 93.5992 36.5573L93.4727 38.4283C93.656 38.4744 93.8394 38.5095 94.01 38.5334C94.1729 38.5553 94.3371 38.567 94.5014 38.5684C94.9393 38.5877 95.372 38.467 95.7375 38.2237Z" fill="#F8F9FA"/>
<path d="M76.0698 43.955C75.442 43.7204 74.782 43.5842 74.1131 43.5513V42.718H72.0445V43.5549C71.3888 43.5925 70.7417 43.7234 70.1226 43.9439C69.4513 44.1707 68.8648 44.5976 68.441 45.168C68.0584 45.7446 67.8659 46.4275 67.8908 47.1202C67.8683 47.8131 68.0605 48.4959 68.441 49.0742C68.8655 49.6365 69.4472 50.0588 70.1116 50.2872C70.7344 50.508 71.3851 50.6389 72.0445 50.6761V51.5684H74.1131V50.6817C74.8018 50.6568 75.4825 50.5237 76.1303 50.2872C76.7751 50.0509 77.3334 49.6235 77.7312 49.0613C78.1079 48.4861 78.3 47.8086 78.2814 47.1202C78.3047 46.4312 78.1123 45.7522 77.7312 45.179C77.3154 44.6094 76.7354 44.1821 76.0698 43.955ZM71.4026 48.7608C71.0201 48.6695 70.6738 48.4646 70.4087 48.1728C70.1773 47.8726 70.0596 47.4995 70.0768 47.1202C70.0582 46.7449 70.1668 46.3745 70.3848 46.0694C70.6333 45.7735 70.9704 45.5665 71.3458 45.4795C71.5751 45.4183 71.8086 45.3745 72.0445 45.3486V48.8862C71.8279 48.8596 71.6134 48.8177 71.4026 48.7608ZM75.7837 48.1488C75.547 48.4437 75.2224 48.6544 74.8576 48.7498C74.6147 48.8232 74.3654 48.8732 74.1131 48.8991V45.3486C74.3618 45.3757 74.6074 45.4263 74.8466 45.4998C75.2079 45.5896 75.5319 45.7915 75.7727 46.0768C75.9918 46.3772 76.1013 46.7444 76.0826 47.1165C76.0965 47.484 75.9916 47.8461 75.7837 48.1488Z" fill="#F8F9FA"/>
<path d="M81.6982 38.5924C82.3781 38.6048 83.0528 38.471 83.677 38.1997C84.248 37.9441 84.7507 37.5562 85.144 37.0679L83.7045 35.7498C83.467 36.0392 83.1754 36.2791 82.8462 36.4558C82.5282 36.6198 82.1749 36.7028 81.8174 36.6973C81.5086 36.7011 81.2018 36.6461 80.9134 36.5351C80.648 36.4329 80.4068 36.2759 80.2055 36.0743C80.0101 35.8579 79.8548 35.6082 79.747 35.3369C79.5343 34.7233 79.5343 34.0554 79.747 33.4418C79.851 33.1686 80.0067 32.9182 80.2055 32.7044C80.4037 32.4959 80.6455 32.3341 80.9134 32.2307C81.2018 32.1197 81.5086 32.0647 81.8174 32.0685C82.1751 32.0628 82.5286 32.1464 82.8462 32.3118C83.1758 32.4873 83.4674 32.7266 83.7045 33.016L85.144 31.6979C84.7548 31.2054 84.251 30.8167 83.677 30.5661C83.0528 30.2948 82.3781 30.161 81.6982 30.1734C81.0974 30.1683 80.5007 30.2739 79.9377 30.4849C79.4196 30.677 78.945 30.9716 78.5422 31.3514C78.1505 31.732 77.8387 32.1877 77.6253 32.6915C77.3987 33.225 77.2856 33.8002 77.2933 34.3801C77.2867 34.963 77.3997 35.541 77.6253 36.0779C77.8402 36.5777 78.1519 37.0295 78.5422 37.4071C78.9459 37.7884 79.42 38.0865 79.9377 38.2845C80.5017 38.4917 81.0979 38.596 81.6982 38.5924Z" fill="#F8F9FA"/>
<path d="M88.3919 32.7118C88.5905 32.5029 88.833 32.341 89.1016 32.2381C89.3901 32.1271 89.6968 32.0721 90.0057 32.0758C90.3633 32.0706 90.7167 32.1542 91.0345 32.3192C91.3638 32.4942 91.6549 32.7337 91.8909 33.0234L93.3433 31.7072C92.954 31.2146 92.4502 30.8259 91.8762 30.5753C91.2519 30.3044 90.5773 30.1706 89.8975 30.1826C89.2967 30.1776 88.7 30.2831 88.137 30.4942C87.6198 30.6807 87.147 30.9738 86.7491 31.3548C86.3512 31.7357 86.0369 32.1961 85.8264 32.7063C85.6006 33.24 85.4876 33.815 85.4944 34.3949C85.4885 34.9777 85.6015 35.5555 85.8264 36.0927C86.0421 36.592 86.3537 37.0437 86.7433 37.4218C87.1466 37.8036 87.6208 38.1018 88.1388 38.2993C88.7032 38.504 89.2994 38.6057 89.8993 38.5998C90.5791 38.6092 91.2531 38.4729 91.8762 38.1998C92.4472 37.9441 92.95 37.5562 93.3433 37.0679L91.9019 35.7498C91.6655 36.0396 91.3744 36.2795 91.0455 36.4559C90.7272 36.6191 90.374 36.702 90.0167 36.6973C89.7079 36.7011 89.4011 36.6461 89.1126 36.5351C88.8463 36.4336 88.6045 36.2765 88.4029 36.0743C88.2075 35.8583 88.0528 35.6085 87.9463 35.3369C87.7336 34.7233 87.7336 34.0554 87.9463 33.4418C88.0465 33.1718 88.1979 32.9239 88.3919 32.7118Z" fill="#F8F9FA"/>
<path d="M118.362 45.769H116.431L114.841 48.0457L116.431 50.3334H118.362L116.82 48.0457L118.362 45.769Z" fill="#F8F9FA"/>
<path d="M119.232 45.769L117.644 48.0457L119.232 50.3334H121.165L119.62 48.0457L121.165 45.769H119.232Z" fill="#F8F9FA"/>
<path d="M106.982 47.0077L105.118 43.0996H102.734L105.841 48.9267C105.759 49.0695 105.649 49.194 105.518 49.2929C105.387 49.3917 105.237 49.4628 105.078 49.5019C104.706 49.5395 104.331 49.4961 103.978 49.3747L103.439 51.0633C103.974 51.299 104.559 51.4021 105.142 51.3637C105.682 51.3177 106.198 51.1168 106.628 50.7849C107.122 50.402 107.525 49.9126 107.807 49.3526L111.132 43.0996H108.931L106.982 47.0077Z" fill="#F8F9FA"/>
<path d="M108.929 23.9057H104.742V22.4273H108.3V20.7166H104.742V19.3543H108.78V17.5864H102.501V25.6736H108.929V23.9057Z" fill="#F8F9FA"/>
<path d="M99.5338 46.1376H96.4456V43.0996H94.1826V51.1886H96.4456V48.0327H99.5338V51.1886H101.797V43.0996H99.5338V46.1376Z" fill="#F8F9FA"/>
<path d="M105.813 12.7659C106.335 12.5704 106.813 12.2721 107.219 11.8884C107.611 11.5117 107.922 11.0597 108.136 10.5593C108.367 10.0276 108.484 9.45277 108.479 8.87252C108.483 8.31112 108.372 7.7549 108.154 7.23813C107.936 6.72136 107.614 6.25498 107.21 5.86771C106.808 5.47977 106.333 5.17697 105.813 4.97733C104.667 4.56192 103.413 4.56192 102.268 4.97733C101.745 5.17854 101.267 5.48107 100.861 5.86771C100.465 6.24107 100.148 6.69053 99.9278 7.18946C99.5871 7.97473 99.4939 8.84608 99.6608 9.6862C99.8277 10.5263 100.247 11.2949 100.861 11.8884C101.273 12.2711 101.755 12.5692 102.281 12.7659C103.426 13.1838 104.68 13.1838 105.825 12.7659H105.813ZM102.495 10.5537C102.299 10.3381 102.145 10.0882 102.039 9.81636C101.929 9.51279 101.875 9.19177 101.879 8.86883C101.874 8.54581 101.928 8.22459 102.039 7.92131C102.142 7.64825 102.297 7.39787 102.495 7.18393C102.689 6.97981 102.922 6.81845 103.181 6.71017C103.454 6.6022 103.746 6.54776 104.039 6.54979C104.329 6.54705 104.617 6.60154 104.887 6.71017C105.15 6.81553 105.386 6.97937 105.578 7.18946C105.781 7.3995 105.937 7.65098 106.035 7.92684C106.153 8.22827 106.212 8.55022 106.207 8.87436C106.211 9.19841 106.152 9.52013 106.035 9.82189C105.934 10.0965 105.779 10.3474 105.578 10.5593C105.386 10.7612 105.154 10.919 104.896 11.022C104.627 11.1312 104.339 11.1863 104.048 11.1842C103.755 11.1856 103.463 11.1306 103.19 11.022C102.932 10.9162 102.697 10.7588 102.501 10.5593L102.495 10.5537Z" fill="#F8F9FA"/>
</svg>
