<svg width="647" height="648" viewBox="0 0 647 648" fill="none" xmlns="http://www.w3.org/2000/svg">
<path d="M58.0662 332.32C53.1826 332.32 49.2236 328.361 49.2236 323.478C49.2236 318.594 53.1826 314.635 58.0662 314.635H160.754C165.638 314.635 169.597 318.594 169.597 323.478C169.597 328.361 165.638 332.32 160.754 332.32H58.0662Z" fill="#6D85FF" fill-opacity="0.5"/>
<path d="M58.0662 332.32C53.1826 332.32 49.2236 328.361 49.2236 323.478C49.2236 318.594 53.1826 314.635 58.0662 314.635H160.754C165.638 314.635 169.597 318.594 169.597 323.478C169.597 328.361 165.638 332.32 160.754 332.32H58.0662Z" fill="url(#paint0_radial_254_18196)" fill-opacity="0.6"/>
<path d="M58.0662 332.32C53.1826 332.32 49.2236 328.361 49.2236 323.478C49.2236 318.594 53.1826 314.635 58.0662 314.635H160.754C165.638 314.635 169.597 318.594 169.597 323.478C169.597 328.361 165.638 332.32 160.754 332.32H58.0662Z" fill="black" fill-opacity="0.4"/>
<path d="M64.2014 266.071C59.4712 264.856 56.6212 260.037 57.8357 255.307C59.0502 250.577 63.8693 247.727 68.5995 248.941L168.061 274.479C172.791 275.693 175.641 280.512 174.427 285.242C173.212 289.973 168.393 292.823 163.663 291.608L64.2014 266.071Z" fill="#6D85FF" fill-opacity="0.5"/>
<path d="M64.2014 266.071C59.4712 264.856 56.6212 260.037 57.8357 255.307C59.0502 250.577 63.8693 247.727 68.5995 248.941L168.061 274.479C172.791 275.693 175.641 280.512 174.427 285.242C173.212 289.973 168.393 292.823 163.663 291.608L64.2014 266.071Z" fill="url(#paint1_radial_254_18196)" fill-opacity="0.6"/>
<path d="M64.2014 266.071C59.4712 264.856 56.6212 260.037 57.8357 255.307C59.0502 250.577 63.8693 247.727 68.5995 248.941L168.061 274.479C172.791 275.693 175.641 280.512 174.427 285.242C173.212 289.973 168.393 292.823 163.663 291.608L64.2014 266.071Z" fill="black" fill-opacity="0.4"/>
<path d="M86.6193 203.428C82.3398 201.076 80.7777 195.699 83.1304 191.42C85.4831 187.14 90.8596 185.578 95.1392 187.931L185.125 237.401C189.405 239.754 190.967 245.13 188.614 249.41C186.261 253.689 180.885 255.251 176.605 252.898L86.6193 203.428Z" fill="#6D85FF" fill-opacity="0.5"/>
<path d="M86.6193 203.428C82.3398 201.076 80.7777 195.699 83.1304 191.42C85.4831 187.14 90.8596 185.578 95.1392 187.931L185.125 237.401C189.405 239.754 190.967 245.13 188.614 249.41C186.261 253.689 180.885 255.251 176.605 252.898L86.6193 203.428Z" fill="url(#paint2_radial_254_18196)" fill-opacity="0.6"/>
<path d="M86.6193 203.428C82.3398 201.076 80.7777 195.699 83.1304 191.42C85.4831 187.14 90.8596 185.578 95.1392 187.931L185.125 237.401C189.405 239.754 190.967 245.13 188.614 249.41C186.261 253.689 180.885 255.251 176.605 252.898L86.6193 203.428Z" fill="black" fill-opacity="0.4"/>
<path d="M123.911 148.329C120.351 144.986 120.175 139.39 123.519 135.83C126.862 132.27 132.458 132.094 136.018 135.437L210.874 205.732C214.434 209.075 214.61 214.671 211.267 218.231C207.924 221.791 202.328 221.967 198.768 218.624L123.911 148.329Z" fill="#6D85FF" fill-opacity="0.5"/>
<path d="M123.911 148.329C120.351 144.986 120.175 139.39 123.519 135.83C126.862 132.27 132.458 132.094 136.018 135.437L210.874 205.732C214.434 209.075 214.61 214.671 211.267 218.231C207.924 221.791 202.328 221.967 198.768 218.624L123.911 148.329Z" fill="url(#paint3_radial_254_18196)" fill-opacity="0.6"/>
<path d="M123.911 148.329C120.351 144.986 120.175 139.39 123.519 135.83C126.862 132.27 132.458 132.094 136.018 135.437L210.874 205.732C214.434 209.075 214.61 214.671 211.267 218.231C207.924 221.791 202.328 221.967 198.768 218.624L123.911 148.329Z" fill="black" fill-opacity="0.4"/>
<path d="M173.735 104.235C171.118 100.112 172.339 94.6477 176.463 92.0309C180.586 89.4141 186.05 90.6355 188.667 94.7589L243.689 181.461C246.306 185.584 245.085 191.048 240.962 193.665C236.838 196.282 231.374 195.061 228.757 190.937L173.735 104.235Z" fill="#6D85FF" fill-opacity="0.5"/>
<path d="M173.735 104.235C171.118 100.112 172.339 94.6477 176.463 92.0309C180.586 89.4141 186.05 90.6355 188.667 94.7589L243.689 181.461C246.306 185.584 245.085 191.048 240.962 193.665C236.838 196.282 231.374 195.061 228.757 190.937L173.735 104.235Z" fill="url(#paint4_radial_254_18196)" fill-opacity="0.6"/>
<path d="M173.735 104.235C171.118 100.112 172.339 94.6477 176.463 92.0309C180.586 89.4141 186.05 90.6355 188.667 94.7589L243.689 181.461C246.306 185.584 245.085 191.048 240.962 193.665C236.838 196.282 231.374 195.061 228.757 190.937L173.735 104.235Z" fill="black" fill-opacity="0.4"/>
<path d="M232.958 73.9168C231.449 69.2722 233.991 64.2837 238.635 62.7745C243.28 61.2654 248.269 63.8072 249.778 68.4518L281.51 166.114C283.019 170.758 280.477 175.747 275.833 177.256C271.188 178.765 266.2 176.223 264.69 171.579L232.958 73.9168Z" fill="#6D85FF" fill-opacity="0.5"/>
<path d="M232.958 73.9168C231.449 69.2722 233.991 64.2837 238.635 62.7745C243.28 61.2654 248.269 63.8072 249.778 68.4518L281.51 166.114C283.019 170.758 280.477 175.747 275.833 177.256C271.188 178.765 266.2 176.223 264.69 171.579L232.958 73.9168Z" fill="url(#paint5_radial_254_18196)" fill-opacity="0.6"/>
<path d="M232.958 73.9168C231.449 69.2722 233.991 64.2837 238.635 62.7745C243.28 61.2654 248.269 63.8072 249.778 68.4518L281.51 166.114C283.019 170.758 280.477 175.747 275.833 177.256C271.188 178.765 266.2 176.223 264.69 171.579L232.958 73.9168Z" fill="black" fill-opacity="0.4"/>
<path d="M297.861 59.2794C297.554 54.4055 301.257 50.2057 306.131 49.8991C311.005 49.5925 315.205 53.295 315.511 58.169L321.959 160.654C322.266 165.528 318.563 169.728 313.689 170.034C308.815 170.341 304.616 166.639 304.309 161.765L297.861 59.2794Z" fill="#6D85FF" fill-opacity="0.5"/>
<path d="M297.861 59.2794C297.554 54.4055 301.257 50.2057 306.131 49.8991C311.005 49.5925 315.205 53.295 315.511 58.169L321.959 160.654C322.266 165.528 318.563 169.728 313.689 170.034C308.815 170.341 304.616 166.639 304.309 161.765L297.861 59.2794Z" fill="url(#paint6_radial_254_18196)" fill-opacity="0.6"/>
<path d="M297.861 59.2794C297.554 54.4055 301.257 50.2057 306.131 49.8991C311.005 49.5925 315.205 53.295 315.511 58.169L321.959 160.654C322.266 165.528 318.563 169.728 313.689 170.034C308.815 170.341 304.616 166.639 304.309 161.765L297.861 59.2794Z" fill="black" fill-opacity="0.4"/>
<path d="M364.365 61.2426C365.28 56.4455 369.911 53.2985 374.708 54.2136C379.505 55.1287 382.652 59.7593 381.737 64.5564L362.495 165.425C361.58 170.222 356.949 173.369 352.152 172.454C347.355 171.539 344.208 166.909 345.123 162.111L364.365 61.2426Z" fill="#6D85FF" fill-opacity="0.5"/>
<path d="M364.365 61.2426C365.28 56.4455 369.911 53.2985 374.708 54.2136C379.505 55.1287 382.652 59.7593 381.737 64.5564L362.495 165.425C361.58 170.222 356.949 173.369 352.152 172.454C347.355 171.539 344.208 166.909 345.123 162.111L364.365 61.2426Z" fill="url(#paint7_radial_254_18196)" fill-opacity="0.6"/>
<path d="M364.365 61.2426C365.28 56.4455 369.911 53.2985 374.708 54.2136C379.505 55.1287 382.652 59.7593 381.737 64.5564L362.495 165.425C361.58 170.222 356.949 173.369 352.152 172.454C347.355 171.539 344.208 166.909 345.123 162.111L364.365 61.2426Z" fill="black" fill-opacity="0.4"/>
<path d="M428.291 79.6829C430.371 75.2641 435.638 73.3676 440.057 75.4469C444.476 77.5263 446.373 82.7941 444.293 87.2129L400.571 180.128C398.492 184.546 393.224 186.443 388.805 184.364C384.386 182.284 382.49 177.016 384.569 172.598L428.291 79.6829Z" fill="#6D85FF" fill-opacity="0.5"/>
<path d="M428.291 79.6829C430.371 75.2641 435.638 73.3676 440.057 75.4469C444.476 77.5263 446.373 82.7941 444.293 87.2129L400.571 180.128C398.492 184.546 393.224 186.443 388.805 184.364C384.386 182.284 382.49 177.016 384.569 172.598L428.291 79.6829Z" fill="url(#paint8_radial_254_18196)" fill-opacity="0.6"/>
<path d="M428.291 79.6829C430.371 75.2641 435.638 73.3676 440.057 75.4469C444.476 77.5263 446.373 82.7941 444.293 87.2129L400.571 180.128C398.492 184.546 393.224 186.443 388.805 184.364C384.386 182.284 382.49 177.016 384.569 172.598L428.291 79.6829Z" fill="black" fill-opacity="0.4"/>
<path d="M485.623 113.442C488.736 109.679 494.31 109.152 498.073 112.265C501.836 115.378 502.363 120.952 499.25 124.715L433.794 203.837C430.681 207.6 425.107 208.127 421.345 205.014C417.582 201.901 417.055 196.327 420.168 192.564L485.623 113.442Z" fill="#6D85FF" fill-opacity="0.5"/>
<path d="M485.623 113.442C488.736 109.679 494.31 109.152 498.073 112.265C501.836 115.378 502.363 120.952 499.25 124.715L433.794 203.837C430.681 207.6 425.107 208.127 421.345 205.014C417.582 201.901 417.055 196.327 420.168 192.564L485.623 113.442Z" fill="url(#paint9_radial_254_18196)" fill-opacity="0.6"/>
<path d="M485.623 113.442C488.736 109.679 494.31 109.152 498.073 112.265C501.836 115.378 502.363 120.952 499.25 124.715L433.794 203.837C430.681 207.6 425.107 208.127 421.345 205.014C417.582 201.901 417.055 196.327 420.168 192.564L485.623 113.442Z" fill="black" fill-opacity="0.4"/>
<path d="M532.759 160.398C536.71 157.527 542.24 158.403 545.11 162.354C547.981 166.305 547.105 171.835 543.154 174.706L460.078 235.064C456.127 237.934 450.597 237.059 447.726 233.108C444.856 229.157 445.732 223.627 449.683 220.756L532.759 160.398Z" fill="#6D85FF" fill-opacity="0.5"/>
<path d="M532.759 160.398C536.71 157.527 542.24 158.403 545.11 162.354C547.981 166.305 547.105 171.835 543.154 174.706L460.078 235.064C456.127 237.934 450.597 237.059 447.726 233.108C444.856 229.157 445.732 223.627 449.683 220.756L532.759 160.398Z" fill="url(#paint10_radial_254_18196)" fill-opacity="0.6"/>
<path d="M532.759 160.398C536.71 157.527 542.24 158.403 545.11 162.354C547.981 166.305 547.105 171.835 543.154 174.706L460.078 235.064C456.127 237.934 450.597 237.059 447.726 233.108C444.856 229.157 445.732 223.627 449.683 220.756L532.759 160.398Z" fill="black" fill-opacity="0.4"/>
<path d="M566.736 217.601C571.277 215.803 576.415 218.027 578.213 222.567C580.011 227.108 577.787 232.246 573.246 234.044L477.77 271.846C473.229 273.644 468.091 271.42 466.293 266.88C464.495 262.339 466.719 257.201 471.259 255.403L566.736 217.601Z" fill="#6D85FF" fill-opacity="0.5"/>
<path d="M566.736 217.601C571.277 215.803 576.415 218.027 578.213 222.567C580.011 227.108 577.787 232.246 573.246 234.044L477.77 271.846C473.229 273.644 468.091 271.42 466.293 266.88C464.495 262.339 466.719 257.201 471.259 255.403L566.736 217.601Z" fill="url(#paint11_radial_254_18196)" fill-opacity="0.6"/>
<path d="M566.736 217.601C571.277 215.803 576.415 218.027 578.213 222.567C580.011 227.108 577.787 232.246 573.246 234.044L477.77 271.846C473.229 273.644 468.091 271.42 466.293 266.88C464.495 262.339 466.719 257.201 471.259 255.403L566.736 217.601Z" fill="black" fill-opacity="0.4"/>
<path d="M585.42 281.457C590.265 280.845 594.689 284.276 595.301 289.121C595.913 293.966 592.481 298.39 587.636 299.002L485.758 311.873C480.913 312.485 476.489 309.053 475.877 304.208C475.265 299.363 478.697 294.939 483.542 294.327L585.42 281.457Z" fill="#6D85FF" fill-opacity="0.5"/>
<path d="M585.42 281.457C590.265 280.845 594.689 284.276 595.301 289.121C595.913 293.966 592.481 298.39 587.636 299.002L485.758 311.873C480.913 312.485 476.489 309.053 475.877 304.208C475.265 299.363 478.697 294.939 483.542 294.327L585.42 281.457Z" fill="url(#paint12_radial_254_18196)" fill-opacity="0.6"/>
<path d="M585.42 281.457C590.265 280.845 594.689 284.276 595.301 289.121C595.913 293.966 592.481 298.39 587.636 299.002L485.758 311.873C480.913 312.485 476.489 309.053 475.877 304.208C475.265 299.363 478.697 294.939 483.542 294.327L585.42 281.457Z" fill="black" fill-opacity="0.4"/>
<path d="M587.636 347.953C592.481 348.565 595.913 352.989 595.301 357.834C594.689 362.679 590.265 366.11 585.42 365.498L483.542 352.628C478.697 352.016 475.265 347.592 475.877 342.747C476.489 337.902 480.913 334.47 485.758 335.083L587.636 347.953Z" fill="#6D85FF" fill-opacity="0.5"/>
<path d="M587.636 347.953C592.481 348.565 595.913 352.989 595.301 357.834C594.689 362.679 590.265 366.11 585.42 365.498L483.542 352.628C478.697 352.016 475.265 347.592 475.877 342.747C476.489 337.902 480.913 334.47 485.758 335.083L587.636 347.953Z" fill="url(#paint13_radial_254_18196)" fill-opacity="0.6"/>
<path d="M587.636 347.953C592.481 348.565 595.913 352.989 595.301 357.834C594.689 362.679 590.265 366.11 585.42 365.498L483.542 352.628C478.697 352.016 475.265 347.592 475.877 342.747C476.489 337.902 480.913 334.47 485.758 335.083L587.636 347.953Z" fill="black" fill-opacity="0.4"/>
<path d="M573.246 412.911C577.787 414.709 580.011 419.847 578.213 424.388C576.415 428.928 571.277 431.152 566.736 429.354L471.259 391.552C466.719 389.754 464.495 384.616 466.293 380.075C468.091 375.535 473.229 373.311 477.77 375.109L573.246 412.911Z" fill="#6D85FF" fill-opacity="0.5"/>
<path d="M573.246 412.911C577.787 414.709 580.011 419.847 578.213 424.388C576.415 428.928 571.277 431.152 566.736 429.354L471.259 391.552C466.719 389.754 464.495 384.616 466.293 380.075C468.091 375.535 473.229 373.311 477.77 375.109L573.246 412.911Z" fill="url(#paint14_radial_254_18196)" fill-opacity="0.6"/>
<path d="M573.246 412.911C577.787 414.709 580.011 419.847 578.213 424.388C576.415 428.928 571.277 431.152 566.736 429.354L471.259 391.552C466.719 389.754 464.495 384.616 466.293 380.075C468.091 375.535 473.229 373.311 477.77 375.109L573.246 412.911Z" fill="black" fill-opacity="0.4"/>
<path d="M543.154 472.25C547.105 475.12 547.981 480.65 545.11 484.601C542.24 488.552 536.71 489.428 532.759 486.557L449.683 426.199C445.732 423.328 444.856 417.798 447.726 413.847C450.597 409.896 456.127 409.021 460.078 411.891L543.154 472.25Z" fill="#6D85FF" fill-opacity="0.5"/>
<path d="M543.154 472.25C547.105 475.12 547.981 480.65 545.11 484.601C542.24 488.552 536.71 489.428 532.759 486.557L449.683 426.199C445.732 423.328 444.856 417.798 447.726 413.847C450.597 409.896 456.127 409.021 460.078 411.891L543.154 472.25Z" fill="url(#paint15_radial_254_18196)" fill-opacity="0.6"/>
<path d="M543.154 472.25C547.105 475.12 547.981 480.65 545.11 484.601C542.24 488.552 536.71 489.428 532.759 486.557L449.683 426.199C445.732 423.328 444.856 417.798 447.726 413.847C450.597 409.896 456.127 409.021 460.078 411.891L543.154 472.25Z" fill="black" fill-opacity="0.4"/>
<path d="M499.25 522.24C502.363 526.003 501.836 531.577 498.073 534.69C494.31 537.803 488.736 537.276 485.623 533.513L420.168 454.391C417.055 450.628 417.582 445.054 421.345 441.941C425.108 438.828 430.681 439.355 433.794 443.118L499.25 522.24Z" fill="#6D85FF" fill-opacity="0.5"/>
<path d="M499.25 522.24C502.363 526.003 501.836 531.577 498.073 534.69C494.31 537.803 488.736 537.276 485.623 533.513L420.168 454.391C417.055 450.628 417.582 445.054 421.345 441.941C425.108 438.828 430.681 439.355 433.794 443.118L499.25 522.24Z" fill="url(#paint16_radial_254_18196)" fill-opacity="0.6"/>
<path d="M499.25 522.24C502.363 526.003 501.836 531.577 498.073 534.69C494.31 537.803 488.736 537.276 485.623 533.513L420.168 454.391C417.055 450.628 417.582 445.054 421.345 441.941C425.108 438.828 430.681 439.355 433.794 443.118L499.25 522.24Z" fill="black" fill-opacity="0.4"/>
<path d="M444.293 559.742C446.373 564.161 444.476 569.429 440.057 571.508C435.639 573.588 430.371 571.691 428.291 567.272L384.569 474.357C382.49 469.939 384.386 464.671 388.805 462.592C393.224 460.512 398.492 462.409 400.571 466.827L444.293 559.742Z" fill="#6D85FF" fill-opacity="0.5"/>
<path d="M444.293 559.742C446.373 564.161 444.476 569.429 440.057 571.508C435.639 573.588 430.371 571.691 428.291 567.272L384.569 474.357C382.49 469.939 384.386 464.671 388.805 462.592C393.224 460.512 398.492 462.409 400.571 466.827L444.293 559.742Z" fill="url(#paint17_radial_254_18196)" fill-opacity="0.6"/>
<path d="M444.293 559.742C446.373 564.161 444.476 569.429 440.057 571.508C435.639 573.588 430.371 571.691 428.291 567.272L384.569 474.357C382.49 469.939 384.386 464.671 388.805 462.592C393.224 460.512 398.492 462.409 400.571 466.827L444.293 559.742Z" fill="black" fill-opacity="0.4"/>
<path d="M381.737 582.399C382.652 587.196 379.505 591.826 374.708 592.742C369.911 593.657 365.28 590.51 364.365 585.713L345.123 484.844C344.208 480.046 347.355 475.416 352.152 474.501C356.949 473.586 361.58 476.733 362.495 481.53L381.737 582.399Z" fill="#6D85FF" fill-opacity="0.5"/>
<path d="M381.737 582.399C382.652 587.196 379.505 591.826 374.708 592.742C369.911 593.657 365.28 590.51 364.365 585.713L345.123 484.844C344.208 480.046 347.355 475.416 352.152 474.501C356.949 473.586 361.58 476.733 362.495 481.53L381.737 582.399Z" fill="url(#paint18_radial_254_18196)" fill-opacity="0.6"/>
<path d="M381.737 582.399C382.652 587.196 379.505 591.826 374.708 592.742C369.911 593.657 365.28 590.51 364.365 585.713L345.123 484.844C344.208 480.046 347.355 475.416 352.152 474.501C356.949 473.586 361.58 476.733 362.495 481.53L381.737 582.399Z" fill="black" fill-opacity="0.4"/>
<path d="M315.511 588.786C315.205 593.66 311.005 597.363 306.131 597.056C301.257 596.749 297.554 592.55 297.861 587.676L304.309 485.19C304.615 480.317 308.815 476.614 313.689 476.921C318.563 477.227 322.266 481.427 321.959 486.301L315.511 588.786Z" fill="#6D85FF" fill-opacity="0.5"/>
<path d="M315.511 588.786C315.205 593.66 311.005 597.363 306.131 597.056C301.257 596.749 297.554 592.55 297.861 587.676L304.309 485.19C304.615 480.317 308.815 476.614 313.689 476.921C318.563 477.227 322.266 481.427 321.959 486.301L315.511 588.786Z" fill="url(#paint19_radial_254_18196)" fill-opacity="0.6"/>
<path d="M315.511 588.786C315.205 593.66 311.005 597.363 306.131 597.056C301.257 596.749 297.554 592.55 297.861 587.676L304.309 485.19C304.615 480.317 308.815 476.614 313.689 476.921C318.563 477.227 322.266 481.427 321.959 486.301L315.511 588.786Z" fill="black" fill-opacity="0.4"/>
<path d="M249.778 578.503C248.269 583.148 243.28 585.69 238.635 584.181C233.991 582.671 231.449 577.683 232.958 573.038L264.69 475.376C266.2 470.732 271.188 468.19 275.833 469.699C280.477 471.208 283.019 476.197 281.51 480.841L249.778 578.503Z" fill="#6D85FF" fill-opacity="0.5"/>
<path d="M249.778 578.503C248.269 583.148 243.28 585.69 238.635 584.181C233.991 582.671 231.449 577.683 232.958 573.038L264.69 475.376C266.2 470.732 271.188 468.19 275.833 469.699C280.477 471.208 283.019 476.197 281.51 480.841L249.778 578.503Z" fill="url(#paint20_radial_254_18196)" fill-opacity="0.6"/>
<path d="M249.778 578.503C248.269 583.148 243.28 585.69 238.635 584.181C233.991 582.671 231.449 577.683 232.958 573.038L264.69 475.376C266.2 470.732 271.188 468.19 275.833 469.699C280.477 471.208 283.019 476.197 281.51 480.841L249.778 578.503Z" fill="black" fill-opacity="0.4"/>
<path d="M188.667 552.196C186.05 556.32 180.586 557.541 176.463 554.924C172.339 552.307 171.118 546.843 173.735 542.72L228.757 456.018C231.374 451.895 236.838 450.673 240.962 453.29C245.085 455.907 246.306 461.371 243.69 465.494L188.667 552.196Z" fill="#6D85FF" fill-opacity="0.5"/>
<path d="M188.667 552.196C186.05 556.32 180.586 557.541 176.463 554.924C172.339 552.307 171.118 546.843 173.735 542.72L228.757 456.018C231.374 451.895 236.838 450.673 240.962 453.29C245.085 455.907 246.306 461.371 243.69 465.494L188.667 552.196Z" fill="url(#paint21_radial_254_18196)" fill-opacity="0.6"/>
<path d="M188.667 552.196C186.05 556.32 180.586 557.541 176.463 554.924C172.339 552.307 171.118 546.843 173.735 542.72L228.757 456.018C231.374 451.895 236.838 450.673 240.962 453.29C245.085 455.907 246.306 461.371 243.69 465.494L188.667 552.196Z" fill="black" fill-opacity="0.4"/>
<path d="M136.018 511.518C132.458 514.861 126.862 514.685 123.519 511.125C120.176 507.565 120.351 501.969 123.911 498.626L198.768 428.331C202.328 424.988 207.924 425.164 211.267 428.724C214.61 432.284 214.434 437.88 210.874 441.223L136.018 511.518Z" fill="#6D85FF" fill-opacity="0.5"/>
<path d="M136.018 511.518C132.458 514.861 126.862 514.685 123.519 511.125C120.176 507.565 120.351 501.969 123.911 498.626L198.768 428.331C202.328 424.988 207.924 425.164 211.267 428.724C214.61 432.284 214.434 437.88 210.874 441.223L136.018 511.518Z" fill="url(#paint22_radial_254_18196)" fill-opacity="0.6"/>
<path d="M136.018 511.518C132.458 514.861 126.862 514.685 123.519 511.125C120.176 507.565 120.351 501.969 123.911 498.626L198.768 428.331C202.328 424.988 207.924 425.164 211.267 428.724C214.61 432.284 214.434 437.88 210.874 441.223L136.018 511.518Z" fill="black" fill-opacity="0.4"/>
<path d="M95.1391 459.024C90.8595 461.377 85.4831 459.815 83.1304 455.536C80.7777 451.256 82.3397 445.88 86.6192 443.527L176.605 394.057C180.885 391.704 186.261 393.266 188.614 397.545C190.967 401.825 189.405 407.202 185.125 409.554L95.1391 459.024Z" fill="#6D85FF" fill-opacity="0.5"/>
<path d="M95.1391 459.024C90.8595 461.377 85.4831 459.815 83.1304 455.536C80.7777 451.256 82.3397 445.88 86.6192 443.527L176.605 394.057C180.885 391.704 186.261 393.266 188.614 397.545C190.967 401.825 189.405 407.202 185.125 409.554L95.1391 459.024Z" fill="url(#paint23_radial_254_18196)" fill-opacity="0.6"/>
<path d="M95.1391 459.024C90.8595 461.377 85.4831 459.815 83.1304 455.536C80.7777 451.256 82.3397 445.88 86.6192 443.527L176.605 394.057C180.885 391.704 186.261 393.266 188.614 397.545C190.967 401.825 189.405 407.202 185.125 409.554L95.1391 459.024Z" fill="black" fill-opacity="0.4"/>
<path d="M68.5995 398.014C63.8693 399.228 59.0502 396.378 57.8357 391.648C56.6211 386.918 59.4712 382.099 64.2014 380.884L163.663 355.347C168.393 354.133 173.212 356.983 174.427 361.713C175.641 366.443 172.791 371.262 168.061 372.477L68.5995 398.014Z" fill="#6D85FF" fill-opacity="0.5"/>
<path d="M68.5995 398.014C63.8693 399.228 59.0502 396.378 57.8357 391.648C56.6211 386.918 59.4712 382.099 64.2014 380.884L163.663 355.347C168.393 354.133 173.212 356.983 174.427 361.713C175.641 366.443 172.791 371.262 168.061 372.477L68.5995 398.014Z" fill="url(#paint24_radial_254_18196)" fill-opacity="0.6"/>
<path d="M68.5995 398.014C63.8693 399.228 59.0502 396.378 57.8357 391.648C56.6211 386.918 59.4712 382.099 64.2014 380.884L163.663 355.347C168.393 354.133 173.212 356.983 174.427 361.713C175.641 366.443 172.791 371.262 168.061 372.477L68.5995 398.014Z" fill="black" fill-opacity="0.4"/>
<path d="M250.239 263.445C241.403 274.22 235.052 286.817 231.641 300.336C228.23 313.855 227.843 327.962 230.508 341.647L238.914 340.003C236.491 327.559 236.843 314.731 239.945 302.438C243.046 290.144 248.821 278.689 256.857 268.892L250.239 263.445Z" fill="#6D85FF" fill-opacity="0.5"/>
<path d="M250.239 263.445C241.403 274.22 235.052 286.817 231.641 300.336C228.23 313.855 227.843 327.962 230.508 341.647L238.914 340.003C236.491 327.559 236.843 314.731 239.945 302.438C243.046 290.144 248.821 278.689 256.857 268.892L250.239 263.445Z" fill="url(#paint25_linear_254_18196)" fill-opacity="0.3"/>
<path d="M260.314 394.12C270.697 403.405 283 410.276 296.343 414.242C309.686 418.208 323.739 419.171 337.498 417.062L336.204 408.581C323.692 410.498 310.913 409.623 298.78 406.016C286.647 402.41 275.459 396.162 266.018 387.719L260.314 394.12Z" fill="#6D85FF" fill-opacity="0.5"/>
<path d="M260.314 394.12C270.697 403.405 283 410.276 296.343 414.242C309.686 418.208 323.739 419.171 337.498 417.062L336.204 408.581C323.692 410.498 310.913 409.623 298.78 406.016C286.647 402.41 275.459 396.162 266.018 387.719L260.314 394.12Z" fill="url(#paint26_linear_254_18196)" fill-opacity="0.3"/>
<path d="M391.508 388.897C401.125 378.816 408.4 366.731 412.812 353.506C417.225 340.28 418.665 326.242 417.031 312.395L408.526 313.403C410.012 325.995 408.702 338.761 404.689 350.787C400.677 362.813 394.062 373.802 385.317 382.969L391.508 388.897Z" fill="#6D85FF" fill-opacity="0.5"/>
<path d="M391.508 388.897C401.125 378.816 408.4 366.731 412.812 353.506C417.225 340.28 418.665 326.242 417.031 312.395L408.526 313.403C410.012 325.995 408.702 338.761 404.689 350.787C400.677 362.813 394.062 373.802 385.317 382.969L391.508 388.897Z" fill="url(#paint27_linear_254_18196)" fill-opacity="0.3"/>
<path d="M387.408 254.076C377.197 244.603 365.021 237.507 351.753 233.298C338.484 229.088 324.451 227.868 310.656 229.725L311.796 238.228C324.34 236.54 337.101 237.649 349.166 241.477C361.232 245.306 372.303 251.758 381.589 260.372L387.408 254.076Z" fill="#6D85FF" fill-opacity="0.5"/>
<path d="M387.408 254.076C377.197 244.603 365.021 237.507 351.753 233.298C338.484 229.088 324.451 227.868 310.656 229.725L311.796 238.228C324.34 236.54 337.101 237.649 349.166 241.477C361.232 245.306 372.303 251.758 381.589 260.372L387.408 254.076Z" fill="url(#paint28_linear_254_18196)" fill-opacity="0.3"/>
<path d="M369.105 323.681C369.105 349.207 348.563 369.9 323.223 369.9C297.884 369.9 277.342 349.207 277.342 323.681C277.342 298.155 297.884 277.462 323.223 277.462C348.563 277.462 369.105 298.155 369.105 323.681ZM285.109 323.681C285.109 344.886 302.174 362.075 323.223 362.075C344.273 362.075 361.337 344.886 361.337 323.681C361.337 302.477 344.273 285.287 323.223 285.287C302.174 285.287 285.109 302.477 285.109 323.681Z" fill="#6D85FF" fill-opacity="0.5"/>
<path d="M369.105 323.681C369.105 349.207 348.563 369.9 323.223 369.9C297.884 369.9 277.342 349.207 277.342 323.681C277.342 298.155 297.884 277.462 323.223 277.462C348.563 277.462 369.105 298.155 369.105 323.681ZM285.109 323.681C285.109 344.886 302.174 362.075 323.223 362.075C344.273 362.075 361.337 344.886 361.337 323.681C361.337 302.477 344.273 285.287 323.223 285.287C302.174 285.287 285.109 302.477 285.109 323.681Z" fill="url(#paint29_linear_254_18196)" fill-opacity="0.3"/>
<path d="M10.4414 334.14C4.67475 334.14 0 329.466 0 323.699C0 317.932 4.67476 313.258 10.4414 313.258H131.696C137.462 313.258 142.137 317.932 142.137 323.699C142.137 329.466 137.462 334.14 131.696 334.14H10.4414Z" fill="#6D85FF" fill-opacity="0.5"/>
<path d="M10.4414 334.14C4.67475 334.14 0 329.466 0 323.699C0 317.932 4.67476 313.258 10.4414 313.258H131.696C137.462 313.258 142.137 317.932 142.137 323.699C142.137 329.466 137.462 334.14 131.696 334.14H10.4414Z" fill="url(#paint30_radial_254_18196)" fill-opacity="0.6"/>
<path d="M17.6858 255.913C12.1004 254.478 8.73506 248.788 10.1692 243.203C11.6033 237.617 17.2937 234.252 22.8791 235.686L140.324 265.841C145.91 267.275 149.275 272.965 147.841 278.551C146.407 284.136 140.716 287.501 135.131 286.067L17.6858 255.913Z" fill="#6D85FF" fill-opacity="0.5"/>
<path d="M17.6858 255.913C12.1004 254.478 8.73506 248.788 10.1692 243.203C11.6033 237.617 17.2937 234.252 22.8791 235.686L140.324 265.841C145.91 267.275 149.275 272.965 147.841 278.551C146.407 284.136 140.716 287.501 135.131 286.067L17.6858 255.913Z" fill="url(#paint31_radial_254_18196)" fill-opacity="0.6"/>
<path d="M44.1571 181.944C39.1037 179.166 37.2593 172.817 40.0374 167.764C42.8155 162.711 49.1641 160.866 54.2174 163.644L160.473 222.059C165.527 224.837 167.371 231.186 164.593 236.239C161.815 241.292 155.466 243.137 150.413 240.359L44.1571 181.944Z" fill="#6D85FF" fill-opacity="0.5"/>
<path d="M44.1571 181.944C39.1037 179.166 37.2593 172.817 40.0374 167.764C42.8155 162.711 49.1641 160.866 54.2174 163.644L160.473 222.059C165.527 224.837 167.371 231.186 164.593 236.239C161.815 241.292 155.466 243.137 150.413 240.359L44.1571 181.944Z" fill="url(#paint32_radial_254_18196)" fill-opacity="0.6"/>
<path d="M88.1918 116.882C83.9881 112.935 83.7804 106.327 87.728 102.123C91.6755 97.9198 98.2833 97.7121 102.487 101.66L190.878 184.664C195.081 188.612 195.289 195.219 191.342 199.423C187.394 203.627 180.786 203.834 176.582 199.887L88.1918 116.882Z" fill="#6D85FF" fill-opacity="0.5"/>
<path d="M88.1918 116.882C83.9881 112.935 83.7804 106.327 87.728 102.123C91.6755 97.9198 98.2833 97.7121 102.487 101.66L190.878 184.664C195.081 188.612 195.289 195.219 191.342 199.423C187.394 203.627 180.786 203.834 176.582 199.887L88.1918 116.882Z" fill="url(#paint33_radial_254_18196)" fill-opacity="0.6"/>
<path d="M147.023 64.8159C143.933 59.947 145.376 53.4952 150.245 50.4053C155.113 47.3154 161.565 48.7575 164.655 53.6264L229.627 156.005C232.717 160.874 231.274 167.326 226.405 170.416C221.537 173.506 215.085 172.063 211.995 167.194L147.023 64.8159Z" fill="#6D85FF" fill-opacity="0.5"/>
<path d="M147.023 64.8159C143.933 59.947 145.376 53.4952 150.245 50.4053C155.113 47.3154 161.565 48.7575 164.655 53.6264L229.627 156.005C232.717 160.874 231.274 167.326 226.405 170.416C221.537 173.506 215.085 172.063 211.995 167.194L147.023 64.8159Z" fill="url(#paint34_radial_254_18196)" fill-opacity="0.6"/>
<path d="M216.955 29.016C215.173 23.5316 218.174 17.6411 223.659 15.8591C229.143 14.0771 235.034 17.0785 236.816 22.5629L274.285 137.883C276.067 143.367 273.066 149.258 267.582 151.04C262.097 152.822 256.207 149.82 254.425 144.336L216.955 29.016Z" fill="#6D85FF" fill-opacity="0.5"/>
<path d="M216.955 29.016C215.173 23.5316 218.174 17.6411 223.659 15.8591C229.143 14.0771 235.034 17.0785 236.816 22.5629L274.285 137.883C276.067 143.367 273.066 149.258 267.582 151.04C262.097 152.822 256.207 149.82 254.425 144.336L216.955 29.016Z" fill="url(#paint35_radial_254_18196)" fill-opacity="0.6"/>
<path d="M293.593 11.7321C293.231 5.97687 297.603 1.01782 303.358 0.655728C309.113 0.29364 314.072 4.66564 314.434 10.4209L322.048 131.436C322.41 137.191 318.038 142.15 312.283 142.512C306.528 142.875 301.569 138.503 301.206 132.747L293.593 11.7321Z" fill="#6D85FF" fill-opacity="0.5"/>
<path d="M293.593 11.7321C293.231 5.97687 297.603 1.01782 303.358 0.655728C309.113 0.29364 314.072 4.66564 314.434 10.4209L322.048 131.436C322.41 137.191 318.038 142.15 312.283 142.512C306.528 142.875 301.569 138.503 301.206 132.747L293.593 11.7321Z" fill="url(#paint36_radial_254_18196)" fill-opacity="0.6"/>
<path d="M372.121 14.0502C373.202 8.38572 378.67 4.66973 384.334 5.75029C389.999 6.83084 393.715 12.2988 392.634 17.9632L369.913 137.07C368.833 142.734 363.365 146.45 357.7 145.37C352.036 144.289 348.32 138.821 349.4 133.157L372.121 14.0502Z" fill="#6D85FF" fill-opacity="0.5"/>
<path d="M372.121 14.0502C373.202 8.38572 378.67 4.66973 384.334 5.75029C389.999 6.83084 393.715 12.2988 392.634 17.9632L369.913 137.07C368.833 142.734 363.365 146.45 357.7 145.37C352.036 144.289 348.32 138.821 349.4 133.157L372.121 14.0502Z" fill="url(#paint37_radial_254_18196)" fill-opacity="0.6"/>
<path d="M447.606 35.8247C450.061 30.6069 456.281 28.3675 461.499 30.8228C466.717 33.2781 468.956 39.4983 466.501 44.7161L414.873 154.43C412.418 159.648 406.198 161.888 400.98 159.432C395.762 156.977 393.523 150.757 395.978 145.539L447.606 35.8247Z" fill="#6D85FF" fill-opacity="0.5"/>
<path d="M447.606 35.8247C450.061 30.6069 456.281 28.3675 461.499 30.8228C466.717 33.2781 468.956 39.4983 466.501 44.7161L414.873 154.43C412.418 159.648 406.198 161.888 400.98 159.432C395.762 156.977 393.523 150.757 395.978 145.539L447.606 35.8247Z" fill="url(#paint38_radial_254_18196)" fill-opacity="0.6"/>
<path d="M515.304 75.6874C518.98 71.2441 525.561 70.622 530.005 74.2978C534.448 77.9735 535.07 84.5553 531.394 88.9985L454.104 182.427C450.428 186.87 443.846 187.492 439.403 183.816C434.96 180.141 434.338 173.559 438.013 169.116L515.304 75.6874Z" fill="#6D85FF" fill-opacity="0.5"/>
<path d="M515.304 75.6874C518.98 71.2441 525.561 70.622 530.005 74.2978C534.448 77.9735 535.07 84.5553 531.394 88.9985L454.104 182.427C450.428 186.87 443.846 187.492 439.403 183.816C434.96 180.141 434.338 173.559 438.013 169.116L515.304 75.6874Z" fill="url(#paint39_radial_254_18196)" fill-opacity="0.6"/>
<path d="M570.962 131.134C575.627 127.744 582.157 128.778 585.546 133.444C588.936 138.109 587.902 144.638 583.236 148.028L485.139 219.3C480.474 222.689 473.944 221.655 470.555 216.99C467.165 212.324 468.2 205.795 472.865 202.405L570.962 131.134Z" fill="#6D85FF" fill-opacity="0.5"/>
<path d="M570.962 131.134C575.627 127.744 582.157 128.778 585.546 133.444C588.936 138.109 587.902 144.638 583.236 148.028L485.139 219.3C480.474 222.689 473.944 221.655 470.555 216.99C467.165 212.324 468.2 205.795 472.865 202.405L570.962 131.134Z" fill="url(#paint40_radial_254_18196)" fill-opacity="0.6"/>
<path d="M611.082 198.679C616.444 196.556 622.511 199.182 624.634 204.544C626.757 209.905 624.131 215.973 618.77 218.096L506.03 262.732C500.668 264.855 494.601 262.23 492.478 256.868C490.355 251.506 492.981 245.439 498.343 243.316L611.082 198.679Z" fill="#6D85FF" fill-opacity="0.5"/>
<path d="M611.082 198.679C616.444 196.556 622.511 199.182 624.634 204.544C626.757 209.905 624.131 215.973 618.77 218.096L506.03 262.732C500.668 264.855 494.601 262.23 492.478 256.868C490.355 251.506 492.981 245.439 498.343 243.316L611.082 198.679Z" fill="url(#paint41_radial_254_18196)" fill-opacity="0.6"/>
<path d="M633.144 274.081C638.865 273.358 644.089 277.41 644.812 283.131C645.534 288.852 641.482 294.076 635.761 294.799L515.463 309.996C509.742 310.719 504.518 306.667 503.795 300.945C503.073 295.224 507.125 290 512.846 289.278L633.144 274.081Z" fill="#6D85FF" fill-opacity="0.5"/>
<path d="M633.144 274.081C638.865 273.358 644.089 277.41 644.812 283.131C645.534 288.852 641.482 294.076 635.761 294.799L515.463 309.996C509.742 310.719 504.518 306.667 503.795 300.945C503.073 295.224 507.125 290 512.846 289.278L633.144 274.081Z" fill="url(#paint42_radial_254_18196)" fill-opacity="0.6"/>
<path d="M635.761 352.599C641.483 353.322 645.535 358.546 644.812 364.267C644.089 369.988 638.865 374.04 633.144 373.318L512.846 358.12C507.125 357.398 503.073 352.174 503.795 346.453C504.518 340.732 509.742 336.68 515.463 337.402L635.761 352.599Z" fill="#6D85FF" fill-opacity="0.5"/>
<path d="M635.761 352.599C641.483 353.322 645.535 358.546 644.812 364.267C644.089 369.988 638.865 374.04 633.144 373.318L512.846 358.12C507.125 357.398 503.073 352.174 503.795 346.453C504.518 340.732 509.742 336.68 515.463 337.402L635.761 352.599Z" fill="url(#paint43_radial_254_18196)" fill-opacity="0.6"/>
<path d="M618.77 429.302C624.131 431.425 626.757 437.493 624.634 442.854C622.511 448.216 616.444 450.842 611.082 448.719L498.343 404.082C492.981 401.959 490.355 395.892 492.478 390.53C494.601 385.168 500.668 382.543 506.03 384.666L618.77 429.302Z" fill="#6D85FF" fill-opacity="0.5"/>
<path d="M618.77 429.302C624.131 431.425 626.757 437.493 624.634 442.854C622.511 448.216 616.444 450.842 611.082 448.719L498.343 404.082C492.981 401.959 490.355 395.892 492.478 390.53C494.601 385.168 500.668 382.543 506.03 384.666L618.77 429.302Z" fill="url(#paint44_radial_254_18196)" fill-opacity="0.6"/>
<path d="M583.236 499.37C587.902 502.76 588.936 509.289 585.546 513.955C582.157 518.62 575.627 519.654 570.962 516.264L472.865 444.993C468.2 441.603 467.165 435.074 470.555 430.408C473.944 425.743 480.474 424.709 485.139 428.098L583.236 499.37Z" fill="#6D85FF" fill-opacity="0.5"/>
<path d="M583.236 499.37C587.902 502.76 588.936 509.289 585.546 513.955C582.157 518.62 575.627 519.654 570.962 516.264L472.865 444.993C468.2 441.603 467.165 435.074 470.555 430.408C473.944 425.743 480.474 424.709 485.139 428.098L583.236 499.37Z" fill="url(#paint45_radial_254_18196)" fill-opacity="0.6"/>
<path d="M531.394 558.4C535.07 562.843 534.448 569.425 530.005 573.1C525.561 576.776 518.98 576.154 515.304 571.711L438.013 478.283C434.338 473.839 434.96 467.258 439.403 463.582C443.846 459.906 450.428 460.528 454.104 464.971L531.394 558.4Z" fill="#6D85FF" fill-opacity="0.5"/>
<path d="M531.394 558.4C535.07 562.843 534.448 569.425 530.005 573.1C525.561 576.776 518.98 576.154 515.304 571.711L438.013 478.283C434.338 473.839 434.96 467.258 439.403 463.582C443.846 459.906 450.428 460.528 454.104 464.971L531.394 558.4Z" fill="url(#paint46_radial_254_18196)" fill-opacity="0.6"/>
<path d="M466.501 602.682C468.956 607.9 466.717 614.12 461.499 616.575C456.281 619.031 450.061 616.791 447.606 611.573L395.978 501.859C393.523 496.641 395.762 490.421 400.98 487.966C406.198 485.51 412.418 487.75 414.873 492.968L466.501 602.682Z" fill="#6D85FF" fill-opacity="0.5"/>
<path d="M466.501 602.682C468.956 607.9 466.717 614.12 461.499 616.575C456.281 619.031 450.061 616.791 447.606 611.573L395.978 501.859C393.523 496.641 395.762 490.421 400.98 487.966C406.198 485.51 412.418 487.75 414.873 492.968L466.501 602.682Z" fill="url(#paint47_radial_254_18196)" fill-opacity="0.6"/>
<path d="M392.634 629.435C393.714 635.099 389.999 640.567 384.334 641.648C378.67 642.728 373.202 639.012 372.121 633.348L349.4 514.241C348.32 508.577 352.036 503.109 357.7 502.028C363.365 500.948 368.833 504.664 369.913 510.328L392.634 629.435Z" fill="#6D85FF" fill-opacity="0.5"/>
<path d="M392.634 629.435C393.714 635.099 389.999 640.567 384.334 641.648C378.67 642.728 373.202 639.012 372.121 633.348L349.4 514.241C348.32 508.577 352.036 503.109 357.7 502.028C363.365 500.948 368.833 504.664 369.913 510.328L392.634 629.435Z" fill="url(#paint48_radial_254_18196)" fill-opacity="0.6"/>
<path d="M314.434 636.977C314.072 642.732 309.113 647.104 303.358 646.742C297.603 646.38 293.231 641.421 293.593 635.666L301.206 514.651C301.568 508.896 306.528 504.524 312.283 504.886C318.038 505.248 322.41 510.207 322.048 515.962L314.434 636.977Z" fill="#6D85FF" fill-opacity="0.5"/>
<path d="M314.434 636.977C314.072 642.732 309.113 647.104 303.358 646.742C297.603 646.38 293.231 641.421 293.593 635.666L301.206 514.651C301.568 508.896 306.528 504.524 312.283 504.886C318.038 505.248 322.41 510.207 322.048 515.962L314.434 636.977Z" fill="url(#paint49_radial_254_18196)" fill-opacity="0.6"/>
<path d="M236.816 624.835C235.034 630.319 229.143 633.321 223.659 631.539C218.174 629.757 215.173 623.866 216.955 618.382L254.425 503.062C256.207 497.578 262.097 494.576 267.582 496.358C273.066 498.14 276.067 504.031 274.285 509.515L236.816 624.835Z" fill="#6D85FF" fill-opacity="0.5"/>
<path d="M236.816 624.835C235.034 630.319 229.143 633.321 223.659 631.539C218.174 629.757 215.173 623.866 216.955 618.382L254.425 503.062C256.207 497.578 262.097 494.576 267.582 496.358C273.066 498.14 276.067 504.031 274.285 509.515L236.816 624.835Z" fill="url(#paint50_radial_254_18196)" fill-opacity="0.6"/>
<path d="M164.655 593.772C161.565 598.641 155.113 600.083 150.245 596.993C145.376 593.903 143.934 587.451 147.023 582.582L211.995 480.204C215.085 475.335 221.537 473.893 226.405 476.982C231.274 480.072 232.717 486.524 229.627 491.393L164.655 593.772Z" fill="#6D85FF" fill-opacity="0.5"/>
<path d="M164.655 593.772C161.565 598.641 155.113 600.083 150.245 596.993C145.376 593.903 143.934 587.451 147.023 582.582L211.995 480.204C215.085 475.335 221.537 473.893 226.405 476.982C231.274 480.072 232.717 486.524 229.627 491.393L164.655 593.772Z" fill="url(#paint51_radial_254_18196)" fill-opacity="0.6"/>
<path d="M102.487 545.738C98.2834 549.686 91.6755 549.478 87.728 545.275C83.7805 541.071 83.9882 534.463 88.1918 530.516L176.583 447.511C180.786 443.564 187.394 443.771 191.342 447.975C195.289 452.179 195.081 458.787 190.878 462.734L102.487 545.738Z" fill="#6D85FF" fill-opacity="0.5"/>
<path d="M102.487 545.738C98.2834 549.686 91.6755 549.478 87.728 545.275C83.7805 541.071 83.9882 534.463 88.1918 530.516L176.583 447.511C180.786 443.564 187.394 443.771 191.342 447.975C195.289 452.179 195.081 458.787 190.878 462.734L102.487 545.738Z" fill="url(#paint52_radial_254_18196)" fill-opacity="0.6"/>
<path d="M54.2173 483.754C49.164 486.532 42.8154 484.687 40.0373 479.634C37.2592 474.581 39.1037 468.232 44.157 465.454L150.413 407.039C155.466 404.261 161.815 406.106 164.593 411.159C167.371 416.212 165.527 422.561 160.473 425.339L54.2173 483.754Z" fill="#6D85FF" fill-opacity="0.5"/>
<path d="M54.2173 483.754C49.164 486.532 42.8154 484.687 40.0373 479.634C37.2592 474.581 39.1037 468.232 44.157 465.454L150.413 407.039C155.466 404.261 161.815 406.106 164.593 411.159C167.371 416.212 165.527 422.561 160.473 425.339L54.2173 483.754Z" fill="url(#paint53_radial_254_18196)" fill-opacity="0.6"/>
<path d="M22.8791 411.712C17.2937 413.146 11.6032 409.781 10.1691 404.196C8.73504 398.61 12.1004 392.92 17.6858 391.486L135.131 361.331C140.716 359.897 146.407 363.262 147.841 368.847C149.275 374.433 145.91 380.123 140.324 381.557L22.8791 411.712Z" fill="#6D85FF" fill-opacity="0.5"/>
<path d="M22.8791 411.712C17.2937 413.146 11.6032 409.781 10.1691 404.196C8.73504 398.61 12.1004 392.92 17.6858 391.486L135.131 361.331C140.716 359.897 146.407 363.262 147.841 368.847C149.275 374.433 145.91 380.123 140.324 381.557L22.8791 411.712Z" fill="url(#paint54_radial_254_18196)" fill-opacity="0.6"/>
<defs>
<radialGradient id="paint0_radial_254_18196" cx="0" cy="0" r="1" gradientUnits="userSpaceOnUse" gradientTransform="translate(320.035 388.005) rotate(167.29) scale(265.509 298.959)">
<stop stop-color="#D33FBC"/>
<stop offset="1" stop-color="#4200FF"/>
</radialGradient>
<radialGradient id="paint1_radial_254_18196" cx="0" cy="0" r="1" gradientUnits="userSpaceOnUse" gradientTransform="translate(320.035 388.005) rotate(167.29) scale(265.509 298.959)">
<stop stop-color="#D33FBC"/>
<stop offset="1" stop-color="#4200FF"/>
</radialGradient>
<radialGradient id="paint2_radial_254_18196" cx="0" cy="0" r="1" gradientUnits="userSpaceOnUse" gradientTransform="translate(320.035 388.005) rotate(167.29) scale(265.509 298.959)">
<stop stop-color="#D33FBC"/>
<stop offset="1" stop-color="#4200FF"/>
</radialGradient>
<radialGradient id="paint3_radial_254_18196" cx="0" cy="0" r="1" gradientUnits="userSpaceOnUse" gradientTransform="translate(320.035 388.005) rotate(167.29) scale(265.509 298.959)">
<stop stop-color="#D33FBC"/>
<stop offset="1" stop-color="#4200FF"/>
</radialGradient>
<radialGradient id="paint4_radial_254_18196" cx="0" cy="0" r="1" gradientUnits="userSpaceOnUse" gradientTransform="translate(320.035 388.005) rotate(167.29) scale(265.509 298.959)">
<stop stop-color="#D33FBC"/>
<stop offset="1" stop-color="#4200FF"/>
</radialGradient>
<radialGradient id="paint5_radial_254_18196" cx="0" cy="0" r="1" gradientUnits="userSpaceOnUse" gradientTransform="translate(320.035 388.005) rotate(167.29) scale(265.509 298.959)">
<stop stop-color="#D33FBC"/>
<stop offset="1" stop-color="#4200FF"/>
</radialGradient>
<radialGradient id="paint6_radial_254_18196" cx="0" cy="0" r="1" gradientUnits="userSpaceOnUse" gradientTransform="translate(320.035 388.005) rotate(167.29) scale(265.509 298.959)">
<stop stop-color="#D33FBC"/>
<stop offset="1" stop-color="#4200FF"/>
</radialGradient>
<radialGradient id="paint7_radial_254_18196" cx="0" cy="0" r="1" gradientUnits="userSpaceOnUse" gradientTransform="translate(320.035 388.005) rotate(167.29) scale(265.509 298.959)">
<stop stop-color="#D33FBC"/>
<stop offset="1" stop-color="#4200FF"/>
</radialGradient>
<radialGradient id="paint8_radial_254_18196" cx="0" cy="0" r="1" gradientUnits="userSpaceOnUse" gradientTransform="translate(320.035 388.005) rotate(167.29) scale(265.509 298.959)">
<stop stop-color="#D33FBC"/>
<stop offset="1" stop-color="#4200FF"/>
</radialGradient>
<radialGradient id="paint9_radial_254_18196" cx="0" cy="0" r="1" gradientUnits="userSpaceOnUse" gradientTransform="translate(320.035 388.005) rotate(167.29) scale(265.509 298.959)">
<stop stop-color="#D33FBC"/>
<stop offset="1" stop-color="#4200FF"/>
</radialGradient>
<radialGradient id="paint10_radial_254_18196" cx="0" cy="0" r="1" gradientUnits="userSpaceOnUse" gradientTransform="translate(320.035 388.005) rotate(167.29) scale(265.509 298.959)">
<stop stop-color="#D33FBC"/>
<stop offset="1" stop-color="#4200FF"/>
</radialGradient>
<radialGradient id="paint11_radial_254_18196" cx="0" cy="0" r="1" gradientUnits="userSpaceOnUse" gradientTransform="translate(320.035 388.005) rotate(167.29) scale(265.509 298.959)">
<stop stop-color="#D33FBC"/>
<stop offset="1" stop-color="#4200FF"/>
</radialGradient>
<radialGradient id="paint12_radial_254_18196" cx="0" cy="0" r="1" gradientUnits="userSpaceOnUse" gradientTransform="translate(320.035 388.005) rotate(167.29) scale(265.509 298.959)">
<stop stop-color="#D33FBC"/>
<stop offset="1" stop-color="#4200FF"/>
</radialGradient>
<radialGradient id="paint13_radial_254_18196" cx="0" cy="0" r="1" gradientUnits="userSpaceOnUse" gradientTransform="translate(320.035 388.005) rotate(167.29) scale(265.509 298.959)">
<stop stop-color="#D33FBC"/>
<stop offset="1" stop-color="#4200FF"/>
</radialGradient>
<radialGradient id="paint14_radial_254_18196" cx="0" cy="0" r="1" gradientUnits="userSpaceOnUse" gradientTransform="translate(320.035 388.005) rotate(167.29) scale(265.509 298.959)">
<stop stop-color="#D33FBC"/>
<stop offset="1" stop-color="#4200FF"/>
</radialGradient>
<radialGradient id="paint15_radial_254_18196" cx="0" cy="0" r="1" gradientUnits="userSpaceOnUse" gradientTransform="translate(320.035 388.005) rotate(167.29) scale(265.509 298.959)">
<stop stop-color="#D33FBC"/>
<stop offset="1" stop-color="#4200FF"/>
</radialGradient>
<radialGradient id="paint16_radial_254_18196" cx="0" cy="0" r="1" gradientUnits="userSpaceOnUse" gradientTransform="translate(320.035 388.005) rotate(167.29) scale(265.509 298.959)">
<stop stop-color="#D33FBC"/>
<stop offset="1" stop-color="#4200FF"/>
</radialGradient>
<radialGradient id="paint17_radial_254_18196" cx="0" cy="0" r="1" gradientUnits="userSpaceOnUse" gradientTransform="translate(320.035 388.005) rotate(167.29) scale(265.509 298.959)">
<stop stop-color="#D33FBC"/>
<stop offset="1" stop-color="#4200FF"/>
</radialGradient>
<radialGradient id="paint18_radial_254_18196" cx="0" cy="0" r="1" gradientUnits="userSpaceOnUse" gradientTransform="translate(320.035 388.005) rotate(167.29) scale(265.509 298.959)">
<stop stop-color="#D33FBC"/>
<stop offset="1" stop-color="#4200FF"/>
</radialGradient>
<radialGradient id="paint19_radial_254_18196" cx="0" cy="0" r="1" gradientUnits="userSpaceOnUse" gradientTransform="translate(320.035 388.005) rotate(167.29) scale(265.509 298.959)">
<stop stop-color="#D33FBC"/>
<stop offset="1" stop-color="#4200FF"/>
</radialGradient>
<radialGradient id="paint20_radial_254_18196" cx="0" cy="0" r="1" gradientUnits="userSpaceOnUse" gradientTransform="translate(320.035 388.005) rotate(167.29) scale(265.509 298.959)">
<stop stop-color="#D33FBC"/>
<stop offset="1" stop-color="#4200FF"/>
</radialGradient>
<radialGradient id="paint21_radial_254_18196" cx="0" cy="0" r="1" gradientUnits="userSpaceOnUse" gradientTransform="translate(320.035 388.005) rotate(167.29) scale(265.509 298.959)">
<stop stop-color="#D33FBC"/>
<stop offset="1" stop-color="#4200FF"/>
</radialGradient>
<radialGradient id="paint22_radial_254_18196" cx="0" cy="0" r="1" gradientUnits="userSpaceOnUse" gradientTransform="translate(320.035 388.005) rotate(167.29) scale(265.509 298.959)">
<stop stop-color="#D33FBC"/>
<stop offset="1" stop-color="#4200FF"/>
</radialGradient>
<radialGradient id="paint23_radial_254_18196" cx="0" cy="0" r="1" gradientUnits="userSpaceOnUse" gradientTransform="translate(320.035 388.005) rotate(167.29) scale(265.509 298.959)">
<stop stop-color="#D33FBC"/>
<stop offset="1" stop-color="#4200FF"/>
</radialGradient>
<radialGradient id="paint24_radial_254_18196" cx="0" cy="0" r="1" gradientUnits="userSpaceOnUse" gradientTransform="translate(320.035 388.005) rotate(167.29) scale(265.509 298.959)">
<stop stop-color="#D33FBC"/>
<stop offset="1" stop-color="#4200FF"/>
</radialGradient>
<linearGradient id="paint25_linear_254_18196" x1="372.71" y1="395.217" x2="264.297" y2="263.339" gradientUnits="userSpaceOnUse">
<stop stop-color="#DA00DE"/>
<stop offset="1" stop-color="#1400FF"/>
</linearGradient>
<linearGradient id="paint26_linear_254_18196" x1="372.71" y1="395.217" x2="264.297" y2="263.339" gradientUnits="userSpaceOnUse">
<stop stop-color="#DA00DE"/>
<stop offset="1" stop-color="#1400FF"/>
</linearGradient>
<linearGradient id="paint27_linear_254_18196" x1="372.71" y1="395.217" x2="264.297" y2="263.339" gradientUnits="userSpaceOnUse">
<stop stop-color="#DA00DE"/>
<stop offset="1" stop-color="#1400FF"/>
</linearGradient>
<linearGradient id="paint28_linear_254_18196" x1="372.71" y1="395.217" x2="264.297" y2="263.339" gradientUnits="userSpaceOnUse">
<stop stop-color="#DA00DE"/>
<stop offset="1" stop-color="#1400FF"/>
</linearGradient>
<linearGradient id="paint29_linear_254_18196" x1="347.26" y1="358.699" x2="294.256" y2="294.577" gradientUnits="userSpaceOnUse">
<stop stop-color="#DA00DE"/>
<stop offset="1" stop-color="#1400FF"/>
</linearGradient>
<radialGradient id="paint30_radial_254_18196" cx="0" cy="0" r="1" gradientUnits="userSpaceOnUse" gradientTransform="translate(319.776 399.894) rotate(167.29) scale(313.515 353.013)">
<stop stop-color="#B32493"/>
<stop offset="1" stop-color="#4200FF"/>
</radialGradient>
<radialGradient id="paint31_radial_254_18196" cx="0" cy="0" r="1" gradientUnits="userSpaceOnUse" gradientTransform="translate(319.776 399.894) rotate(167.29) scale(313.515 353.013)">
<stop stop-color="#B32493"/>
<stop offset="1" stop-color="#4200FF"/>
</radialGradient>
<radialGradient id="paint32_radial_254_18196" cx="0" cy="0" r="1" gradientUnits="userSpaceOnUse" gradientTransform="translate(319.776 399.894) rotate(167.29) scale(313.515 353.013)">
<stop stop-color="#B32493"/>
<stop offset="1" stop-color="#4200FF"/>
</radialGradient>
<radialGradient id="paint33_radial_254_18196" cx="0" cy="0" r="1" gradientUnits="userSpaceOnUse" gradientTransform="translate(319.776 399.894) rotate(167.29) scale(313.515 353.013)">
<stop stop-color="#B32493"/>
<stop offset="1" stop-color="#4200FF"/>
</radialGradient>
<radialGradient id="paint34_radial_254_18196" cx="0" cy="0" r="1" gradientUnits="userSpaceOnUse" gradientTransform="translate(319.776 399.894) rotate(167.29) scale(313.515 353.013)">
<stop stop-color="#B32493"/>
<stop offset="1" stop-color="#4200FF"/>
</radialGradient>
<radialGradient id="paint35_radial_254_18196" cx="0" cy="0" r="1" gradientUnits="userSpaceOnUse" gradientTransform="translate(319.776 399.894) rotate(167.29) scale(313.515 353.013)">
<stop stop-color="#B32493"/>
<stop offset="1" stop-color="#4200FF"/>
</radialGradient>
<radialGradient id="paint36_radial_254_18196" cx="0" cy="0" r="1" gradientUnits="userSpaceOnUse" gradientTransform="translate(319.776 399.894) rotate(167.29) scale(313.515 353.013)">
<stop stop-color="#B32493"/>
<stop offset="1" stop-color="#4200FF"/>
</radialGradient>
<radialGradient id="paint37_radial_254_18196" cx="0" cy="0" r="1" gradientUnits="userSpaceOnUse" gradientTransform="translate(319.776 399.894) rotate(167.29) scale(313.515 353.013)">
<stop stop-color="#B32493"/>
<stop offset="1" stop-color="#4200FF"/>
</radialGradient>
<radialGradient id="paint38_radial_254_18196" cx="0" cy="0" r="1" gradientUnits="userSpaceOnUse" gradientTransform="translate(319.776 399.894) rotate(167.29) scale(313.515 353.013)">
<stop stop-color="#B32493"/>
<stop offset="1" stop-color="#4200FF"/>
</radialGradient>
<radialGradient id="paint39_radial_254_18196" cx="0" cy="0" r="1" gradientUnits="userSpaceOnUse" gradientTransform="translate(319.776 399.894) rotate(167.29) scale(313.515 353.013)">
<stop stop-color="#B32493"/>
<stop offset="1" stop-color="#4200FF"/>
</radialGradient>
<radialGradient id="paint40_radial_254_18196" cx="0" cy="0" r="1" gradientUnits="userSpaceOnUse" gradientTransform="translate(319.776 399.894) rotate(167.29) scale(313.515 353.013)">
<stop stop-color="#B32493"/>
<stop offset="1" stop-color="#4200FF"/>
</radialGradient>
<radialGradient id="paint41_radial_254_18196" cx="0" cy="0" r="1" gradientUnits="userSpaceOnUse" gradientTransform="translate(319.776 399.894) rotate(167.29) scale(313.515 353.013)">
<stop stop-color="#B32493"/>
<stop offset="1" stop-color="#4200FF"/>
</radialGradient>
<radialGradient id="paint42_radial_254_18196" cx="0" cy="0" r="1" gradientUnits="userSpaceOnUse" gradientTransform="translate(319.776 399.894) rotate(167.29) scale(313.515 353.013)">
<stop stop-color="#B32493"/>
<stop offset="1" stop-color="#4200FF"/>
</radialGradient>
<radialGradient id="paint43_radial_254_18196" cx="0" cy="0" r="1" gradientUnits="userSpaceOnUse" gradientTransform="translate(319.776 399.894) rotate(167.29) scale(313.515 353.013)">
<stop stop-color="#B32493"/>
<stop offset="1" stop-color="#4200FF"/>
</radialGradient>
<radialGradient id="paint44_radial_254_18196" cx="0" cy="0" r="1" gradientUnits="userSpaceOnUse" gradientTransform="translate(319.776 399.894) rotate(167.29) scale(313.515 353.013)">
<stop stop-color="#B32493"/>
<stop offset="1" stop-color="#4200FF"/>
</radialGradient>
<radialGradient id="paint45_radial_254_18196" cx="0" cy="0" r="1" gradientUnits="userSpaceOnUse" gradientTransform="translate(319.776 399.894) rotate(167.29) scale(313.515 353.013)">
<stop stop-color="#B32493"/>
<stop offset="1" stop-color="#4200FF"/>
</radialGradient>
<radialGradient id="paint46_radial_254_18196" cx="0" cy="0" r="1" gradientUnits="userSpaceOnUse" gradientTransform="translate(319.776 399.894) rotate(167.29) scale(313.515 353.013)">
<stop stop-color="#B32493"/>
<stop offset="1" stop-color="#4200FF"/>
</radialGradient>
<radialGradient id="paint47_radial_254_18196" cx="0" cy="0" r="1" gradientUnits="userSpaceOnUse" gradientTransform="translate(319.776 399.894) rotate(167.29) scale(313.515 353.013)">
<stop stop-color="#B32493"/>
<stop offset="1" stop-color="#4200FF"/>
</radialGradient>
<radialGradient id="paint48_radial_254_18196" cx="0" cy="0" r="1" gradientUnits="userSpaceOnUse" gradientTransform="translate(319.776 399.894) rotate(167.29) scale(313.515 353.013)">
<stop stop-color="#B32493"/>
<stop offset="1" stop-color="#4200FF"/>
</radialGradient>
<radialGradient id="paint49_radial_254_18196" cx="0" cy="0" r="1" gradientUnits="userSpaceOnUse" gradientTransform="translate(319.776 399.894) rotate(167.29) scale(313.515 353.013)">
<stop stop-color="#B32493"/>
<stop offset="1" stop-color="#4200FF"/>
</radialGradient>
<radialGradient id="paint50_radial_254_18196" cx="0" cy="0" r="1" gradientUnits="userSpaceOnUse" gradientTransform="translate(319.776 399.894) rotate(167.29) scale(313.515 353.013)">
<stop stop-color="#B32493"/>
<stop offset="1" stop-color="#4200FF"/>
</radialGradient>
<radialGradient id="paint51_radial_254_18196" cx="0" cy="0" r="1" gradientUnits="userSpaceOnUse" gradientTransform="translate(319.776 399.894) rotate(167.29) scale(313.515 353.013)">
<stop stop-color="#B32493"/>
<stop offset="1" stop-color="#4200FF"/>
</radialGradient>
<radialGradient id="paint52_radial_254_18196" cx="0" cy="0" r="1" gradientUnits="userSpaceOnUse" gradientTransform="translate(319.776 399.894) rotate(167.29) scale(313.515 353.013)">
<stop stop-color="#B32493"/>
<stop offset="1" stop-color="#4200FF"/>
</radialGradient>
<radialGradient id="paint53_radial_254_18196" cx="0" cy="0" r="1" gradientUnits="userSpaceOnUse" gradientTransform="translate(319.776 399.894) rotate(167.29) scale(313.515 353.013)">
<stop stop-color="#B32493"/>
<stop offset="1" stop-color="#4200FF"/>
</radialGradient>
<radialGradient id="paint54_radial_254_18196" cx="0" cy="0" r="1" gradientUnits="userSpaceOnUse" gradientTransform="translate(319.776 399.894) rotate(167.29) scale(313.515 353.013)">
<stop stop-color="#B32493"/>
<stop offset="1" stop-color="#4200FF"/>
</radialGradient>
</defs>
</svg>
