<svg width="419" height="288" viewBox="0 0 419 288" fill="none" xmlns="http://www.w3.org/2000/svg">
<path d="M294.001 187.038H394.006V257.024H294.001V187.038Z" fill="#514FC7"/>
<path d="M294.001 187.038H394.006V257.024H294.001V187.038Z" fill="url(#paint0_linear_385_2349)"/>
<path d="M319.003 287.209V262.189L294.09 262.189C294.09 276.007 305.244 287.209 319.003 287.209Z" fill="#514FC7"/>
<path d="M319.003 287.209V262.189L294.09 262.189C294.09 276.007 305.244 287.209 319.003 287.209Z" fill="url(#paint1_linear_385_2349)"/>
<path d="M393.918 262.189H369.005V287.209C382.764 287.209 393.918 276.007 393.918 262.189Z" fill="#514FC7"/>
<path d="M393.918 262.189H369.005V287.209C382.764 287.209 393.918 276.007 393.918 262.189Z" fill="url(#paint2_linear_385_2349)"/>
<path d="M319.029 221.233C319.029 214.384 316.771 212.114 309.951 212.114H294.054L294.034 187.038L319.029 187.038L319.029 202.971C319.029 209.819 321.318 212.125 328.138 212.125H344.037L344.037 262.321L294.044 262.321L294.001 237.178L317.155 237.194C317.395 237.194 317.634 237.147 317.856 237.055C318.079 236.963 318.281 236.828 318.451 236.658C318.622 236.487 318.757 236.284 318.849 236.061C318.941 235.838 318.989 235.599 318.989 235.357L319.029 221.233Z" fill="#514FC7"/>
<path d="M319.029 221.233C319.029 214.384 316.771 212.114 309.951 212.114H294.054L294.034 187.038L319.029 187.038L319.029 202.971C319.029 209.819 321.318 212.125 328.138 212.125H344.037L344.037 262.321L294.044 262.321L294.001 237.178L317.155 237.194C317.395 237.194 317.634 237.147 317.856 237.055C318.079 236.963 318.281 236.828 318.451 236.658C318.622 236.487 318.757 236.284 318.849 236.061C318.941 235.838 318.989 235.599 318.989 235.357L319.029 221.233Z" fill="url(#paint3_linear_385_2349)"/>
<path d="M369.011 221.233C369.011 214.384 371.27 212.114 378.09 212.114H393.986L394.006 187.038H369.011V202.971C369.011 209.819 366.723 212.125 359.903 212.125H344.004L344.004 262.321L393.996 262.321L394.039 237.178L370.886 237.194C370.645 237.194 370.407 237.147 370.184 237.055C369.962 236.963 369.76 236.828 369.589 236.658C369.419 236.487 369.284 236.284 369.191 236.061C369.099 235.838 369.052 235.599 369.052 235.357L369.011 221.233Z" fill="#514FC7"/>
<path d="M369.011 221.233C369.011 214.384 371.27 212.114 378.09 212.114H393.986L394.006 187.038H369.011V202.971C369.011 209.819 366.723 212.125 359.903 212.125H344.004L344.004 262.321L393.996 262.321L394.039 237.178L370.886 237.194C370.645 237.194 370.407 237.147 370.184 237.055C369.962 236.963 369.76 236.828 369.589 236.658C369.419 236.487 369.284 236.284 369.191 236.061C369.099 235.838 369.052 235.599 369.052 235.357L369.011 221.233Z" fill="url(#paint4_linear_385_2349)"/>
<path d="M294.008 211.535H318.065C318.377 211.535 318.687 211.545 318.994 211.566L318.995 201.984L303.101 202.007C296.281 202.007 294.008 199.724 294.008 192.876V183.735C294.008 179.17 291.734 176.887 287.187 176.887H275.82C271.273 176.887 269 179.17 269 183.735L269.025 195.149C269.025 199.714 271.273 201.997 275.82 201.997H284.914C291.734 201.997 294.008 204.28 294.008 211.128V211.535Z" fill="#514FC7"/>
<path d="M294.008 211.535H318.065C318.377 211.535 318.687 211.545 318.994 211.566L318.995 201.984L303.101 202.007C296.281 202.007 294.008 199.724 294.008 192.876V183.735C294.008 179.17 291.734 176.887 287.187 176.887H275.82C271.273 176.887 269 179.17 269 183.735L269.025 195.149C269.025 199.714 271.273 201.997 275.82 201.997H284.914C291.734 201.997 294.008 204.28 294.008 211.128V211.535Z" fill="url(#paint5_linear_385_2349)"/>
<path d="M393.992 203.987H369.935C369.623 203.987 369.313 203.977 369.006 203.956L369.005 213.538L384.899 213.515C391.719 213.515 393.992 215.798 393.992 222.646V231.787C393.992 236.352 396.266 238.635 400.813 238.635H412.18C416.727 238.635 419 236.352 419 231.787L418.975 220.373C418.975 215.808 416.727 213.525 412.18 213.525H403.086C396.266 213.525 393.992 211.242 393.992 204.394V203.987Z" fill="#514FC7"/>
<path d="M393.992 203.987H369.935C369.623 203.987 369.313 203.977 369.006 203.956L369.005 213.538L384.899 213.515C391.719 213.515 393.992 215.798 393.992 222.646V231.787C393.992 236.352 396.266 238.635 400.813 238.635H412.18C416.727 238.635 419 236.352 419 231.787L418.975 220.373C418.975 215.808 416.727 213.525 412.18 213.525H403.086C396.266 213.525 393.992 211.242 393.992 204.394V203.987Z" fill="url(#paint6_linear_385_2349)"/>
<path d="M358.721 245.798H351.365V253.185H358.721V245.798Z" fill="#7295FF"/>
<path d="M336.648 241.092C336.648 239.076 337.312 238.408 339.32 238.408H343.998L344.004 231.027H336.648V235.717C336.648 237.732 335.974 238.411 333.967 238.411H329.287V253.185H344.001L344.014 245.785L337.199 245.789C337.128 245.79 337.058 245.776 336.993 245.749C336.927 245.722 336.868 245.682 336.818 245.632C336.767 245.581 336.728 245.522 336.701 245.456C336.673 245.39 336.659 245.32 336.659 245.249L336.648 241.092Z" fill="#7295FF"/>
<path d="M335.227 223.623H330.7C329.92 223.623 329.287 224.258 329.287 225.042V229.596C329.287 230.379 329.92 231.014 330.7 231.014H335.227C336.008 231.014 336.64 230.379 336.64 229.596V225.042C336.64 224.258 336.008 223.623 335.227 223.623Z" fill="#7295FF"/>
<path d="M358.715 231.014C358.715 226.298 355.989 223.61 351.336 223.623L344.001 223.637V231.027L350.023 231.017C350.692 231.017 351.362 231.689 351.362 232.361V235.72C351.362 237.735 350.692 238.407 348.685 238.407H346.009C344.67 238.407 344.009 239.079 344.009 240.423L344.001 243.782C344.001 245.126 344.67 245.798 346.009 245.798H349.354C350.692 245.798 351.362 245.126 351.362 243.782V241.092C351.362 239.076 352.031 238.404 354.038 238.404L358.716 238.411L358.715 231.014Z" fill="#7295FF"/>
<path d="M293.315 118.991C293.315 100.299 308.402 85.1465 327.013 85.1465H360.977C379.588 85.1465 394.675 100.299 394.675 118.991V181.78C394.675 200.472 379.588 215.624 360.977 215.624H327.013C308.402 215.624 293.315 200.472 293.315 181.78V118.991Z" fill="#A3BAFF"/>
<path d="M296.952 136.785C296.952 134.855 298.51 133.291 300.432 133.291H338.917C340.839 133.291 342.397 134.855 342.397 136.785V175.437C342.397 177.367 340.839 178.932 338.917 178.932H300.432C298.51 178.932 296.952 177.367 296.952 175.437V136.785Z" fill="white"/>
<path d="M296.952 136.785C296.952 134.855 298.51 133.291 300.432 133.291H338.917C340.839 133.291 342.397 134.855 342.397 136.785V175.437C342.397 177.367 340.839 178.932 338.917 178.932H300.432C298.51 178.932 296.952 177.367 296.952 175.437V136.785Z" fill="url(#paint7_linear_385_2349)" fill-opacity="0.4"/>
<path d="M345.18 136.785C345.18 134.855 346.738 133.291 348.66 133.291H387.145C389.067 133.291 390.625 134.855 390.625 136.785V175.437C390.625 177.367 389.067 178.932 387.145 178.932H348.66C346.738 178.932 345.18 177.367 345.18 175.437V136.785Z" fill="white"/>
<path d="M345.18 136.785C345.18 134.855 346.738 133.291 348.66 133.291H387.145C389.067 133.291 390.625 134.855 390.625 136.785V175.437C390.625 177.367 389.067 178.932 387.145 178.932H348.66C346.738 178.932 345.18 177.367 345.18 175.437V136.785Z" fill="url(#paint8_linear_385_2349)" fill-opacity="0.4"/>
<path d="M358.41 149.729C358.41 147.762 359.998 146.167 361.957 146.167H373.485C375.444 146.167 377.033 147.762 377.033 149.729V161.308C377.033 163.275 375.444 164.87 373.485 164.87H361.957C359.998 164.87 358.41 163.275 358.41 161.308V149.729Z" fill="#515CB8"/>
<path d="M358.41 149.729C358.41 147.762 359.998 146.167 361.957 146.167H373.485C375.444 146.167 377.033 147.762 377.033 149.729V161.308C377.033 163.275 375.444 164.87 373.485 164.87H361.957C359.998 164.87 358.41 163.275 358.41 161.308V149.729Z" fill="url(#paint9_linear_385_2349)"/>
<path d="M310.353 149.729C310.353 147.762 311.941 146.167 313.9 146.167H325.428C327.387 146.167 328.975 147.762 328.975 149.729V161.308C328.975 163.275 327.387 164.87 325.428 164.87H313.9C311.941 164.87 310.353 163.275 310.353 161.308V149.729Z" fill="#515CB8"/>
<path d="M310.353 149.729C310.353 147.762 311.941 146.167 313.9 146.167H325.428C327.387 146.167 328.975 147.762 328.975 149.729V161.308C328.975 163.275 327.387 164.87 325.428 164.87H313.9C311.941 164.87 310.353 163.275 310.353 161.308V149.729Z" fill="url(#paint10_linear_385_2349)"/>
<path d="M314.155 187.803C314.155 186.888 314.894 186.146 315.805 186.146H372.186C373.097 186.146 373.836 186.888 373.836 187.803C373.836 197.414 366.078 205.205 356.509 205.205H331.482C321.912 205.205 314.155 197.414 314.155 187.803Z" fill="white"/>
<path fill-rule="evenodd" clip-rule="evenodd" d="M295.864 125.272C294.113 125.272 292.694 123.601 292.694 121.54V119.581C292.694 97.9392 307.594 80.3954 325.974 80.3954H366.069C381.832 80.3954 395.035 93.2987 398.475 110.624H406.373C412.647 110.624 417.732 116.612 417.732 123.998C417.732 124.702 417.248 125.272 416.65 125.272H295.864ZM321.028 113.329C320.234 113.329 319.59 112.683 319.59 111.885C319.59 103.511 326.349 96.7223 334.688 96.7223H348.707C357.045 96.7223 363.805 103.511 363.805 111.885C363.805 112.683 363.161 113.329 362.367 113.329H321.028Z" fill="#515CB8"/>
<path fill-rule="evenodd" clip-rule="evenodd" d="M295.864 125.272C294.113 125.272 292.694 123.601 292.694 121.54V119.581C292.694 97.9392 307.594 80.3954 325.974 80.3954H366.069C381.832 80.3954 395.035 93.2987 398.475 110.624H406.373C412.647 110.624 417.732 116.612 417.732 123.998C417.732 124.702 417.248 125.272 416.65 125.272H295.864ZM321.028 113.329C320.234 113.329 319.59 112.683 319.59 111.885C319.59 103.511 326.349 96.7223 334.688 96.7223H348.707C357.045 96.7223 363.805 103.511 363.805 111.885C363.805 112.683 363.161 113.329 362.367 113.329H321.028Z" fill="url(#paint11_linear_385_2349)"/>
<path d="M250.084 6.2736L48.6044 6.09435H39.7918H35.4754H34.9358H34.756H34.3963H33.3172C32.5978 6.09435 31.8784 6.09435 31.159 6.2736C28.6411 6.63209 26.1232 7.16983 23.6053 8.2453C21.2672 9.32078 18.7493 10.5755 16.771 12.1887C14.6128 13.8019 12.8143 15.7736 11.1956 17.9246C10.2964 19 9.75685 20.0755 9.03745 21.3302C8.67775 21.868 8.4979 22.585 8.1382 23.1227C7.7785 23.6604 7.59865 24.3774 7.4188 24.9152C6.33971 27.4246 5.98001 29.934 5.62031 32.6227C5.44046 35.1322 5.44046 38.1793 5.44046 41.0473V58.6133V67.3964V68.4719V68.8304V69.0096V69.5473V71.519C5.44046 72.236 5.62031 72.7738 5.62031 73.4907C5.80016 74.0285 5.80016 74.7455 5.98001 75.4624C6.51956 78.1511 7.59865 80.4813 8.8576 82.9908C10.1166 85.321 11.7352 87.4719 13.5337 89.4436C17.3105 93.2078 21.9866 96.0757 27.2023 97.3304C28.4612 97.6889 29.9 97.8682 31.159 98.0474C32.5978 98.2267 33.8567 98.2267 35.2955 98.2267H44.1082H61.7334L228.142 98.4059H229.941L230.48 100.198L231.379 102.708L232.459 105.217L233.718 107.547C234.257 108.264 234.617 108.981 235.156 109.878C235.696 110.595 236.235 111.312 236.775 112.029C237.315 112.746 237.854 113.463 238.573 114C239.293 114.538 239.832 115.255 240.552 115.793C241.271 116.33 241.811 116.868 242.53 117.406C243.25 117.944 243.969 118.481 244.688 118.84C245.408 119.378 246.127 119.736 247.026 120.095C247.746 120.453 248.645 120.812 249.544 121.17C250.444 121.529 251.163 121.887 252.062 122.066C252.961 122.425 253.681 122.604 254.58 122.783C255.479 122.963 256.379 123.321 257.278 123.5C258.177 123.68 259.076 123.859 259.976 124.038L262.673 124.397L260.335 128.161L258.357 125.114C257.638 124.038 257.098 122.963 256.558 121.887C255.839 120.812 255.479 119.736 254.94 118.481C254.76 117.944 254.4 117.406 254.22 116.689L253.681 114.897C253.501 114.359 253.141 113.642 253.141 113.104L252.782 111.312C252.602 110.774 252.422 110.057 252.422 109.519L252.242 107.547C252.062 106.293 252.242 105.038 252.242 103.604C252.242 102.887 252.422 102.349 252.422 101.632L252.602 99.6606L252.782 98.0474L254.58 97.6889C257.098 97.3304 259.616 96.7927 261.774 95.7172C264.112 94.821 266.27 93.5663 268.429 92.1323C270.407 90.6983 272.385 88.9059 273.824 86.9342C275.443 84.9625 276.702 82.8115 277.781 80.4813C278.86 78.1511 279.579 75.8209 280.119 73.3115C280.478 70.8021 280.658 68.4719 280.658 65.6039C280.658 60.2266 280.658 54.6699 280.478 49.2926V41.2265V37.1039V35.1322V34.5944C280.478 34.7737 280.478 34.5944 280.478 34.7737V34.5944V34.4152V33.3397C280.478 32.6227 280.478 31.9057 280.299 31.368L279.939 29.5755C279.759 28.5001 279.399 27.2453 279.04 25.9906C278.14 23.6604 277.241 21.3302 275.802 19.3585C275.263 18.2831 274.364 17.3868 273.644 16.3114C272.745 15.4151 272.026 14.5189 271.126 13.6227C269.328 11.8302 267.349 10.5755 265.191 9.32078C263.033 8.2453 260.695 7.16983 258.357 6.63209C254.94 6.45285 252.602 6.2736 250.084 6.2736ZM250.084 0C253.141 0.179246 256.019 0.358492 258.897 1.25472C261.774 1.9717 264.472 3.22642 267.17 4.66039C269.687 6.09435 272.205 7.88681 274.184 10.0378C275.263 11.1132 276.162 12.1887 277.061 13.2642C277.961 14.5189 278.86 15.5944 279.579 16.8491C281.198 19.3585 282.097 22.0472 282.996 24.9152C283.356 26.3491 283.716 27.7831 283.896 29.2171L284.255 31.368C284.255 32.085 284.255 32.802 284.255 33.3397V34.4152V34.9529V35.4907V37.4624L284.075 41.9435L283.896 50.0096C283.896 55.3869 283.716 60.9435 283.716 66.3209C283.716 69.0096 283.716 71.8775 283.176 74.7455C282.637 77.6134 281.917 80.3021 280.658 82.8115C280.478 83.5285 280.119 84.0662 279.759 84.7832C279.399 85.321 279.04 86.0379 278.68 86.5757C277.961 87.8304 277.241 88.9059 276.162 90.1606C274.364 92.4908 272.385 94.4625 270.047 96.255C267.709 98.0474 265.191 99.4814 262.673 100.736C259.976 101.991 257.278 102.708 254.22 103.246L256.379 101.274L256.199 102.887C256.199 103.425 256.019 103.963 256.019 104.5C256.019 105.576 255.839 106.651 256.019 107.727L256.199 109.34C256.199 109.878 256.379 110.415 256.558 110.953L256.918 112.566C257.098 113.104 257.278 113.642 257.458 114.18L257.997 115.793C258.177 116.33 258.357 116.868 258.717 117.227C259.256 118.302 259.616 119.198 260.155 120.274C260.695 121.17 261.235 122.246 261.774 123.142L263.752 126.01L266.81 130.67L261.414 129.774L258.537 129.415C257.638 129.236 256.558 129.057 255.659 128.878C254.76 128.698 253.681 128.34 252.782 128.161C251.882 127.981 250.803 127.623 249.904 127.264C249.005 126.906 248.105 126.547 247.026 126.189C246.127 125.83 245.228 125.472 244.329 124.934C243.429 124.576 242.53 124.038 241.631 123.5C240.732 122.963 239.832 122.425 239.113 121.887C238.214 121.349 237.494 120.632 236.775 119.915C236.056 119.198 235.336 118.481 234.617 117.764C233.897 117.047 233.178 116.151 232.638 115.434C231.919 114.717 231.379 113.821 230.84 112.925C230.3 112.029 229.761 111.132 229.221 110.415L227.782 107.727L226.703 104.859L225.804 101.991L228.142 103.783L79.3587 103.604L61.7334 103.425H44.1082H35.2955C33.8567 103.425 32.2381 103.246 30.6194 103.246C29.0008 103.066 27.562 102.887 26.1232 102.349C23.0657 101.632 20.1881 100.378 17.4904 98.7644C14.7926 97.3304 12.2747 95.3587 10.1166 93.2078C7.95835 91.0568 6.15986 88.5474 4.54121 85.8587C3.10241 82.453 1.84346 79.5851 1.30391 76.5379C1.12406 75.8209 0.944211 74.9247 0.764362 74.2077C0.584512 73.4907 0.404662 72.5945 0.404662 71.8775L0.224812 69.7266V69.1889V68.8304V68.4719V67.3964V58.6133L0.0449624 41.0473C0.0449624 38.1793 -0.134887 35.3114 0.224812 32.085C0.584512 29.0378 1.12406 25.8114 2.38301 22.9435C2.56286 22.2265 2.92256 21.5095 3.28226 20.7925C3.64196 20.0755 4.00166 19.3585 4.36136 18.6416C5.26061 17.3868 5.98001 15.9529 6.87925 14.6981C8.67775 12.1887 11.0158 9.85851 13.5337 7.88681C16.0516 5.91511 18.7493 4.3019 21.6269 3.04718C24.5045 1.79246 27.562 1.07547 30.9791 0.716983C31.6985 0.537737 32.4179 0.537737 33.1373 0.537737H34.2164H34.5761H34.9358H35.4754H39.7918H48.6044L250.084 0Z" fill="#000008"/>
<path d="M41.2812 26.625V38H38.9375V28.4609H34.3672V38H32.0234V26.625H41.2812ZM45.5975 31.1719V41.25H43.3475V29.5469H45.4334L45.5975 31.1719ZM50.9491 33.6797V33.8438C50.9491 34.4583 50.8761 35.0286 50.7303 35.5547C50.5897 36.0807 50.3814 36.5391 50.1053 36.9297C49.8293 37.3151 49.4855 37.6172 49.0741 37.8359C48.6678 38.0495 48.1991 38.1562 47.6678 38.1562C47.1522 38.1562 46.7043 38.0521 46.3241 37.8438C45.9439 37.6354 45.6235 37.3438 45.3631 36.9688C45.1079 36.5885 44.9022 36.1484 44.7459 35.6484C44.5897 35.1484 44.4699 34.612 44.3866 34.0391V33.6094C44.4699 32.9948 44.5897 32.4323 44.7459 31.9219C44.9022 31.4062 45.1079 30.9609 45.3631 30.5859C45.6235 30.2057 45.9412 29.9115 46.3162 29.7031C46.6965 29.4948 47.1418 29.3906 47.6522 29.3906C48.1886 29.3906 48.66 29.4922 49.0662 29.6953C49.4777 29.8984 49.8215 30.1901 50.0975 30.5703C50.3787 30.9505 50.5897 31.4036 50.7303 31.9297C50.8761 32.4557 50.9491 33.0391 50.9491 33.6797ZM48.6912 33.8438V33.6797C48.6912 33.3203 48.66 32.9896 48.5975 32.6875C48.5402 32.3802 48.4465 32.112 48.3162 31.8828C48.1912 31.6536 48.0246 31.4766 47.8162 31.3516C47.6131 31.2214 47.3657 31.1562 47.0741 31.1562C46.7668 31.1562 46.5037 31.2057 46.285 31.3047C46.0715 31.4036 45.897 31.5469 45.7616 31.7344C45.6261 31.9219 45.5246 32.1458 45.4569 32.4062C45.3892 32.6667 45.3475 32.9609 45.3319 33.2891V34.375C45.3579 34.7604 45.4308 35.1068 45.5506 35.4141C45.6704 35.7161 45.8553 35.9557 46.1053 36.1328C46.3553 36.3099 46.6834 36.3984 47.0897 36.3984C47.3866 36.3984 47.6366 36.3333 47.8397 36.2031C48.0428 36.0677 48.2069 35.8828 48.3319 35.6484C48.4621 35.4141 48.5532 35.1432 48.6053 34.8359C48.6626 34.5286 48.6912 34.1979 48.6912 33.8438ZM54.7497 34.8594L57.5856 29.5469H59.8356V38H57.5856V32.6797L54.7497 38H52.4997V29.5469H54.7497V34.8594ZM65.9409 34.4688H63.2925L63.2769 32.9922H65.4644C65.756 32.9922 65.993 32.9635 66.1753 32.9062C66.3576 32.8438 66.4904 32.7526 66.5737 32.6328C66.6623 32.5078 66.7066 32.3568 66.7066 32.1797C66.7066 32.0234 66.6779 31.8906 66.6206 31.7812C66.5685 31.6667 66.4878 31.5729 66.3784 31.5C66.2691 31.4271 66.131 31.375 65.9644 31.3438C65.8029 31.3073 65.6128 31.2891 65.3941 31.2891H64.1284V38H61.8784V29.5469H65.3941C65.9461 29.5469 66.4409 29.5964 66.8784 29.6953C67.3159 29.7891 67.6883 29.9323 67.9956 30.125C68.3081 30.3177 68.5451 30.5625 68.7066 30.8594C68.8732 31.151 68.9566 31.4974 68.9566 31.8984C68.9566 32.1589 68.8967 32.4036 68.7769 32.6328C68.6623 32.862 68.4904 33.0651 68.2612 33.2422C68.0321 33.4193 67.7482 33.5651 67.4097 33.6797C67.0764 33.7891 66.6909 33.8568 66.2534 33.8828L65.9409 34.4688ZM65.9409 38H62.7378L63.5112 36.2578H65.9409C66.217 36.2578 66.4435 36.224 66.6206 36.1562C66.7977 36.0885 66.9279 35.9896 67.0112 35.8594C67.0998 35.724 67.1441 35.5625 67.1441 35.375C67.1441 35.1927 67.105 35.0339 67.0269 34.8984C66.9487 34.763 66.8211 34.6589 66.6441 34.5859C66.4722 34.5078 66.2378 34.4688 65.9409 34.4688H63.8394L63.855 32.9922H66.2456L66.7925 33.5859C67.3862 33.6224 67.8758 33.7344 68.2612 33.9219C68.6467 34.1094 68.9305 34.349 69.1128 34.6406C69.3003 34.9271 69.3941 35.2422 69.3941 35.5859C69.3941 35.987 69.3185 36.3385 69.1675 36.6406C69.0165 36.9427 68.7925 37.1953 68.4956 37.3984C68.204 37.5964 67.8446 37.7474 67.4175 37.8516C66.9904 37.9505 66.4982 38 65.9409 38ZM74.8275 38.1562C74.1712 38.1562 73.5827 38.0521 73.0619 37.8438C72.541 37.6302 72.0983 37.3359 71.7337 36.9609C71.3744 36.5859 71.0983 36.151 70.9056 35.6562C70.7129 35.1562 70.6166 34.625 70.6166 34.0625V33.75C70.6166 33.1094 70.7077 32.5234 70.89 31.9922C71.0723 31.4609 71.3327 31 71.6712 30.6094C72.015 30.2188 72.4317 29.9193 72.9212 29.7109C73.4108 29.4974 73.9629 29.3906 74.5775 29.3906C75.1765 29.3906 75.7077 29.4896 76.1712 29.6875C76.6348 29.8854 77.0228 30.1667 77.3353 30.5312C77.653 30.8958 77.8926 31.3333 78.0541 31.8438C78.2155 32.349 78.2962 32.9115 78.2962 33.5312V34.4688H71.5775V32.9688H76.0853V32.7969C76.0853 32.4844 76.028 32.2057 75.9134 31.9609C75.8041 31.7109 75.6374 31.513 75.4134 31.3672C75.1895 31.2214 74.903 31.1484 74.5541 31.1484C74.2572 31.1484 74.002 31.2135 73.7884 31.3438C73.5749 31.474 73.4004 31.6562 73.265 31.8906C73.1348 32.125 73.0358 32.401 72.9681 32.7188C72.9056 33.0312 72.8744 33.375 72.8744 33.75V34.0625C72.8744 34.401 72.9212 34.7135 73.015 35C73.114 35.2865 73.252 35.5339 73.4291 35.7422C73.6114 35.9505 73.8301 36.112 74.0853 36.2266C74.3457 36.3411 74.64 36.3984 74.9681 36.3984C75.3744 36.3984 75.752 36.3203 76.1009 36.1641C76.4551 36.0026 76.7598 35.7604 77.015 35.4375L78.1087 36.625C77.9317 36.8802 77.6895 37.125 77.3822 37.3594C77.0801 37.5938 76.7155 37.7865 76.2884 37.9375C75.8614 38.0833 75.3744 38.1562 74.8275 38.1562ZM83.9484 29.5469V38H81.6906V29.5469H83.9484ZM86.6672 29.5469V31.2891H79.0109V29.5469H86.6672ZM90.5147 26.625L90.2569 34.5234H88.3819L88.1162 26.625H90.5147ZM88.0537 36.9688C88.0537 36.6354 88.1683 36.3594 88.3975 36.1406C88.6319 35.9167 88.9392 35.8047 89.3194 35.8047C89.7048 35.8047 90.0121 35.9167 90.2412 36.1406C90.4704 36.3594 90.585 36.6354 90.585 36.9688C90.585 37.2917 90.4704 37.5651 90.2412 37.7891C90.0121 38.013 89.7048 38.125 89.3194 38.125C88.9392 38.125 88.6319 38.013 88.3975 37.7891C88.1683 37.5651 88.0537 37.2917 88.0537 36.9688ZM38.0625 52.8672H34.9688L34.1797 52.5391C33.2891 52.2578 32.6068 51.8359 32.1328 51.2734C31.6641 50.7109 31.4297 49.9948 31.4297 49.125C31.4297 48.3594 31.599 47.7188 31.9375 47.2031C32.2812 46.6823 32.7656 46.2891 33.3906 46.0234C34.0208 45.7578 34.7682 45.625 35.6328 45.625H39.6016V57H37.25V47.4609H35.6328C34.9922 47.4609 34.5208 47.6198 34.2188 47.9375C33.9167 48.2552 33.7656 48.7057 33.7656 49.2891C33.7656 49.7161 33.8359 50.0677 33.9766 50.3438C34.1172 50.6146 34.3229 50.8177 34.5938 50.9531C34.8646 51.0833 35.2057 51.1484 35.6172 51.1484H38.0547L38.0625 52.8672ZM35.8047 51.9219L33.2812 57H30.7422L33.2734 51.9219H35.8047ZM50.1012 46.6484H52.6325C53.3096 46.6484 53.9346 46.7604 54.5075 46.9844C55.0804 47.2031 55.5778 47.5208 55.9997 47.9375C56.4268 48.349 56.7575 48.8464 56.9919 49.4297C57.2262 50.0078 57.3434 50.6536 57.3434 51.3672C57.3434 52.0651 57.2262 52.7005 56.9919 53.2734C56.7575 53.8411 56.4268 54.3281 55.9997 54.7344C55.5778 55.1406 55.0804 55.4531 54.5075 55.6719C53.9346 55.8906 53.3096 56 52.6325 56H50.1012C49.419 56 48.7914 55.8906 48.2184 55.6719C47.6455 55.4531 47.1455 55.1432 46.7184 54.7422C46.2914 54.3359 45.958 53.849 45.7184 53.2812C45.4841 52.7135 45.3669 52.0807 45.3669 51.3828C45.3669 50.6693 45.4841 50.0234 45.7184 49.4453C45.958 48.862 46.2914 48.362 46.7184 47.9453C47.1455 47.5286 47.6455 47.2083 48.2184 46.9844C48.7914 46.7604 49.419 46.6484 50.1012 46.6484ZM50.1012 48.5234C49.6012 48.5234 49.1611 48.6328 48.7809 48.8516C48.4007 49.0703 48.1065 49.3932 47.8981 49.8203C47.6898 50.2422 47.5856 50.763 47.5856 51.3828C47.5856 51.8307 47.6455 52.2266 47.7653 52.5703C47.8903 52.9089 48.0648 53.1927 48.2887 53.4219C48.5127 53.651 48.7783 53.8255 49.0856 53.9453C49.3929 54.0651 49.7315 54.125 50.1012 54.125H52.6481C53.1429 54.125 53.5752 54.0182 53.945 53.8047C54.32 53.5911 54.6117 53.2786 54.82 52.8672C55.0283 52.4557 55.1325 51.9557 55.1325 51.3672C55.1325 50.9036 55.0726 50.4948 54.9528 50.1406C54.833 49.7865 54.6637 49.4896 54.445 49.25C54.2262 49.0104 53.9632 48.8307 53.6559 48.7109C53.3539 48.5859 53.0179 48.5234 52.6481 48.5234H50.1012ZM52.4919 45.1562V57.4688H50.2419V45.1562H52.4919ZM61.3003 53.3125L65.8706 45.625H68.2144V57H65.8706V49.3125L61.3003 57H58.9566V45.625H61.3003V53.3125ZM81.1087 55.1797L80.9603 59.7422H78.7728V57H77.8431V55.1797H81.1087ZM70.2884 57V45.625H72.6244V55.1719H77.2025V45.625H79.5541V57H70.2884ZM87.5578 45.625V57H85.2219V45.625H87.5578ZM91.0578 45.625V47.4609H81.7766V45.625H91.0578ZM101.679 51.0469V51.5859C101.679 52.4505 101.562 53.2266 101.327 53.9141C101.093 54.6016 100.762 55.1875 100.335 55.6719C99.9079 56.151 99.3975 56.5182 98.8037 56.7734C98.2152 57.0286 97.5616 57.1562 96.8428 57.1562C96.1293 57.1562 95.4756 57.0286 94.8819 56.7734C94.2933 56.5182 93.7829 56.151 93.3506 55.6719C92.9183 55.1875 92.5824 54.6016 92.3428 53.9141C92.1084 53.2266 91.9912 52.4505 91.9912 51.5859V51.0469C91.9912 50.1771 92.1084 49.401 92.3428 48.7188C92.5772 48.0312 92.9079 47.4453 93.335 46.9609C93.7673 46.4766 94.2777 46.1068 94.8662 45.8516C95.46 45.5964 96.1136 45.4688 96.8272 45.4688C97.5459 45.4688 98.1996 45.5964 98.7881 45.8516C99.3819 46.1068 99.8923 46.4766 100.319 46.9609C100.752 47.4453 101.085 48.0312 101.319 48.7188C101.559 49.401 101.679 50.1771 101.679 51.0469ZM99.3116 51.5859V51.0312C99.3116 50.4271 99.2569 49.8958 99.1475 49.4375C99.0381 48.9792 98.8767 48.5938 98.6631 48.2812C98.4496 47.9688 98.1892 47.7344 97.8819 47.5781C97.5746 47.4167 97.223 47.3359 96.8272 47.3359C96.4314 47.3359 96.0798 47.4167 95.7725 47.5781C95.4704 47.7344 95.2126 47.9688 94.9991 48.2812C94.7907 48.5938 94.6319 48.9792 94.5225 49.4375C94.4131 49.8958 94.3584 50.4271 94.3584 51.0312V51.5859C94.3584 52.1849 94.4131 52.7161 94.5225 53.1797C94.6319 53.638 94.7933 54.026 95.0069 54.3438C95.2204 54.6562 95.4808 54.8932 95.7881 55.0547C96.0954 55.2161 96.447 55.2969 96.8428 55.2969C97.2386 55.2969 97.5902 55.2161 97.8975 55.0547C98.2048 54.8932 98.4626 54.6562 98.6709 54.3438C98.8793 54.026 99.0381 53.638 99.1475 53.1797C99.2569 52.7161 99.3116 52.1849 99.3116 51.5859ZM103.503 45.625H105.854V55.1719H109.026V45.625H111.37V55.1719H114.511V45.625H116.847V57H103.503V45.625ZM123.78 47.5703L120.686 57H118.194L122.421 45.625H124.007L123.78 47.5703ZM126.35 57L123.249 47.5703L122.999 45.625H124.6L128.85 57H126.35ZM126.21 52.7656V54.6016H120.202V52.7656H126.21ZM142.483 50.5234V52.2969H134.373V50.5234H142.483ZM153.647 44.8281H155.467C155.467 45.25 155.415 45.612 155.311 45.9141C155.206 46.2109 155.04 46.4661 154.811 46.6797C154.581 46.888 154.274 47.0651 153.889 47.2109C153.503 47.3568 153.027 47.4818 152.459 47.5859C152.022 47.6745 151.641 47.8203 151.318 48.0234C151.001 48.2266 150.738 48.5052 150.529 48.8594C150.326 49.2083 150.18 49.651 150.092 50.1875C150.003 50.7188 149.972 51.3594 149.998 52.1094V52.4844L148.248 52.7266V52.3516C148.253 51.3307 148.344 50.4427 148.522 49.6875C148.704 48.9323 148.962 48.2969 149.295 47.7812C149.628 47.2604 150.029 46.8464 150.498 46.5391C150.967 46.2266 151.488 46.0078 152.061 45.8828C152.446 45.7995 152.753 45.7188 152.982 45.6406C153.217 45.5573 153.386 45.4531 153.49 45.3281C153.594 45.2031 153.647 45.0365 153.647 44.8281ZM152.662 49.0234C153.235 49.0234 153.743 49.1224 154.186 49.3203C154.628 49.513 155.001 49.7865 155.303 50.1406C155.605 50.4948 155.834 50.9115 155.99 51.3906C156.147 51.8698 156.225 52.3932 156.225 52.9609V53.125C156.225 53.7031 156.136 54.2396 155.959 54.7344C155.787 55.224 155.532 55.651 155.193 56.0156C154.855 56.3802 154.438 56.6641 153.943 56.8672C153.449 57.0651 152.884 57.1641 152.248 57.1641C151.607 57.1641 151.037 57.0573 150.537 56.8438C150.042 56.625 149.623 56.3203 149.279 55.9297C148.941 55.5339 148.683 55.0729 148.506 54.5469C148.334 54.0156 148.248 53.4375 148.248 52.8125V52.6406C148.248 52.5521 148.287 52.4661 148.365 52.3828C148.449 52.2943 148.545 52.1953 148.654 52.0859C148.769 51.9766 148.871 51.8385 148.959 51.6719C149.272 51.0938 149.613 50.6094 149.982 50.2188C150.352 49.8229 150.756 49.526 151.193 49.3281C151.636 49.125 152.126 49.0234 152.662 49.0234ZM152.232 50.7812C151.811 50.7812 151.472 50.8828 151.217 51.0859C150.962 51.2839 150.777 51.5495 150.662 51.8828C150.553 52.2109 150.498 52.5703 150.498 52.9609V53.125C150.498 53.4427 150.529 53.7396 150.592 54.0156C150.654 54.2865 150.753 54.5286 150.889 54.7422C151.024 54.9505 151.204 55.1146 151.428 55.2344C151.652 55.349 151.925 55.4062 152.248 55.4062C152.561 55.4062 152.826 55.349 153.045 55.2344C153.269 55.1146 153.449 54.9505 153.584 54.7422C153.719 54.5286 153.818 54.2865 153.881 54.0156C153.943 53.7396 153.975 53.4427 153.975 53.125V52.9609C153.975 52.6641 153.943 52.3854 153.881 52.125C153.818 51.8594 153.719 51.6276 153.584 51.4297C153.449 51.2266 153.269 51.0677 153.045 50.9531C152.821 50.8385 152.55 50.7812 152.232 50.7812ZM157.393 52.8594V52.6953C157.393 52.0755 157.481 51.5052 157.658 50.9844C157.835 50.4583 158.093 50.0026 158.432 49.6172C158.77 49.2318 159.187 48.9323 159.682 48.7188C160.176 48.5 160.744 48.3906 161.385 48.3906C162.025 48.3906 162.596 48.5 163.096 48.7188C163.596 48.9323 164.015 49.2318 164.353 49.6172C164.697 50.0026 164.958 50.4583 165.135 50.9844C165.312 51.5052 165.4 52.0755 165.4 52.6953V52.8594C165.4 53.474 165.312 54.0443 165.135 54.5703C164.958 55.0911 164.697 55.5469 164.353 55.9375C164.015 56.3229 163.598 56.6224 163.103 56.8359C162.609 57.0495 162.041 57.1562 161.4 57.1562C160.76 57.1562 160.189 57.0495 159.689 56.8359C159.195 56.6224 158.775 56.3229 158.432 55.9375C158.093 55.5469 157.835 55.0911 157.658 54.5703C157.481 54.0443 157.393 53.474 157.393 52.8594ZM159.643 52.6953V52.8594C159.643 53.2135 159.674 53.5443 159.736 53.8516C159.799 54.1589 159.898 54.4297 160.033 54.6641C160.174 54.8932 160.356 55.0729 160.58 55.2031C160.804 55.3333 161.077 55.3984 161.4 55.3984C161.713 55.3984 161.981 55.3333 162.205 55.2031C162.429 55.0729 162.609 54.8932 162.744 54.6641C162.879 54.4297 162.978 54.1589 163.041 53.8516C163.109 53.5443 163.143 53.2135 163.143 52.8594V52.6953C163.143 52.3516 163.109 52.0286 163.041 51.7266C162.978 51.4193 162.877 51.1484 162.736 50.9141C162.601 50.6745 162.421 50.487 162.197 50.3516C161.973 50.2161 161.702 50.1484 161.385 50.1484C161.067 50.1484 160.796 50.2161 160.572 50.3516C160.353 50.487 160.174 50.6745 160.033 50.9141C159.898 51.1484 159.799 51.4193 159.736 51.7266C159.674 52.0286 159.643 52.3516 159.643 52.6953ZM171.029 48.5469V57H168.771V48.5469H171.029ZM173.748 48.5469V50.2891H166.092V48.5469H173.748ZM177.189 55.1016L177.181 56.6094C177.181 57.1875 177.035 57.7708 176.744 58.3594C176.457 58.9479 176.093 59.4297 175.65 59.8047L174.478 59.2031C174.608 58.9635 174.736 58.724 174.861 58.4844C174.986 58.2448 175.09 57.9818 175.173 57.6953C175.257 57.4089 175.298 57.0833 175.298 56.7188V55.1016H177.189ZM185.697 48.5469V57H183.447V48.5469H185.697ZM191.189 48.5469L187.548 53.8359H185.298L185.025 51.7578H186.517L188.337 48.5469H191.189ZM188.439 57L186.361 53.4297L188.322 52.3438L191.454 57H188.439ZM191.739 52.8594V52.6953C191.739 52.0755 191.828 51.5052 192.005 50.9844C192.182 50.4583 192.44 50.0026 192.778 49.6172C193.117 49.2318 193.534 48.9323 194.028 48.7188C194.523 48.5 195.091 48.3906 195.732 48.3906C196.372 48.3906 196.943 48.5 197.443 48.7188C197.943 48.9323 198.362 49.2318 198.7 49.6172C199.044 50.0026 199.304 50.4583 199.482 50.9844C199.659 51.5052 199.747 52.0755 199.747 52.6953V52.8594C199.747 53.474 199.659 54.0443 199.482 54.5703C199.304 55.0911 199.044 55.5469 198.7 55.9375C198.362 56.3229 197.945 56.6224 197.45 56.8359C196.956 57.0495 196.388 57.1562 195.747 57.1562C195.107 57.1562 194.536 57.0495 194.036 56.8359C193.541 56.6224 193.122 56.3229 192.778 55.9375C192.44 55.5469 192.182 55.0911 192.005 54.5703C191.828 54.0443 191.739 53.474 191.739 52.8594ZM193.989 52.6953V52.8594C193.989 53.2135 194.021 53.5443 194.083 53.8516C194.146 54.1589 194.245 54.4297 194.38 54.6641C194.521 54.8932 194.703 55.0729 194.927 55.2031C195.151 55.3333 195.424 55.3984 195.747 55.3984C196.06 55.3984 196.328 55.3333 196.552 55.2031C196.776 55.0729 196.956 54.8932 197.091 54.6641C197.226 54.4297 197.325 54.1589 197.388 53.8516C197.456 53.5443 197.489 53.2135 197.489 52.8594V52.6953C197.489 52.3516 197.456 52.0286 197.388 51.7266C197.325 51.4193 197.224 51.1484 197.083 50.9141C196.948 50.6745 196.768 50.487 196.544 50.3516C196.32 50.2161 196.049 50.1484 195.732 50.1484C195.414 50.1484 195.143 50.2161 194.919 50.3516C194.7 50.487 194.521 50.6745 194.38 50.9141C194.245 51.1484 194.146 51.4193 194.083 51.7266C194.021 52.0286 193.989 52.3516 193.989 52.6953ZM205.376 48.5469V57H203.118V48.5469H205.376ZM208.095 48.5469V50.2891H200.438V48.5469H208.095ZM208.778 52.8594V52.6953C208.778 52.0755 208.867 51.5052 209.044 50.9844C209.221 50.4583 209.479 50.0026 209.817 49.6172C210.156 49.2318 210.572 48.9323 211.067 48.7188C211.562 48.5 212.13 48.3906 212.77 48.3906C213.411 48.3906 213.981 48.5 214.481 48.7188C214.981 48.9323 215.401 49.2318 215.739 49.6172C216.083 50.0026 216.343 50.4583 216.52 50.9844C216.697 51.5052 216.786 52.0755 216.786 52.6953V52.8594C216.786 53.474 216.697 54.0443 216.52 54.5703C216.343 55.0911 216.083 55.5469 215.739 55.9375C215.401 56.3229 214.984 56.6224 214.489 56.8359C213.994 57.0495 213.427 57.1562 212.786 57.1562C212.145 57.1562 211.575 57.0495 211.075 56.8359C210.58 56.6224 210.161 56.3229 209.817 55.9375C209.479 55.5469 209.221 55.0911 209.044 54.5703C208.867 54.0443 208.778 53.474 208.778 52.8594ZM211.028 52.6953V52.8594C211.028 53.2135 211.059 53.5443 211.122 53.8516C211.184 54.1589 211.283 54.4297 211.419 54.6641C211.559 54.8932 211.742 55.0729 211.966 55.2031C212.19 55.3333 212.463 55.3984 212.786 55.3984C213.098 55.3984 213.367 55.3333 213.591 55.2031C213.815 55.0729 213.994 54.8932 214.13 54.6641C214.265 54.4297 214.364 54.1589 214.427 53.8516C214.494 53.5443 214.528 53.2135 214.528 52.8594V52.6953C214.528 52.3516 214.494 52.0286 214.427 51.7266C214.364 51.4193 214.262 51.1484 214.122 50.9141C213.986 50.6745 213.807 50.487 213.583 50.3516C213.359 50.2161 213.088 50.1484 212.77 50.1484C212.453 50.1484 212.182 50.2161 211.958 50.3516C211.739 50.487 211.559 50.6745 211.419 50.9141C211.283 51.1484 211.184 51.4193 211.122 51.7266C211.059 52.0286 211.028 52.3516 211.028 52.6953ZM220.579 50.1719V60.25H218.329V48.5469H220.415L220.579 50.1719ZM225.93 52.6797V52.8438C225.93 53.4583 225.857 54.0286 225.712 54.5547C225.571 55.0807 225.363 55.5391 225.087 55.9297C224.811 56.3151 224.467 56.6172 224.055 56.8359C223.649 57.0495 223.18 57.1562 222.649 57.1562C222.133 57.1562 221.686 57.0521 221.305 56.8438C220.925 56.6354 220.605 56.3438 220.344 55.9688C220.089 55.5885 219.883 55.1484 219.727 54.6484C219.571 54.1484 219.451 53.612 219.368 53.0391V52.6094C219.451 51.9948 219.571 51.4323 219.727 50.9219C219.883 50.4062 220.089 49.9609 220.344 49.5859C220.605 49.2057 220.923 48.9115 221.298 48.7031C221.678 48.4948 222.123 48.3906 222.633 48.3906C223.17 48.3906 223.641 48.4922 224.048 48.6953C224.459 48.8984 224.803 49.1901 225.079 49.5703C225.36 49.9505 225.571 50.4036 225.712 50.9297C225.857 51.4557 225.93 52.0391 225.93 52.6797ZM223.673 52.8438V52.6797C223.673 52.3203 223.641 51.9896 223.579 51.6875C223.521 51.3802 223.428 51.112 223.298 50.8828C223.173 50.6536 223.006 50.4766 222.798 50.3516C222.594 50.2214 222.347 50.1562 222.055 50.1562C221.748 50.1562 221.485 50.2057 221.266 50.3047C221.053 50.4036 220.878 50.5469 220.743 50.7344C220.607 50.9219 220.506 51.1458 220.438 51.4062C220.37 51.6667 220.329 51.9609 220.313 52.2891V53.375C220.339 53.7604 220.412 54.1068 220.532 54.4141C220.652 54.7161 220.837 54.9557 221.087 55.1328C221.337 55.3099 221.665 55.3984 222.071 55.3984C222.368 55.3984 222.618 55.3333 222.821 55.2031C223.024 55.0677 223.188 54.8828 223.313 54.6484C223.443 54.4141 223.534 54.1432 223.587 53.8359C223.644 53.5286 223.673 53.1979 223.673 52.8438ZM229.043 51.0547H231.497C232.267 51.0547 232.924 51.1823 233.465 51.4375C234.012 51.6875 234.429 52.0365 234.715 52.4844C235.007 52.9323 235.153 53.4505 235.153 54.0391C235.153 54.4661 235.069 54.862 234.903 55.2266C234.741 55.5859 234.504 55.8984 234.192 56.1641C233.879 56.4297 233.497 56.6354 233.043 56.7812C232.59 56.9271 232.075 57 231.497 57H227.637V48.5469H229.895V55.25H231.497C231.835 55.25 232.106 55.1953 232.309 55.0859C232.517 54.9714 232.668 54.8229 232.762 54.6406C232.861 54.4583 232.911 54.2604 232.911 54.0469C232.911 53.8229 232.861 53.6198 232.762 53.4375C232.668 53.25 232.517 53.099 232.309 52.9844C232.106 52.8698 231.835 52.8125 231.497 52.8125H229.043V51.0547ZM238.762 48.5469V57H236.512V48.5469H238.762ZM243.141 53.8594L245.977 48.5469H248.227V57H245.977V51.6797L243.141 57H240.891V48.5469H243.141V53.8594ZM245.719 45.1484H247.321C247.321 45.5964 247.209 45.9948 246.985 46.3438C246.766 46.6875 246.453 46.9583 246.047 47.1562C245.641 47.349 245.162 47.4453 244.61 47.4453C243.771 47.4453 243.107 47.2318 242.617 46.8047C242.133 46.3776 241.891 45.8255 241.891 45.1484H243.485C243.485 45.4193 243.568 45.6615 243.735 45.875C243.907 46.0885 244.198 46.1953 244.61 46.1953C245.016 46.1953 245.302 46.0885 245.469 45.875C245.636 45.6615 245.719 45.4193 245.719 45.1484ZM31.5156 71.8594V71.6953C31.5156 71.0755 31.6042 70.5052 31.7812 69.9844C31.9583 69.4583 32.2161 69.0026 32.5547 68.6172C32.8932 68.2318 33.3099 67.9323 33.8047 67.7188C34.2995 67.5 34.8672 67.3906 35.5078 67.3906C36.1484 67.3906 36.7188 67.5 37.2188 67.7188C37.7188 67.9323 38.138 68.2318 38.4766 68.6172C38.8203 69.0026 39.0807 69.4583 39.2578 69.9844C39.4349 70.5052 39.5234 71.0755 39.5234 71.6953V71.8594C39.5234 72.474 39.4349 73.0443 39.2578 73.5703C39.0807 74.0911 38.8203 74.5469 38.4766 74.9375C38.138 75.3229 37.7214 75.6224 37.2266 75.8359C36.7318 76.0495 36.1641 76.1562 35.5234 76.1562C34.8828 76.1562 34.3125 76.0495 33.8125 75.8359C33.3177 75.6224 32.8984 75.3229 32.5547 74.9375C32.2161 74.5469 31.9583 74.0911 31.7812 73.5703C31.6042 73.0443 31.5156 72.474 31.5156 71.8594ZM33.7656 71.6953V71.8594C33.7656 72.2135 33.7969 72.5443 33.8594 72.8516C33.9219 73.1589 34.0208 73.4297 34.1562 73.6641C34.2969 73.8932 34.4792 74.0729 34.7031 74.2031C34.9271 74.3333 35.2005 74.3984 35.5234 74.3984C35.8359 74.3984 36.1042 74.3333 36.3281 74.2031C36.5521 74.0729 36.7318 73.8932 36.8672 73.6641C37.0026 73.4297 37.1016 73.1589 37.1641 72.8516C37.2318 72.5443 37.2656 72.2135 37.2656 71.8594V71.6953C37.2656 71.3516 37.2318 71.0286 37.1641 70.7266C37.1016 70.4193 37 70.1484 36.8594 69.9141C36.724 69.6745 36.5443 69.487 36.3203 69.3516C36.0964 69.2161 35.8255 69.1484 35.5078 69.1484C35.1901 69.1484 34.9193 69.2161 34.6953 69.3516C34.4766 69.487 34.2969 69.6745 34.1562 69.9141C34.0208 70.1484 33.9219 70.4193 33.8594 70.7266C33.7969 71.0286 33.7656 71.3516 33.7656 71.6953ZM46.2459 63.8281H48.0662C48.0662 64.25 48.0142 64.612 47.91 64.9141C47.8058 65.2109 47.6392 65.4661 47.41 65.6797C47.1808 65.888 46.8735 66.0651 46.4881 66.2109C46.1027 66.3568 45.6261 66.4818 45.0584 66.5859C44.6209 66.6745 44.2407 66.8203 43.9178 67.0234C43.6001 67.2266 43.3371 67.5052 43.1287 67.8594C42.9256 68.2083 42.7798 68.651 42.6912 69.1875C42.6027 69.7188 42.5715 70.3594 42.5975 71.1094V71.4844L40.8475 71.7266V71.3516C40.8527 70.3307 40.9439 69.4427 41.1209 68.6875C41.3032 67.9323 41.561 67.2969 41.8944 66.7812C42.2277 66.2604 42.6287 65.8464 43.0975 65.5391C43.5662 65.2266 44.0871 65.0078 44.66 64.8828C45.0454 64.7995 45.3527 64.7188 45.5819 64.6406C45.8162 64.5573 45.9855 64.4531 46.0897 64.3281C46.1939 64.2031 46.2459 64.0365 46.2459 63.8281ZM45.2616 68.0234C45.8345 68.0234 46.3423 68.1224 46.785 68.3203C47.2277 68.513 47.6001 68.7865 47.9022 69.1406C48.2043 69.4948 48.4334 69.9115 48.5897 70.3906C48.7459 70.8698 48.8241 71.3932 48.8241 71.9609V72.125C48.8241 72.7031 48.7355 73.2396 48.5584 73.7344C48.3866 74.224 48.1314 74.651 47.7928 75.0156C47.4543 75.3802 47.0376 75.6641 46.5428 75.8672C46.048 76.0651 45.4829 76.1641 44.8475 76.1641C44.2069 76.1641 43.6366 76.0573 43.1366 75.8438C42.6418 75.625 42.2225 75.3203 41.8787 74.9297C41.5402 74.5339 41.2824 74.0729 41.1053 73.5469C40.9334 73.0156 40.8475 72.4375 40.8475 71.8125V71.6406C40.8475 71.5521 40.8866 71.4661 40.9647 71.3828C41.048 71.2943 41.1444 71.1953 41.2537 71.0859C41.3683 70.9766 41.4699 70.8385 41.5584 70.6719C41.8709 70.0938 42.2121 69.6094 42.5819 69.2188C42.9517 68.8229 43.3553 68.526 43.7928 68.3281C44.2355 68.125 44.7251 68.0234 45.2616 68.0234ZM44.8319 69.7812C44.41 69.7812 44.0715 69.8828 43.8162 70.0859C43.561 70.2839 43.3761 70.5495 43.2616 70.8828C43.1522 71.2109 43.0975 71.5703 43.0975 71.9609V72.125C43.0975 72.4427 43.1287 72.7396 43.1912 73.0156C43.2537 73.2865 43.3527 73.5286 43.4881 73.7422C43.6235 73.9505 43.8032 74.1146 44.0272 74.2344C44.2511 74.349 44.5246 74.4062 44.8475 74.4062C45.16 74.4062 45.4256 74.349 45.6444 74.2344C45.8683 74.1146 46.048 73.9505 46.1834 73.7422C46.3189 73.5286 46.4178 73.2865 46.4803 73.0156C46.5428 72.7396 46.5741 72.4427 46.5741 72.125V71.9609C46.5741 71.6641 46.5428 71.3854 46.4803 71.125C46.4178 70.8594 46.3189 70.6276 46.1834 70.4297C46.048 70.2266 45.8683 70.0677 45.6444 69.9531C45.4204 69.8385 45.1496 69.7812 44.8319 69.7812ZM63.3122 74.25L63.1559 78.5078H61.0622V76H60.1169V74.25H63.3122ZM50.1794 67.5469H52.4294V74.2422H54.7731V67.5469H57.0309V74.2422H59.3669V67.5469H61.6169V76H50.1794V67.5469ZM69.3706 74.0938V70.3281C69.3706 70.0573 69.3264 69.8255 69.2378 69.6328C69.1493 69.4349 69.0112 69.2812 68.8237 69.1719C68.6415 69.0625 68.4045 69.0078 68.1128 69.0078C67.8628 69.0078 67.6467 69.0521 67.4644 69.1406C67.2821 69.224 67.1415 69.3464 67.0425 69.5078C66.9435 69.6641 66.8941 69.849 66.8941 70.0625H64.6441C64.6441 69.7031 64.7274 69.362 64.8941 69.0391C65.0607 68.7161 65.3029 68.4323 65.6206 68.1875C65.9383 67.9375 66.3159 67.7422 66.7534 67.6016C67.1961 67.4609 67.6909 67.3906 68.2378 67.3906C68.8941 67.3906 69.4774 67.5 69.9878 67.7188C70.4982 67.9375 70.8993 68.2656 71.1909 68.7031C71.4878 69.1406 71.6362 69.6875 71.6362 70.3438V73.9609C71.6362 74.4245 71.6649 74.8047 71.7222 75.1016C71.7795 75.3932 71.8628 75.6484 71.9722 75.8672V76H69.6987C69.5894 75.7708 69.506 75.4844 69.4487 75.1406C69.3967 74.7917 69.3706 74.4427 69.3706 74.0938ZM69.6675 70.8516L69.6831 72.125H68.4253C68.1284 72.125 67.8706 72.1589 67.6519 72.2266C67.4331 72.2943 67.2534 72.3906 67.1128 72.5156C66.9722 72.6354 66.868 72.776 66.8003 72.9375C66.7378 73.099 66.7066 73.276 66.7066 73.4688C66.7066 73.6615 66.7508 73.8359 66.8394 73.9922C66.9279 74.1432 67.0555 74.263 67.2222 74.3516C67.3889 74.4349 67.5842 74.4766 67.8081 74.4766C68.1467 74.4766 68.4409 74.4089 68.6909 74.2734C68.9409 74.138 69.1336 73.9714 69.2691 73.7734C69.4097 73.5755 69.4826 73.388 69.4878 73.2109L70.0816 74.1641C69.9982 74.3776 69.8836 74.599 69.7378 74.8281C69.5972 75.0573 69.4175 75.2734 69.1987 75.4766C68.98 75.6745 68.717 75.8385 68.4097 75.9688C68.1024 76.0938 67.7378 76.1562 67.3159 76.1562C66.7795 76.1562 66.2925 76.0495 65.855 75.8359C65.4227 75.6172 65.079 75.3177 64.8237 74.9375C64.5737 74.5521 64.4487 74.1146 64.4487 73.625C64.4487 73.1823 64.5321 72.7891 64.6987 72.4453C64.8654 72.1016 65.1102 71.8125 65.4331 71.5781C65.7612 71.3385 66.1701 71.1589 66.6597 71.0391C67.1493 70.9141 67.717 70.8516 68.3628 70.8516H69.6675ZM77.4212 76.1562C76.765 76.1562 76.1765 76.0521 75.6556 75.8438C75.1348 75.6302 74.6921 75.3359 74.3275 74.9609C73.9681 74.5859 73.6921 74.151 73.4994 73.6562C73.3067 73.1562 73.2103 72.625 73.2103 72.0625V71.75C73.2103 71.1094 73.3015 70.5234 73.4837 69.9922C73.666 69.4609 73.9265 69 74.265 68.6094C74.6087 68.2188 75.0254 67.9193 75.515 67.7109C76.0046 67.4974 76.5567 67.3906 77.1712 67.3906C77.7702 67.3906 78.3015 67.4896 78.765 67.6875C79.2285 67.8854 79.6166 68.1667 79.9291 68.5312C80.2468 68.8958 80.4864 69.3333 80.6478 69.8438C80.8093 70.349 80.89 70.9115 80.89 71.5312V72.4688H74.1712V70.9688H78.6791V70.7969C78.6791 70.4844 78.6218 70.2057 78.5072 69.9609C78.3978 69.7109 78.2311 69.513 78.0072 69.3672C77.7832 69.2214 77.4968 69.1484 77.1478 69.1484C76.8509 69.1484 76.5957 69.2135 76.3822 69.3438C76.1686 69.474 75.9942 69.6562 75.8587 69.8906C75.7285 70.125 75.6296 70.401 75.5619 70.7188C75.4994 71.0312 75.4681 71.375 75.4681 71.75V72.0625C75.4681 72.401 75.515 72.7135 75.6087 73C75.7077 73.2865 75.8457 73.5339 76.0228 73.7422C76.2051 73.9505 76.4239 74.112 76.6791 74.2266C76.9395 74.3411 77.2337 74.3984 77.5619 74.3984C77.9681 74.3984 78.3457 74.3203 78.6947 74.1641C79.0489 74.0026 79.3535 73.7604 79.6087 73.4375L80.7025 74.625C80.5254 74.8802 80.2832 75.125 79.9759 75.3594C79.6739 75.5938 79.3093 75.7865 78.8822 75.9375C78.4551 76.0833 77.9681 76.1562 77.4212 76.1562ZM86.5422 67.5469V76H84.2844V67.5469H86.5422ZM89.2609 67.5469V69.2891H81.6047V67.5469H89.2609ZM93.5147 74.3984C93.7907 74.3984 94.0355 74.3464 94.2491 74.2422C94.4626 74.1328 94.6293 73.9818 94.7491 73.7891C94.8741 73.5911 94.9392 73.3594 94.9444 73.0938H97.0616C97.0564 73.6875 96.8975 74.2161 96.585 74.6797C96.2725 75.138 95.8532 75.5 95.3272 75.7656C94.8011 76.026 94.2126 76.1562 93.5616 76.1562C92.9053 76.1562 92.3324 76.0469 91.8428 75.8281C91.3584 75.6094 90.9548 75.3073 90.6319 74.9219C90.309 74.5312 90.0668 74.0781 89.9053 73.5625C89.7439 73.0417 89.6631 72.4844 89.6631 71.8906V71.6641C89.6631 71.0651 89.7439 70.5078 89.9053 69.9922C90.0668 69.4714 90.309 69.0182 90.6319 68.6328C90.9548 68.2422 91.3584 67.9375 91.8428 67.7188C92.3272 67.5 92.8949 67.3906 93.5459 67.3906C94.2386 67.3906 94.8454 67.5234 95.3662 67.7891C95.8923 68.0547 96.3037 68.4349 96.6006 68.9297C96.9027 69.4193 97.0564 70 97.0616 70.6719H94.9444C94.9392 70.3906 94.8793 70.1354 94.7647 69.9062C94.6553 69.6771 94.4939 69.4948 94.2803 69.3594C94.072 69.2188 93.8142 69.1484 93.5069 69.1484C93.1787 69.1484 92.9105 69.2188 92.7022 69.3594C92.4939 69.4948 92.3324 69.6823 92.2178 69.9219C92.1032 70.1562 92.0225 70.4245 91.9756 70.7266C91.934 71.0234 91.9131 71.3359 91.9131 71.6641V71.8906C91.9131 72.2188 91.934 72.5339 91.9756 72.8359C92.0173 73.138 92.0954 73.4062 92.21 73.6406C92.3298 73.875 92.4939 74.0599 92.7022 74.1953C92.9105 74.3307 93.1814 74.3984 93.5147 74.3984ZM100.347 71.7812H102.628L100.276 76H98.0028L100.347 71.7812ZM101.862 67.5469H105.573V76H103.323V69.2891H101.862C101.555 69.2891 101.3 69.3464 101.097 69.4609C100.893 69.5703 100.742 69.7135 100.643 69.8906C100.55 70.0625 100.503 70.2396 100.503 70.4219C100.503 70.599 100.55 70.7708 100.643 70.9375C100.737 71.1042 100.883 71.2422 101.081 71.3516C101.279 71.4609 101.526 71.5156 101.823 71.5156H104.159V73.0469H101.823C101.266 73.0469 100.766 72.9792 100.323 72.8438C99.8856 72.7083 99.5106 72.5208 99.1981 72.2812C98.8908 72.0365 98.6539 71.7526 98.4872 71.4297C98.3257 71.1016 98.245 70.7422 98.245 70.3516C98.245 69.9453 98.3283 69.5729 98.495 69.2344C98.6617 68.8958 98.9013 68.599 99.2138 68.3438C99.5263 68.0885 99.9039 67.8932 100.347 67.7578C100.794 67.6172 101.3 67.5469 101.862 67.5469ZM115.276 74.3984C115.552 74.3984 115.797 74.3464 116.01 74.2422C116.224 74.1328 116.391 73.9818 116.51 73.7891C116.635 73.5911 116.7 73.3594 116.706 73.0938H118.823C118.818 73.6875 118.659 74.2161 118.346 74.6797C118.034 75.138 117.614 75.5 117.088 75.7656C116.562 76.026 115.974 76.1562 115.323 76.1562C114.667 76.1562 114.094 76.0469 113.604 75.8281C113.12 75.6094 112.716 75.3073 112.393 74.9219C112.07 74.5312 111.828 74.0781 111.667 73.5625C111.505 73.0417 111.424 72.4844 111.424 71.8906V71.6641C111.424 71.0651 111.505 70.5078 111.667 69.9922C111.828 69.4714 112.07 69.0182 112.393 68.6328C112.716 68.2422 113.12 67.9375 113.604 67.7188C114.088 67.5 114.656 67.3906 115.307 67.3906C116 67.3906 116.607 67.5234 117.128 67.7891C117.654 68.0547 118.065 68.4349 118.362 68.9297C118.664 69.4193 118.818 70 118.823 70.6719H116.706C116.7 70.3906 116.641 70.1354 116.526 69.9062C116.417 69.6771 116.255 69.4948 116.042 69.3594C115.833 69.2188 115.575 69.1484 115.268 69.1484C114.94 69.1484 114.672 69.2188 114.463 69.3594C114.255 69.4948 114.094 69.6823 113.979 69.9219C113.864 70.1562 113.784 70.4245 113.737 70.7266C113.695 71.0234 113.674 71.3359 113.674 71.6641V71.8906C113.674 72.2188 113.695 72.5339 113.737 72.8359C113.779 73.138 113.857 73.4062 113.971 73.6406C114.091 73.875 114.255 74.0599 114.463 74.1953C114.672 74.3307 114.943 74.3984 115.276 74.3984ZM130.221 70.9609V72.7109H125.924V70.9609H130.221ZM126.674 67.5469V76H124.424V67.5469H126.674ZM131.744 67.5469V76H129.487V67.5469H131.744ZM137.545 76.1562C136.889 76.1562 136.3 76.0521 135.779 75.8438C135.259 75.6302 134.816 75.3359 134.451 74.9609C134.092 74.5859 133.816 74.151 133.623 73.6562C133.43 73.1562 133.334 72.625 133.334 72.0625V71.75C133.334 71.1094 133.425 70.5234 133.607 69.9922C133.79 69.4609 134.05 69 134.389 68.6094C134.732 68.2188 135.149 67.9193 135.639 67.7109C136.128 67.4974 136.68 67.3906 137.295 67.3906C137.894 67.3906 138.425 67.4896 138.889 67.6875C139.352 67.8854 139.74 68.1667 140.053 68.5312C140.371 68.8958 140.61 69.3333 140.772 69.8438C140.933 70.349 141.014 70.9115 141.014 71.5312V72.4688H134.295V70.9688H138.803V70.7969C138.803 70.4844 138.746 70.2057 138.631 69.9609C138.522 69.7109 138.355 69.513 138.131 69.3672C137.907 69.2214 137.621 69.1484 137.272 69.1484C136.975 69.1484 136.719 69.2135 136.506 69.3438C136.292 69.474 136.118 69.6562 135.982 69.8906C135.852 70.125 135.753 70.401 135.686 70.7188C135.623 71.0312 135.592 71.375 135.592 71.75V72.0625C135.592 72.401 135.639 72.7135 135.732 73C135.831 73.2865 135.969 73.5339 136.147 73.7422C136.329 73.9505 136.548 74.112 136.803 74.2266C137.063 74.3411 137.357 74.3984 137.686 74.3984C138.092 74.3984 138.469 74.3203 138.818 74.1641C139.173 74.0026 139.477 73.7604 139.732 73.4375L140.826 74.625C140.649 74.8802 140.407 75.125 140.1 75.3594C139.798 75.5938 139.433 75.7865 139.006 75.9375C138.579 76.0833 138.092 76.1562 137.545 76.1562ZM144.697 72.8594L147.533 67.5469H149.783V76H147.533V70.6797L144.697 76H142.447V67.5469H144.697V72.8594ZM147.275 64.1484H148.877C148.877 64.5964 148.765 64.9948 148.541 65.3438C148.322 65.6875 148.01 65.9583 147.603 66.1562C147.197 66.349 146.718 66.4453 146.166 66.4453C145.327 66.4453 144.663 66.2318 144.174 65.8047C143.689 65.3776 143.447 64.8255 143.447 64.1484H145.041C145.041 64.4193 145.124 64.6615 145.291 64.875C145.463 65.0885 145.754 65.1953 146.166 65.1953C146.572 65.1953 146.859 65.0885 147.025 64.875C147.192 64.6615 147.275 64.4193 147.275 64.1484ZM153.927 69.1719V79.25H151.677V67.5469H153.763L153.927 69.1719ZM159.279 71.6797V71.8438C159.279 72.4583 159.206 73.0286 159.06 73.5547C158.92 74.0807 158.711 74.5391 158.435 74.9297C158.159 75.3151 157.816 75.6172 157.404 75.8359C156.998 76.0495 156.529 76.1562 155.998 76.1562C155.482 76.1562 155.034 76.0521 154.654 75.8438C154.274 75.6354 153.954 75.3438 153.693 74.9688C153.438 74.5885 153.232 74.1484 153.076 73.6484C152.92 73.1484 152.8 72.612 152.717 72.0391V71.6094C152.8 70.9948 152.92 70.4323 153.076 69.9219C153.232 69.4062 153.438 68.9609 153.693 68.5859C153.954 68.2057 154.271 67.9115 154.646 67.7031C155.026 67.4948 155.472 67.3906 155.982 67.3906C156.519 67.3906 156.99 67.4922 157.396 67.6953C157.808 67.8984 158.151 68.1901 158.427 68.5703C158.709 68.9505 158.92 69.4036 159.06 69.9297C159.206 70.4557 159.279 71.0391 159.279 71.6797ZM157.021 71.8438V71.6797C157.021 71.3203 156.99 70.9896 156.927 70.6875C156.87 70.3802 156.776 70.112 156.646 69.8828C156.521 69.6536 156.355 69.4766 156.146 69.3516C155.943 69.2214 155.696 69.1562 155.404 69.1562C155.097 69.1562 154.834 69.2057 154.615 69.3047C154.401 69.4036 154.227 69.5469 154.092 69.7344C153.956 69.9219 153.855 70.1458 153.787 70.4062C153.719 70.6667 153.677 70.9609 153.662 71.2891V72.375C153.688 72.7604 153.761 73.1068 153.881 73.4141C154 73.7161 154.185 73.9557 154.435 74.1328C154.685 74.3099 155.013 74.3984 155.42 74.3984C155.717 74.3984 155.967 74.3333 156.17 74.2031C156.373 74.0677 156.537 73.8828 156.662 73.6484C156.792 73.4141 156.883 73.1432 156.935 72.8359C156.993 72.5286 157.021 72.1979 157.021 71.8438ZM160.478 71.8594V71.6953C160.478 71.0755 160.567 70.5052 160.744 69.9844C160.921 69.4583 161.179 69.0026 161.517 68.6172C161.856 68.2318 162.272 67.9323 162.767 67.7188C163.262 67.5 163.83 67.3906 164.47 67.3906C165.111 67.3906 165.681 67.5 166.181 67.7188C166.681 67.9323 167.101 68.2318 167.439 68.6172C167.783 69.0026 168.043 69.4583 168.22 69.9844C168.397 70.5052 168.486 71.0755 168.486 71.6953V71.8594C168.486 72.474 168.397 73.0443 168.22 73.5703C168.043 74.0911 167.783 74.5469 167.439 74.9375C167.101 75.3229 166.684 75.6224 166.189 75.8359C165.694 76.0495 165.127 76.1562 164.486 76.1562C163.845 76.1562 163.275 76.0495 162.775 75.8359C162.28 75.6224 161.861 75.3229 161.517 74.9375C161.179 74.5469 160.921 74.0911 160.744 73.5703C160.567 73.0443 160.478 72.474 160.478 71.8594ZM162.728 71.6953V71.8594C162.728 72.2135 162.759 72.5443 162.822 72.8516C162.884 73.1589 162.983 73.4297 163.119 73.6641C163.259 73.8932 163.442 74.0729 163.666 74.2031C163.89 74.3333 164.163 74.3984 164.486 74.3984C164.798 74.3984 165.067 74.3333 165.291 74.2031C165.515 74.0729 165.694 73.8932 165.83 73.6641C165.965 73.4297 166.064 73.1589 166.127 72.8516C166.194 72.5443 166.228 72.2135 166.228 71.8594V71.6953C166.228 71.3516 166.194 71.0286 166.127 70.7266C166.064 70.4193 165.962 70.1484 165.822 69.9141C165.686 69.6745 165.507 69.487 165.283 69.3516C165.059 69.2161 164.788 69.1484 164.47 69.1484C164.153 69.1484 163.882 69.2161 163.658 69.3516C163.439 69.487 163.259 69.6745 163.119 69.9141C162.983 70.1484 162.884 70.4193 162.822 70.7266C162.759 71.0286 162.728 71.3516 162.728 71.6953ZM173.521 74.3984C173.797 74.3984 174.042 74.3464 174.255 74.2422C174.469 74.1328 174.636 73.9818 174.755 73.7891C174.88 73.5911 174.945 73.3594 174.951 73.0938H177.068C177.063 73.6875 176.904 74.2161 176.591 74.6797C176.279 75.138 175.859 75.5 175.333 75.7656C174.807 76.026 174.219 76.1562 173.568 76.1562C172.912 76.1562 172.339 76.0469 171.849 75.8281C171.365 75.6094 170.961 75.3073 170.638 74.9219C170.315 74.5312 170.073 74.0781 169.912 73.5625C169.75 73.0417 169.669 72.4844 169.669 71.8906V71.6641C169.669 71.0651 169.75 70.5078 169.912 69.9922C170.073 69.4714 170.315 69.0182 170.638 68.6328C170.961 68.2422 171.365 67.9375 171.849 67.7188C172.333 67.5 172.901 67.3906 173.552 67.3906C174.245 67.3906 174.852 67.5234 175.372 67.7891C175.899 68.0547 176.31 68.4349 176.607 68.9297C176.909 69.4193 177.063 70 177.068 70.6719H174.951C174.945 70.3906 174.886 70.1354 174.771 69.9062C174.662 69.6771 174.5 69.4948 174.287 69.3594C174.078 69.2188 173.82 69.1484 173.513 69.1484C173.185 69.1484 172.917 69.2188 172.708 69.3594C172.5 69.4948 172.339 69.6823 172.224 69.9219C172.109 70.1562 172.029 70.4245 171.982 70.7266C171.94 71.0234 171.919 71.3359 171.919 71.6641V71.8906C171.919 72.2188 171.94 72.5339 171.982 72.8359C172.024 73.138 172.102 73.4062 172.216 73.6406C172.336 73.875 172.5 74.0599 172.708 74.1953C172.917 74.3307 173.188 74.3984 173.521 74.3984ZM182.423 76.1562C181.767 76.1562 181.178 76.0521 180.658 75.8438C180.137 75.6302 179.694 75.3359 179.329 74.9609C178.97 74.5859 178.694 74.151 178.501 73.6562C178.309 73.1562 178.212 72.625 178.212 72.0625V71.75C178.212 71.1094 178.303 70.5234 178.486 69.9922C178.668 69.4609 178.928 69 179.267 68.6094C179.611 68.2188 180.027 67.9193 180.517 67.7109C181.006 67.4974 181.559 67.3906 182.173 67.3906C182.772 67.3906 183.303 67.4896 183.767 67.6875C184.23 67.8854 184.618 68.1667 184.931 68.5312C185.249 68.8958 185.488 69.3333 185.65 69.8438C185.811 70.349 185.892 70.9115 185.892 71.5312V72.4688H179.173V70.9688H183.681V70.7969C183.681 70.4844 183.624 70.2057 183.509 69.9609C183.4 69.7109 183.233 69.513 183.009 69.3672C182.785 69.2214 182.499 69.1484 182.15 69.1484C181.853 69.1484 181.598 69.2135 181.384 69.3438C181.171 69.474 180.996 69.6562 180.861 69.8906C180.73 70.125 180.631 70.401 180.564 70.7188C180.501 71.0312 180.47 71.375 180.47 71.75V72.0625C180.47 72.401 180.517 72.7135 180.611 73C180.71 73.2865 180.848 73.5339 181.025 73.7422C181.207 73.9505 181.426 74.112 181.681 74.2266C181.941 74.3411 182.236 74.3984 182.564 74.3984C182.97 74.3984 183.348 74.3203 183.697 74.1641C184.051 74.0026 184.355 73.7604 184.611 73.4375L185.704 74.625C185.527 74.8802 185.285 75.125 184.978 75.3594C184.676 75.5938 184.311 75.7865 183.884 75.9375C183.457 76.0833 182.97 76.1562 182.423 76.1562ZM191.544 67.5469V76H189.286V67.5469H191.544ZM194.263 67.5469V69.2891H186.607V67.5469H194.263ZM197.126 70.0547H199.579C200.35 70.0547 201.006 70.1823 201.548 70.4375C202.095 70.6875 202.511 71.0365 202.798 71.4844C203.089 71.9323 203.235 72.4505 203.235 73.0391C203.235 73.4661 203.152 73.862 202.985 74.2266C202.824 74.5859 202.587 74.8984 202.274 75.1641C201.962 75.4297 201.579 75.6354 201.126 75.7812C200.673 75.9271 200.157 76 199.579 76H195.72V67.5469H197.977V74.25H199.579C199.918 74.25 200.188 74.1953 200.392 74.0859C200.6 73.9714 200.751 73.8229 200.845 73.6406C200.944 73.4583 200.993 73.2604 200.993 73.0469C200.993 72.8229 200.944 72.6198 200.845 72.4375C200.751 72.25 200.6 72.099 200.392 71.9844C200.188 71.8698 199.918 71.8125 199.579 71.8125H197.126V70.0547ZM209.77 70.8203V72.5859H205.208V70.8203H209.77ZM207.106 67.5469V76H204.848V67.5469H207.106ZM208.247 71.8594V71.6953C208.247 71.0755 208.335 70.5052 208.512 69.9844C208.69 69.4583 208.947 69.0026 209.286 68.6172C209.63 68.2318 210.049 67.9323 210.544 67.7188C211.039 67.5 211.604 67.3906 212.239 67.3906C212.885 67.3906 213.455 67.5 213.95 67.7188C214.45 67.9323 214.872 68.2318 215.216 68.6172C215.559 69.0026 215.817 69.4583 215.989 69.9844C216.166 70.5052 216.255 71.0755 216.255 71.6953V71.8594C216.255 72.474 216.166 73.0443 215.989 73.5703C215.817 74.0911 215.559 74.5469 215.216 74.9375C214.877 75.3229 214.458 75.6224 213.958 75.8359C213.463 76.0495 212.895 76.1562 212.255 76.1562C211.614 76.1562 211.046 76.0495 210.552 75.8359C210.057 75.6224 209.637 75.3229 209.294 74.9375C208.95 74.5469 208.69 74.0911 208.512 73.5703C208.335 73.0443 208.247 72.474 208.247 71.8594ZM210.497 71.6953V71.8594C210.497 72.2135 210.528 72.5443 210.591 72.8516C210.658 73.1589 210.76 73.4297 210.895 73.6641C211.036 73.8932 211.218 74.0729 211.442 74.2031C211.666 74.3333 211.937 74.3984 212.255 74.3984C212.572 74.3984 212.841 74.3333 213.059 74.2031C213.283 74.0729 213.463 73.8932 213.598 73.6641C213.739 73.4297 213.841 73.1589 213.903 72.8516C213.971 72.5443 214.005 72.2135 214.005 71.8594V71.6953C214.005 71.3516 213.971 71.0286 213.903 70.7266C213.841 70.4193 213.739 70.1484 213.598 69.9141C213.463 69.6745 213.283 69.487 213.059 69.3516C212.835 69.2161 212.562 69.1484 212.239 69.1484C211.927 69.1484 211.658 69.2161 211.434 69.3516C211.216 69.487 211.036 69.6745 210.895 69.9141C210.76 70.1484 210.658 70.4193 210.591 70.7266C210.528 71.0286 210.497 71.3516 210.497 71.6953ZM217.923 74.9141C217.923 74.5807 218.037 74.3021 218.266 74.0781C218.501 73.8542 218.811 73.7422 219.196 73.7422C219.581 73.7422 219.889 73.8542 220.118 74.0781C220.352 74.3021 220.469 74.5807 220.469 74.9141C220.469 75.2474 220.352 75.526 220.118 75.75C219.889 75.974 219.581 76.0859 219.196 76.0859C218.811 76.0859 218.501 75.974 218.266 75.75C218.037 75.526 217.923 75.2474 217.923 74.9141Z" fill="#000008"/>
<defs>
<linearGradient id="paint0_linear_385_2349" x1="269" y1="209.701" x2="391.737" y2="309.065" gradientUnits="userSpaceOnUse">
<stop stop-color="#005BD5"/>
<stop offset="1" stop-color="#7B00F7" stop-opacity="0"/>
</linearGradient>
<linearGradient id="paint1_linear_385_2349" x1="269" y1="209.701" x2="391.737" y2="309.065" gradientUnits="userSpaceOnUse">
<stop stop-color="#005BD5"/>
<stop offset="1" stop-color="#7B00F7" stop-opacity="0"/>
</linearGradient>
<linearGradient id="paint2_linear_385_2349" x1="269" y1="209.701" x2="391.737" y2="309.065" gradientUnits="userSpaceOnUse">
<stop stop-color="#005BD5"/>
<stop offset="1" stop-color="#7B00F7" stop-opacity="0"/>
</linearGradient>
<linearGradient id="paint3_linear_385_2349" x1="269" y1="209.701" x2="391.737" y2="309.065" gradientUnits="userSpaceOnUse">
<stop stop-color="#005BD5"/>
<stop offset="1" stop-color="#7B00F7" stop-opacity="0"/>
</linearGradient>
<linearGradient id="paint4_linear_385_2349" x1="269" y1="209.701" x2="391.737" y2="309.065" gradientUnits="userSpaceOnUse">
<stop stop-color="#005BD5"/>
<stop offset="1" stop-color="#7B00F7" stop-opacity="0"/>
</linearGradient>
<linearGradient id="paint5_linear_385_2349" x1="269" y1="209.701" x2="391.737" y2="309.065" gradientUnits="userSpaceOnUse">
<stop stop-color="#005BD5"/>
<stop offset="1" stop-color="#7B00F7" stop-opacity="0"/>
</linearGradient>
<linearGradient id="paint6_linear_385_2349" x1="269" y1="209.701" x2="391.737" y2="309.065" gradientUnits="userSpaceOnUse">
<stop stop-color="#005BD5"/>
<stop offset="1" stop-color="#7B00F7" stop-opacity="0"/>
</linearGradient>
<linearGradient id="paint7_linear_385_2349" x1="350.694" y1="-11.0368" x2="372.979" y2="213.864" gradientUnits="userSpaceOnUse">
<stop stop-color="#589FFF"/>
<stop offset="1" stop-color="white" stop-opacity="0"/>
</linearGradient>
<linearGradient id="paint8_linear_385_2349" x1="350.694" y1="-11.0368" x2="372.979" y2="213.864" gradientUnits="userSpaceOnUse">
<stop stop-color="#589FFF"/>
<stop offset="1" stop-color="white" stop-opacity="0"/>
</linearGradient>
<linearGradient id="paint9_linear_385_2349" x1="292.694" y1="120.617" x2="422.666" y2="192.173" gradientUnits="userSpaceOnUse">
<stop stop-color="#1264D1"/>
<stop offset="1" stop-color="#3D007A" stop-opacity="0"/>
</linearGradient>
<linearGradient id="paint10_linear_385_2349" x1="292.694" y1="120.617" x2="422.666" y2="192.173" gradientUnits="userSpaceOnUse">
<stop stop-color="#1264D1"/>
<stop offset="1" stop-color="#3D007A" stop-opacity="0"/>
</linearGradient>
<linearGradient id="paint11_linear_385_2349" x1="292.694" y1="120.617" x2="422.666" y2="192.173" gradientUnits="userSpaceOnUse">
<stop stop-color="#1264D1"/>
<stop offset="1" stop-color="#3D007A" stop-opacity="0"/>
</linearGradient>
</defs>
</svg>
