<svg width="114" height="440" viewBox="0 0 114 440" fill="none" xmlns="http://www.w3.org/2000/svg">
<path d="M53.275 439.046L37.216 439.046L37.216 437.827C36.9687 437.014 36.5447 436.272 35.944 435.601C35.308 434.894 34.46 434.258 33.4 433.693C32.34 433.128 31.015 432.615 29.425 432.156C27.835 431.697 25.9447 431.308 23.754 430.99C21.528 430.672 18.9663 430.407 16.069 430.195L1.07 429.029L1.07 409.048L37.216 409.048L37.216 404.225L53.275 404.225L53.275 410.479L44 410.956L44 431.997L53.275 432.527L53.275 439.046ZM37.216 428.87L37.216 417.899L7.801 417.899L7.801 421.874L17.023 422.351C20.0617 422.528 22.641 422.793 24.761 423.146C26.881 423.464 28.6477 423.853 30.061 424.312C31.439 424.736 32.5697 425.195 33.453 425.69C34.3363 426.185 35.0607 426.715 35.626 427.28C36.1913 427.81 36.7213 428.34 37.216 428.87ZM44.636 387.776C44.636 390.991 44.0707 393.535 42.94 395.408C41.8093 397.281 40.184 398.623 38.064 399.436C35.944 400.249 33.4177 400.655 30.485 400.655L14.532 400.655C11.564 400.655 9.03766 400.249 6.953 399.436C4.86833 398.623 3.27833 397.281 2.183 395.408C1.05233 393.535 0.486996 390.991 0.486996 387.776C0.486995 384.525 1.05233 381.964 2.183 380.091C3.27833 378.183 4.86833 376.823 6.95299 376.01C9.03766 375.197 11.564 374.791 14.532 374.791L30.485 374.791C33.4177 374.791 35.944 375.197 38.064 376.01C40.184 376.823 41.8093 378.183 42.94 380.091C44.0707 381.964 44.636 384.525 44.636 387.776ZM37.905 387.776C37.905 386.787 37.6577 386.062 37.163 385.603C36.6683 385.144 36.0323 384.843 35.255 384.702C34.4777 384.561 33.6827 384.49 32.87 384.49L12.2 384.49C11.352 384.49 10.557 384.561 9.815 384.702C9.03766 384.843 8.40166 385.144 7.90699 385.603C7.41233 386.062 7.16499 386.787 7.16499 387.776C7.16499 388.695 7.41233 389.384 7.90699 389.843C8.40166 390.302 9.03766 390.603 9.815 390.744C10.557 390.885 11.352 390.956 12.2 390.956L32.87 390.956C33.6827 390.956 34.4777 390.903 35.255 390.797C36.0323 390.656 36.6683 390.373 37.163 389.949C37.6577 389.49 37.905 388.765 37.905 387.776ZM44 369.017L1.06999 369.017L1.06999 343.312L44 343.312L44 352.64L7.85399 352.64L7.85399 359.689L44 359.689L44 369.017ZM44.636 324.631C44.636 327.847 44.0707 330.391 42.94 332.263C41.8093 334.136 40.184 335.479 38.064 336.291C35.944 337.104 33.4177 337.51 30.485 337.51L14.532 337.51C11.564 337.51 9.03766 337.104 6.95299 336.291C4.86833 335.479 3.27833 334.136 2.18299 332.263C1.05233 330.391 0.486993 327.847 0.486993 324.631C0.486993 321.381 1.05233 318.819 2.18299 316.946C3.27833 315.038 4.86833 313.678 6.95299 312.865C9.03766 312.053 11.564 311.646 14.532 311.646L30.485 311.646C33.4177 311.646 35.944 312.053 38.064 312.865C40.184 313.678 41.8093 315.038 42.94 316.946C44.0707 318.819 44.636 321.381 44.636 324.631ZM37.905 324.631C37.905 323.642 37.6577 322.918 37.163 322.458C36.6683 321.999 36.0323 321.699 35.255 321.557C34.4777 321.416 33.6827 321.345 32.87 321.345L12.2 321.345C11.352 321.345 10.557 321.416 9.81499 321.557C9.03766 321.699 8.40166 321.999 7.90699 322.458C7.41233 322.918 7.16499 323.642 7.16499 324.631C7.16499 325.55 7.41233 326.239 7.90699 326.698C8.40166 327.158 9.03766 327.458 9.81499 327.599C10.557 327.741 11.352 327.811 12.2 327.811L32.87 327.811C33.6827 327.811 34.4777 327.758 35.255 327.652C36.0323 327.511 36.6683 327.228 37.163 326.804C37.6577 326.345 37.905 325.621 37.905 324.631ZM44 308.682L37.322 308.682C37.322 307.48 37.2513 306.509 37.11 305.767C36.9333 305.025 36.5447 304.442 35.944 304.018C35.3433 303.594 34.4247 303.258 33.188 303.011C31.9513 302.763 30.2907 302.569 28.206 302.428C26.1213 302.251 23.4713 302.039 20.256 301.792L1.06999 300.414L1.06999 277.677L44 277.677L44 287.111L8.33099 287.111L8.33099 291.828L22.058 292.676C25.5913 292.923 28.6477 293.17 31.227 293.418C33.771 293.665 35.9087 294.071 37.64 294.637C39.3713 295.167 40.7317 295.979 41.721 297.075C42.675 298.135 43.3287 299.601 43.682 301.474C44.0353 303.346 44.1413 305.749 44 308.682ZM44 270.932L1.06999 270.932L1.06999 261.445L18.454 261.445L18.454 254.82L1.06999 254.82L1.06999 245.28L44 245.28L44 254.82L25.238 254.82L25.238 261.445L44 261.445L44 270.932ZM44 238.584L1.06999 238.584L1.06999 231.111L25.662 231.111L1.06999 220.14L1.06999 213.992L44 213.992L44 221.624L18.984 221.624L44 232.807L44 238.584ZM44 203.612L8.11899 203.612L8.11899 210.078L1.06999 210.078L1.06999 187.659L8.11899 187.659L8.11899 194.072L44 194.072L44 203.612ZM44 183.88L1.06999 183.88L1.06998 164.588L7.53599 164.588L7.53599 174.393L18.189 174.393L18.189 166.92L24.761 166.92L24.761 174.393L37.587 174.393L37.587 164.482L44 164.482L44 183.88ZM44 162.983L37.322 162.983C37.322 161.782 37.2513 160.81 37.11 160.068C36.9333 159.326 36.5447 158.743 35.944 158.319C35.3433 157.895 34.4247 157.56 33.188 157.312C31.9513 157.065 30.2907 156.871 28.206 156.729C26.1213 156.553 23.4713 156.341 20.256 156.093L1.06998 154.715L1.06998 131.978L44 131.978L44 141.412L8.33098 141.412L8.33099 146.129L22.058 146.977C25.5913 147.225 28.6477 147.472 31.227 147.719C33.771 147.967 35.9087 148.373 37.64 148.938C39.3713 149.468 40.7317 150.281 41.721 151.376C42.675 152.436 43.3287 153.903 43.682 155.775C44.0353 157.648 44.1413 160.051 44 162.983ZM44 125.234L1.06998 125.234L1.06998 115.747L19.196 115.747L19.196 113.627C19.196 110.942 19.6377 108.663 20.521 106.79C21.4043 104.918 22.7647 103.487 24.602 102.497C26.404 101.508 28.736 101.013 31.598 101.013C34.2127 101.013 36.3327 101.367 37.958 102.073C39.5833 102.745 40.8377 103.699 41.721 104.935C42.6043 106.172 43.205 107.621 43.523 109.281C43.841 110.907 44 112.656 44 114.528L44 125.234ZM37.799 115.747L37.799 114.475C37.799 113.274 37.5693 112.338 37.11 111.666C36.6507 110.96 35.944 110.465 34.99 110.182C34.036 109.864 32.8347 109.723 31.386 109.758C29.796 109.794 28.471 110.129 27.411 110.765C26.3157 111.366 25.768 112.638 25.768 114.581L25.768 115.747L37.799 115.747ZM44 95.784L1.06998 95.784L1.06998 86.297L18.454 86.297L18.454 79.672L1.06998 79.672L1.06998 70.132L44 70.132L44 79.672L25.238 79.672L25.238 86.297L44 86.297L44 95.784ZM44 63.4354L1.06998 63.4354L1.06998 53.9484L19.196 53.9484L19.196 51.8284C19.196 49.1077 19.6376 46.8111 20.521 44.9384C21.4043 43.0304 22.7646 41.5994 24.602 40.6454C26.404 39.6561 28.736 39.1614 31.598 39.1614C34.2126 39.1614 36.3326 39.5147 37.958 40.2214C39.5833 40.8927 40.8376 41.8467 41.721 43.0834C42.6043 44.3201 43.205 45.7511 43.523 47.3764C43.841 49.0017 44 50.7684 44 52.6764L44 63.4354ZM37.799 53.9484L37.799 52.6234C37.799 51.4221 37.5693 50.4857 37.11 49.8144C36.6506 49.1077 35.944 48.6131 34.99 48.3304C34.036 48.0124 32.8346 47.8711 31.386 47.9064C29.796 47.9417 28.471 48.2774 27.411 48.9134C26.3156 49.5494 25.768 50.8214 25.768 52.7294L25.768 53.9484L37.799 53.9484ZM44 35.5574L1.06998 35.5574L1.06998 26.0704L44 26.0704L44 35.5574ZM44 19.5485L1.06998 19.5485L1.06998 0.256514L7.53598 0.256514L7.53598 10.0615L18.189 10.0615L18.189 2.58851L24.761 2.58851L24.761 10.0615L37.587 10.0615L37.587 0.150512L44 0.150512L44 19.5485ZM105 436.82L62.07 436.82L62.07 422.404C62.07 419.825 62.5647 417.705 63.554 416.044C64.508 414.383 65.9213 413.147 67.794 412.334C69.6313 411.521 71.875 411.115 74.525 411.115C77.8463 411.115 80.3903 411.663 82.157 412.758C83.8883 413.853 85.0897 415.337 85.761 417.21C86.4323 419.083 86.768 421.185 86.768 423.517L86.768 427.333L105 427.333L105 436.82ZM80.143 427.333L80.143 424.153C80.143 422.987 79.931 422.104 79.507 421.503C79.083 420.902 78.447 420.514 77.599 420.337C76.751 420.125 75.6733 420.019 74.366 420.019C73.2707 420.019 72.3167 420.107 71.504 420.284C70.656 420.425 69.9847 420.796 69.49 421.397C68.9953 421.998 68.748 422.934 68.748 424.206L68.748 427.333L80.143 427.333ZM105 406.542L62.07 406.542L62.07 387.25L68.536 387.25L68.536 397.055L79.189 397.055L79.189 389.582L85.761 389.582L85.761 397.055L98.587 397.055L98.587 387.144L105 387.144L105 406.542ZM105.636 370.541C105.636 373.791 105.053 376.371 103.887 378.279C102.686 380.151 101.025 381.476 98.905 382.254C96.7497 383.031 94.2233 383.42 91.326 383.42L75.85 383.42C72.882 383.42 70.338 383.031 68.218 382.254C66.0627 381.476 64.402 380.151 63.236 378.279C62.07 376.371 61.487 373.791 61.487 370.541C61.487 367.361 62.017 364.887 63.077 363.121C64.1017 361.319 65.5503 360.047 67.423 359.305C69.2957 358.563 71.451 358.192 73.889 358.192L77.599 358.192L77.599 367.467L73.306 367.467C72.458 367.467 71.6453 367.52 70.868 367.626C70.0907 367.696 69.4547 367.944 68.96 368.368C68.43 368.792 68.165 369.516 68.165 370.541C68.165 371.53 68.43 372.272 68.96 372.767C69.49 373.226 70.1613 373.526 70.974 373.668C71.7513 373.774 72.5817 373.827 73.465 373.827L93.658 373.827C94.612 373.827 95.4953 373.756 96.308 373.615C97.0853 373.438 97.7213 373.12 98.216 372.661C98.6753 372.166 98.905 371.459 98.905 370.541C98.905 369.551 98.6577 368.845 98.163 368.421C97.633 367.997 96.9617 367.732 96.149 367.626C95.3363 367.52 94.506 367.467 93.658 367.467L89.153 367.467L89.153 358.192L92.863 358.192C95.301 358.192 97.4917 358.563 99.435 359.305C101.343 360.011 102.862 361.266 103.993 363.068C105.088 364.834 105.636 367.325 105.636 370.541ZM113.427 353.343L107.173 353.343C107.208 351.824 107.138 350.499 106.961 349.368C106.784 348.238 106.449 347.319 105.954 346.612C105.459 345.906 104.788 345.446 103.94 345.234C103.057 344.987 101.961 345.022 100.654 345.34L62.07 354.986L62.07 346.188L79.719 342.478L91.22 340.729L79.666 339.457L62.07 336.33L62.07 327.426L102.085 336.33C104.028 336.754 105.671 337.249 107.014 337.814C108.357 338.38 109.452 339.086 110.3 339.934C111.183 340.747 111.855 341.754 112.314 342.955C112.773 344.157 113.074 345.623 113.215 347.354C113.392 349.05 113.462 351.047 113.427 353.343ZM105 323.626L62.07 323.626L62.07 309.21C62.07 306.63 62.5647 304.51 63.554 302.85C64.508 301.189 65.9213 299.952 67.794 299.14C69.6313 298.327 71.875 297.921 74.525 297.921C77.8463 297.921 80.3903 298.468 82.157 299.564C83.8883 300.659 85.0897 302.143 85.761 304.016C86.4323 305.888 86.768 307.991 86.768 310.323L86.768 314.139L105 314.139L105 323.626ZM80.143 314.139L80.143 310.959C80.143 309.793 79.931 308.909 79.507 308.309C79.083 307.708 78.447 307.319 77.599 307.143C76.751 306.931 75.6733 306.825 74.366 306.825C73.2707 306.825 72.3167 306.913 71.504 307.09C70.656 307.231 69.9847 307.602 69.49 308.203C68.9953 308.803 68.748 309.74 68.748 311.012L68.748 314.139L80.143 314.139ZM105.636 281.051C105.636 284.302 105.053 286.881 103.887 288.789C102.686 290.662 101.025 291.987 98.905 292.764C96.7497 293.542 94.2233 293.93 91.326 293.93L75.85 293.93C72.882 293.93 70.338 293.542 68.218 292.764C66.0627 291.987 64.402 290.662 63.236 288.789C62.07 286.881 61.487 284.302 61.487 281.051C61.487 277.871 62.017 275.398 63.077 273.631C64.1017 271.829 65.5503 270.557 67.423 269.815C69.2957 269.073 71.451 268.702 73.889 268.702L77.599 268.702L77.599 277.977L73.306 277.977C72.458 277.977 71.6453 278.03 70.868 278.136C70.0907 278.207 69.4547 278.454 68.96 278.878C68.43 279.302 68.165 280.027 68.165 281.051C68.165 282.041 68.43 282.783 68.96 283.277C69.49 283.737 70.1613 284.037 70.974 284.178C71.7513 284.284 72.5817 284.337 73.465 284.337L93.658 284.337C94.612 284.337 95.4953 284.267 96.308 284.125C97.0853 283.949 97.7213 283.631 98.216 283.171C98.6753 282.677 98.905 281.97 98.905 281.051C98.905 280.062 98.6577 279.355 98.163 278.931C97.633 278.507 96.9617 278.242 96.149 278.136C95.3363 278.03 94.506 277.977 93.658 277.977L89.153 277.977L89.153 268.702L92.863 268.702C95.301 268.702 97.4917 269.073 99.435 269.815C101.343 270.522 102.862 271.776 103.993 273.578C105.088 275.345 105.636 277.836 105.636 281.051ZM105 263.324L62.07 263.324L62.07 253.837L80.196 253.837L80.196 251.717C80.196 248.996 80.6377 246.7 81.521 244.827C82.4043 242.919 83.7647 241.488 85.602 240.534C87.404 239.545 89.736 239.05 92.598 239.05C95.2127 239.05 97.3327 239.403 98.958 240.11C100.583 240.781 101.838 241.735 102.721 242.972C103.604 244.209 104.205 245.64 104.523 247.265C104.841 248.89 105 250.657 105 252.565L105 263.324ZM98.799 253.837L98.799 252.512C98.799 251.311 98.5693 250.374 98.11 249.703C97.6507 248.996 96.944 248.502 95.99 248.219C95.036 247.901 93.8347 247.76 92.386 247.795C90.796 247.83 89.471 248.166 88.411 248.802C87.3157 249.438 86.768 250.71 86.768 252.618L86.768 253.837L98.799 253.837ZM105 235.446L62.07 235.446L62.07 225.959L105 225.959L105 235.446Z" fill="white"/>
</svg>
