<svg width="54" height="698" viewBox="0 0 54 698" fill="none" xmlns="http://www.w3.org/2000/svg">
<path d="M44 697.293L1.07 697.293L1.07 687.806L18.454 687.806L18.454 681.181L1.07 681.181L1.07 671.641L44 671.641L44 681.181L25.238 681.181L25.238 687.806L44 687.806L44 697.293ZM44 667.17L1.06999 659.061L1.06999 648.249L44 640.246L44 648.991L34.937 650.422L34.937 656.729L44 658.213L44 667.17ZM29.266 655.881L29.266 651.323L12.518 653.602L29.266 655.881ZM44 635.912L1.06999 635.912L1.06999 610.207L44 610.207L44 619.535L7.85399 619.535L7.85399 626.584L44 626.584L44 635.912ZM44 603.822L1.06999 603.822L1.06999 589.406C1.06999 586.826 1.56466 584.706 2.55399 583.046C3.50799 581.385 4.92133 580.148 6.79399 579.336C8.63133 578.523 10.875 578.117 13.525 578.117C16.8463 578.117 19.3903 578.664 21.157 579.76C22.8883 580.855 24.0897 582.339 24.761 584.212C25.4323 586.084 25.768 588.187 25.768 590.519L25.768 594.335L44 594.335L44 603.822ZM19.143 594.335L19.143 591.155C19.143 589.989 18.931 589.105 18.507 588.505C18.083 587.904 17.447 587.515 16.599 587.339C15.751 587.127 14.6733 587.021 13.366 587.021C12.2707 587.021 11.3167 587.109 10.504 587.286C9.65599 587.427 8.98466 587.798 8.48999 588.399C7.99533 588.999 7.74799 589.936 7.74799 591.208L7.74799 594.335L19.143 594.335ZM44 576.49L1.06999 568.381L1.06999 557.569L44 549.566L44 558.311L34.937 559.742L34.937 566.049L44 567.533L44 576.49ZM29.266 565.201L29.266 560.643L12.518 562.922L29.266 565.201ZM44 545.232L1.06999 545.232L1.06999 534.049C1.06999 532.212 1.21132 530.48 1.49399 528.855C1.77666 527.194 2.32432 525.728 3.13699 524.456C3.91432 523.184 5.04499 522.195 6.52899 521.488C7.97766 520.746 9.90332 520.375 12.306 520.375C14.0373 520.375 15.5037 520.64 16.705 521.17C17.871 521.665 18.8073 522.389 19.514 523.343C20.2207 524.262 20.6977 525.375 20.945 526.682C21.157 525.021 21.7047 523.626 22.588 522.495C23.436 521.364 24.5843 520.516 26.033 519.951C27.4817 519.35 29.2307 519.05 31.28 519.05C33.506 519.05 35.4317 519.35 37.057 519.951C38.647 520.516 39.9543 521.347 40.979 522.442C42.0037 523.537 42.7633 524.898 43.258 526.523C43.7527 528.113 44 529.95 44 532.035L44 545.232ZM37.375 535.745L37.375 533.731C37.375 531.646 36.845 530.215 35.785 529.438C34.725 528.625 33.1703 528.219 31.121 528.219C29.4957 528.219 28.206 528.396 27.252 528.749C26.298 529.102 25.609 529.685 25.185 530.498C24.7257 531.311 24.496 532.406 24.496 533.784L24.496 535.745L37.375 535.745ZM18.242 535.745L18.242 533.89C18.242 532.441 18.03 531.346 17.606 530.604C17.1467 529.862 16.493 529.367 15.645 529.12C14.797 528.837 13.7723 528.696 12.571 528.696C11.4403 528.696 10.504 528.908 9.76199 529.332C8.98466 529.721 8.40166 530.321 8.01299 531.134C7.62432 531.911 7.42999 532.901 7.42999 534.102L7.42999 535.745L18.242 535.745ZM44 516.883L37.322 516.883C37.322 515.681 37.2513 514.71 37.11 513.968C36.9333 513.226 36.5447 512.643 35.944 512.219C35.3433 511.795 34.4247 511.459 33.188 511.212C31.9513 510.964 30.2907 510.77 28.206 510.629C26.1213 510.452 23.4713 510.24 20.256 509.993L1.06999 508.615L1.06999 485.878L44 485.878L44 495.312L8.33099 495.312L8.33099 500.029L22.058 500.877C25.5913 501.124 28.6477 501.371 31.227 501.619C33.771 501.866 35.9087 502.272 37.64 502.838C39.3713 503.368 40.7317 504.18 41.721 505.276C42.675 506.336 43.3287 507.802 43.682 509.675C44.0353 511.547 44.1413 513.95 44 516.883ZM44 479.292L1.06999 479.292L1.06999 460L7.53599 460L7.53599 469.805L18.189 469.805L18.189 462.332L24.761 462.332L24.761 469.805L37.587 469.805L37.587 459.894L44 459.894L44 479.292ZM44 455.428L1.06999 455.428L1.06999 445.941L18.454 445.941L18.454 439.316L1.06999 439.316L1.06998 429.776L44 429.776L44 439.316L25.238 439.316L25.238 445.941L44 445.941L44 455.428ZM44 423.08L1.06998 423.08L1.06998 415.607L25.662 415.607L1.06998 404.636L1.06998 398.488L44 398.488L44 406.12L18.984 406.12L44 417.303L44 423.08ZM44 394.627L24.92 386.465C23.9307 388.09 22.482 389.433 20.574 390.493C18.666 391.518 16.44 392.03 13.896 392.03C10.5747 392.03 7.99532 391.447 6.15798 390.281C4.28532 389.115 2.97798 387.454 2.23598 385.299C1.45865 383.108 1.06998 380.494 1.06998 377.455L1.06998 366.431L44 366.431L44 375.865L27.04 375.865L27.04 377.561C27.04 377.596 27.04 377.685 27.04 377.826C27.04 377.967 27.04 378.073 27.04 378.144L44 384.398L44 394.627ZM20.362 377.243L20.362 375.865L7.58898 375.865L7.58898 377.349C7.58898 379.292 8.13665 380.759 9.23198 381.748C10.292 382.702 11.8643 383.179 13.949 383.179C15.7863 383.179 17.3233 382.755 18.56 381.907C19.7613 381.059 20.362 379.504 20.362 377.243ZM53.275 348.501L37.216 348.501L37.216 347.282C36.9687 346.469 36.5447 345.727 35.944 345.056C35.308 344.349 34.46 343.713 33.4 343.148C32.34 342.582 31.015 342.07 29.425 341.611C27.835 341.151 25.9446 340.763 23.754 340.445C21.528 340.127 18.9663 339.862 16.069 339.65L1.06998 338.484L1.06998 318.503L37.216 318.503L37.216 313.68L53.275 313.68L53.275 319.934L44 320.411L44 341.452L53.275 341.982L53.275 348.501ZM37.216 338.325L37.216 327.354L7.80098 327.354L7.80098 331.329L17.023 331.806C20.0616 331.982 22.641 332.247 24.761 332.601C26.881 332.919 28.6476 333.307 30.061 333.767C31.439 334.191 32.5696 334.65 33.453 335.145C34.3363 335.639 35.0606 336.169 35.626 336.735C36.1913 337.265 36.7213 337.795 37.216 338.325ZM44 309.527L1.06998 309.527L1.06998 290.235L7.53598 290.235L7.53598 300.04L18.189 300.04L18.189 292.567L24.761 292.567L24.761 300.04L37.587 300.04L37.587 290.129L44 290.129L44 309.527ZM44 288.472L24.92 280.31C23.9306 281.935 22.482 283.278 20.574 284.338C18.666 285.362 16.44 285.875 13.896 285.875C10.5746 285.875 7.99531 285.292 6.15798 284.126C4.28531 282.96 2.97798 281.299 2.23598 279.144C1.45864 276.953 1.06998 274.338 1.06998 271.3L1.06998 260.276L44 260.276L44 269.71L27.04 269.71L27.04 271.406C27.04 271.441 27.04 271.529 27.04 271.671C27.04 271.812 27.04 271.918 27.04 271.989L44 278.243L44 288.472ZM20.362 271.088L20.362 269.71L7.58898 269.71L7.58898 271.194C7.58898 273.137 8.13665 274.603 9.23198 275.593C10.292 276.547 11.8643 277.024 13.949 277.024C15.7863 277.024 17.3233 276.6 18.56 275.752C19.7613 274.904 20.362 273.349 20.362 271.088ZM44 249.811L8.11898 249.811L8.11898 256.277L1.06998 256.277L1.06998 233.858L8.11898 233.858L8.11898 240.271L44 240.271L44 249.811ZM44 230.079L1.06998 230.079L1.06997 210.787L7.53598 210.787L7.53598 220.592L18.189 220.592L18.189 213.119L24.761 213.119L24.761 220.592L37.587 220.592L37.587 210.681L44 210.681L44 230.079ZM44 209.182L37.322 209.182C37.322 207.981 37.2513 207.009 37.11 206.267C36.9333 205.525 36.5446 204.942 35.944 204.518C35.3433 204.094 34.4246 203.759 33.188 203.511C31.9513 203.264 30.2906 203.07 28.206 202.928C26.1213 202.752 23.4713 202.54 20.256 202.292L1.06997 200.914L1.06997 178.177L44 178.177L44 187.611L8.33098 187.611L8.33098 192.328L22.058 193.176C25.5913 193.424 28.6476 193.671 31.227 193.918C33.771 194.166 35.9086 194.572 37.64 195.137C39.3713 195.667 40.7316 196.48 41.721 197.575C42.675 198.635 43.3286 200.102 43.682 201.974C44.0353 203.847 44.1413 206.25 44 209.182ZM44 171.433L1.06997 171.433L1.06997 161.946L19.196 161.946L19.196 159.826C19.196 157.141 19.6376 154.862 20.521 152.989C21.4043 151.117 22.7646 149.686 24.602 148.696C26.404 147.707 28.736 147.212 31.598 147.212C34.2126 147.212 36.3326 147.566 37.958 148.272C39.5833 148.944 40.8376 149.898 41.721 151.134C42.6043 152.371 43.205 153.82 43.523 155.48C43.841 157.106 44 158.855 44 160.727L44 171.433ZM37.799 161.946L37.799 160.674C37.799 159.473 37.5693 158.537 37.11 157.865C36.6506 157.159 35.944 156.664 34.99 156.381C34.036 156.063 32.8346 155.922 31.386 155.957C29.796 155.993 28.471 156.328 27.411 156.964C26.3156 157.565 25.768 158.837 25.768 160.78L25.768 161.946L37.799 161.946ZM44 141.983L1.06997 141.983L1.06997 132.496L18.454 132.496L18.454 125.871L1.06997 125.871L1.06997 116.331L44 116.331L44 125.871L25.238 125.871L25.238 132.496L44 132.496L44 141.983ZM44.636 97.4974C44.636 100.713 44.0706 103.257 42.94 105.129C41.8093 107.002 40.184 108.345 38.064 109.157C35.944 109.97 33.4176 110.376 30.485 110.376L14.532 110.376C11.564 110.376 9.03764 109.97 6.95297 109.157C4.86831 108.345 3.27831 107.002 2.18297 105.129C1.0523 103.257 0.486971 100.713 0.486971 97.4974C0.486971 94.2467 1.0523 91.6851 2.18297 89.8124C3.2783 87.9044 4.8683 86.5441 6.95297 85.7314C9.03764 84.9187 11.564 84.5124 14.532 84.5124L30.485 84.5124C33.4176 84.5124 35.944 84.9187 38.064 85.7314C40.184 86.5441 41.8093 87.9044 42.94 89.8124C44.0706 91.6851 44.636 94.2467 44.636 97.4974ZM37.905 97.4974C37.905 96.5081 37.6576 95.7837 37.163 95.3244C36.6683 94.8651 36.0323 94.5647 35.255 94.4234C34.4776 94.2821 33.6826 94.2114 32.87 94.2114L12.2 94.2114C11.352 94.2114 10.557 94.2821 9.81497 94.4234C9.03764 94.5647 8.40164 94.8651 7.90697 95.3244C7.4123 95.7837 7.16497 96.5081 7.16497 97.4974C7.16497 98.4161 7.4123 99.1051 7.90697 99.5644C8.40164 100.024 9.03764 100.324 9.81497 100.465C10.557 100.607 11.352 100.677 12.2 100.677L32.87 100.677C33.6826 100.677 34.4776 100.624 35.255 100.518C36.0323 100.377 36.6683 100.094 37.163 99.6704C37.6576 99.2111 37.905 98.4867 37.905 97.4974ZM44.636 66.4427C44.636 69.6934 44.053 72.2727 42.887 74.1807C41.6856 76.0534 40.025 77.3784 37.905 78.1557C35.7496 78.933 33.2233 79.3217 30.326 79.3217L14.85 79.3217C11.882 79.3217 9.33797 78.933 7.21797 78.1557C5.06264 77.3784 3.40197 76.0534 2.23597 74.1807C1.06997 72.2727 0.48697 69.6934 0.48697 66.4427C0.486969 63.2627 1.01697 60.7894 2.07697 59.0227C3.10164 57.2207 4.5503 55.9487 6.42297 55.2067C8.29564 54.4647 10.451 54.0937 12.889 54.0937L16.599 54.0937L16.599 63.3687L12.306 63.3687C11.458 63.3687 10.6453 63.4217 9.86797 63.5277C9.09064 63.5984 8.45464 63.8457 7.95997 64.2697C7.42997 64.6937 7.16497 65.418 7.16497 66.4427C7.16497 67.432 7.42997 68.174 7.95997 68.6687C8.48997 69.128 9.1613 69.4284 9.97397 69.5697C10.7513 69.6757 11.5816 69.7287 12.465 69.7287L32.658 69.7287C33.612 69.7287 34.4953 69.658 35.308 69.5167C36.0853 69.34 36.7213 69.022 37.216 68.5627C37.6753 68.068 37.905 67.3614 37.905 66.4427C37.905 65.4534 37.6576 64.7467 37.163 64.3227C36.633 63.8987 35.9616 63.6337 35.149 63.5277C34.3363 63.4217 33.506 63.3687 32.658 63.3687L28.153 63.3687L28.153 54.0937L31.863 54.0937C34.301 54.0937 36.4916 54.4647 38.435 55.2067C40.343 55.9134 41.8623 57.1677 42.993 58.9697C44.0883 60.7364 44.636 63.2274 44.636 66.4427ZM44 45.0054L8.11897 45.0054L8.11897 51.4714L1.06997 51.4714L1.06997 29.0524L8.11897 29.0524L8.11897 35.4654L44 35.4654L44 45.0054ZM44 25.1139L1.06997 25.1139L1.06997 17.6409L25.662 17.6409L1.06997 6.66988L1.06997 0.52188L44 0.521878L44 8.15388L18.984 8.15388L44 19.3369L44 25.1139Z" fill="white"/>
</svg>
