<svg width="54" height="465" viewBox="0 0 54 465" fill="none" xmlns="http://www.w3.org/2000/svg">
<path d="M44 464.82L1.07 464.82L1.07 439.115L44 439.115L44 448.443L7.854 448.443L7.854 455.492L44 455.492L44 464.82ZM44 432.73L1.07 432.73L1.06999 418.314C1.06999 415.735 1.56466 413.615 2.55399 411.954C3.50799 410.293 4.92133 409.057 6.794 408.244C8.63133 407.431 10.875 407.025 13.525 407.025C16.8463 407.025 19.3903 407.573 21.157 408.668C22.8883 409.763 24.0897 411.247 24.761 413.12C25.4323 414.993 25.768 417.095 25.768 419.427L25.768 423.243L44 423.243L44 432.73ZM19.143 423.243L19.143 420.063C19.143 418.897 18.931 418.014 18.507 417.413C18.083 416.812 17.447 416.424 16.599 416.247C15.751 416.035 14.6733 415.929 13.366 415.929C12.2707 415.929 11.3167 416.017 10.504 416.194C9.656 416.335 8.98466 416.706 8.49 417.307C7.99533 417.908 7.748 418.844 7.748 420.116L7.748 423.243L19.143 423.243ZM44.636 390.156C44.636 393.371 44.0707 395.915 42.94 397.788C41.8093 399.661 40.184 401.003 38.064 401.816C35.944 402.629 33.4177 403.035 30.485 403.035L14.532 403.035C11.564 403.035 9.03766 402.629 6.95299 401.816C4.86833 401.003 3.27833 399.661 2.183 397.788C1.05233 395.915 0.486995 393.371 0.486994 390.156C0.486994 386.905 1.05233 384.344 2.18299 382.471C3.27833 380.563 4.86833 379.203 6.95299 378.39C9.03766 377.577 11.564 377.171 14.532 377.171L30.485 377.171C33.4177 377.171 35.944 377.577 38.064 378.39C40.184 379.202 41.8093 380.563 42.94 382.471C44.0707 384.344 44.636 386.905 44.636 390.156ZM37.905 390.156C37.905 389.166 37.6577 388.442 37.163 387.983C36.6683 387.523 36.0323 387.223 35.255 387.082C34.4777 386.941 33.6827 386.87 32.87 386.87L12.2 386.87C11.352 386.87 10.557 386.941 9.81499 387.082C9.03766 387.223 8.40166 387.524 7.90699 387.983C7.41233 388.442 7.16499 389.167 7.16499 390.156C7.16499 391.075 7.41233 391.764 7.90699 392.223C8.40166 392.682 9.03766 392.983 9.81499 393.124C10.557 393.265 11.352 393.336 12.2 393.336L32.87 393.336C33.6827 393.336 34.4777 393.283 35.255 393.177C36.0323 393.036 36.6683 392.753 37.163 392.329C37.6577 391.87 37.905 391.145 37.905 390.156ZM53.275 373.623L37.216 373.623L37.216 372.404C36.9687 371.591 36.5447 370.849 35.944 370.178C35.308 369.471 34.46 368.835 33.4 368.27C32.34 367.705 31.015 367.192 29.425 366.733C27.835 366.274 25.9447 365.885 23.754 365.567C21.528 365.249 18.9663 364.984 16.069 364.772L1.06999 363.606L1.06999 343.625L37.216 343.625L37.216 338.802L53.275 338.802L53.275 345.056L44 345.533L44 366.574L53.275 367.104L53.275 373.623ZM37.216 363.447L37.216 352.476L7.80099 352.476L7.80099 356.451L17.023 356.928C20.0617 357.105 22.641 357.37 24.761 357.723C26.881 358.041 28.6477 358.43 30.061 358.889C31.439 359.313 32.5697 359.772 33.453 360.267C34.3363 360.762 35.0607 361.292 35.626 361.857C36.1913 362.387 36.7213 362.917 37.216 363.447ZM52.427 335.02L46.173 335.02C46.2083 333.501 46.1377 332.176 45.961 331.045C45.7843 329.914 45.4487 328.996 44.954 328.289C44.4593 327.582 43.788 327.123 42.94 326.911C42.0567 326.664 40.9613 326.699 39.654 327.017L1.06999 336.663L1.06999 327.865L18.719 324.155L30.22 322.406L18.666 321.134L1.06999 318.007L1.06999 309.103L41.085 318.007C43.0283 318.431 44.6713 318.926 46.014 319.491C47.3567 320.056 48.452 320.763 49.3 321.611C50.1833 322.424 50.8547 323.431 51.314 324.632C51.7733 325.833 52.0737 327.3 52.215 329.031C52.3917 330.727 52.4623 332.723 52.427 335.02ZM44 305.143L1.06999 305.143L1.06999 295.656L18.083 295.656L18.083 294.702L1.06999 288.395L1.06999 278.961L21.21 286.805L44 278.696L44 288.448L25.291 294.702L25.291 295.656L44 295.656L44 305.143ZM44 271.103L8.11899 271.103L8.11899 277.569L1.06999 277.569L1.06999 255.15L8.11899 255.15L8.11899 261.563L44 261.563L44 271.103ZM44 251.212L1.06999 251.212L1.06999 241.725L19.196 241.725L19.196 239.605C19.196 236.884 19.6377 234.587 20.521 232.715C21.4043 230.807 22.7647 229.376 24.602 228.422C26.404 227.432 28.736 226.938 31.598 226.938C34.2127 226.938 36.3327 227.291 37.958 227.998C39.5833 228.669 40.8377 229.623 41.721 230.86C42.6043 232.096 43.205 233.527 43.523 235.153C43.841 236.778 44 238.545 44 240.453L44 251.212ZM37.799 241.725L37.799 240.4C37.799 239.198 37.5693 238.262 37.11 237.591C36.6507 236.884 35.944 236.389 34.99 236.107C34.036 235.789 32.8347 235.647 31.386 235.683C29.796 235.718 28.471 236.054 27.411 236.69C26.3157 237.326 25.768 238.598 25.768 240.506L25.768 241.725L37.799 241.725ZM44 223.334L1.06999 223.334L1.06999 213.847L44 213.847L44 223.334ZM44.636 181.468C44.636 184.719 44.053 187.298 42.887 189.206C41.6857 191.079 40.025 192.404 37.905 193.181C35.7497 193.959 33.2233 194.347 30.326 194.347L14.85 194.347C11.882 194.347 9.33799 193.959 7.21799 193.181C5.06265 192.404 3.40199 191.079 2.23599 189.206C1.06999 187.298 0.486986 184.719 0.486985 181.468C0.486985 178.288 1.01699 175.815 2.07699 174.048C3.10165 172.246 4.55032 170.974 6.42298 170.232C8.29565 169.49 10.451 169.119 12.889 169.119L16.599 169.119L16.599 178.394L12.306 178.394C11.458 178.394 10.6453 178.447 9.86798 178.553C9.09065 178.624 8.45465 178.871 7.95999 179.295C7.42999 179.719 7.16498 180.444 7.16498 181.468C7.16498 182.458 7.42999 183.2 7.95999 183.694C8.48999 184.154 9.16132 184.454 9.97399 184.595C10.7513 184.701 11.5817 184.754 12.465 184.754L32.658 184.754C33.612 184.754 34.4953 184.684 35.308 184.542C36.0853 184.366 36.7213 184.048 37.216 183.588C37.6753 183.094 37.905 182.387 37.905 181.468C37.905 180.479 37.6577 179.772 37.163 179.348C36.633 178.924 35.9617 178.659 35.149 178.553C34.3363 178.447 33.506 178.394 32.658 178.394L28.153 178.394L28.153 169.119L31.863 169.119C34.301 169.119 36.4917 169.49 38.435 170.232C40.343 170.939 41.8623 172.193 42.993 173.995C44.0883 175.762 44.636 178.253 44.636 181.468ZM44 163.9L1.06998 163.9L1.06998 144.608L7.53598 144.608L7.53599 154.413L18.189 154.413L18.189 146.94L24.761 146.94L24.761 154.413L37.587 154.413L37.587 144.502L44 144.502L44 163.9ZM44 140.036L1.06998 140.036L1.06998 130.549L18.083 130.549L18.083 129.595L1.06998 123.288L1.06998 113.854L21.21 121.698L44 113.589L44 123.341L25.291 129.595L25.291 130.549L44 130.549L44 140.036ZM44 105.996L8.11898 105.996L8.11898 112.462L1.06998 112.462L1.06998 90.0429L8.11898 90.0429L8.11898 96.4559L44 96.4559L44 105.996ZM44.636 73.9674C44.636 77.1827 44.0706 79.7267 42.94 81.5994C41.8093 83.472 40.184 84.8147 38.064 85.6274C35.944 86.44 33.4176 86.8464 30.485 86.8464L14.532 86.8464C11.564 86.8464 9.03765 86.44 6.95298 85.6274C4.86831 84.8147 3.27832 83.472 2.18298 81.5994C1.05231 79.7267 0.486981 77.1827 0.486981 73.9674C0.486981 70.7167 1.05231 68.155 2.18298 66.2824C3.27831 64.3744 4.86831 63.014 6.95298 62.2014C9.03765 61.3887 11.564 60.9824 14.532 60.9824L30.485 60.9824C33.4176 60.9824 35.944 61.3887 38.064 62.2014C40.184 63.014 41.8093 64.3744 42.94 66.2824C44.0706 68.155 44.636 70.7167 44.636 73.9674ZM37.905 73.9674C37.905 72.978 37.6576 72.2537 37.163 71.7944C36.6683 71.335 36.0323 71.0347 35.255 70.8934C34.4776 70.752 33.6826 70.6814 32.87 70.6814L12.2 70.6814C11.352 70.6814 10.557 70.752 9.81498 70.8934C9.03765 71.0347 8.40165 71.335 7.90698 71.7944C7.41231 72.2537 7.16498 72.978 7.16498 73.9674C7.16498 74.886 7.41231 75.575 7.90698 76.0344C8.40165 76.4937 9.03765 76.794 9.81498 76.9354C10.557 77.0767 11.352 77.1474 12.2 77.1474L32.87 77.1474C33.6826 77.1474 34.4776 77.0944 35.255 76.9884C36.0323 76.847 36.6683 76.5644 37.163 76.1404C37.6576 75.681 37.905 74.9567 37.905 73.9674ZM44 55.2087L1.06998 55.2087L1.06998 40.7927C1.06998 38.2133 1.56464 36.0933 2.55398 34.4327C3.50798 32.772 4.92131 31.5353 6.79398 30.7227C8.63131 29.91 10.875 29.5037 13.525 29.5037C16.8463 29.5037 19.3903 30.0513 21.157 31.1467C22.8883 32.242 24.0896 33.726 24.761 35.5987C25.4323 37.4713 25.768 39.5737 25.768 41.9057L25.768 45.7217L44 45.7217L44 55.2087ZM19.143 45.7217L19.143 42.5417C19.143 41.3757 18.931 40.4923 18.507 39.8917C18.083 39.291 17.447 38.9023 16.599 38.7257C15.751 38.5137 14.6733 38.4077 13.366 38.4077C12.2706 38.4077 11.3166 38.496 10.504 38.6727C9.65598 38.814 8.98465 39.185 8.48998 39.7857C7.99531 40.3863 7.74798 41.3227 7.74798 42.5947L7.74798 45.7217L19.143 45.7217ZM44 27.8772L1.06998 19.7682L1.06998 8.95623L44 0.95323L44 9.69823L34.937 11.1292L34.937 17.4362L44 18.9202L44 27.8772ZM29.266 16.5882L29.266 12.0302L12.518 14.3092L29.266 16.5882Z" fill="#000008"/>
</svg>
